<svg xmlns="http://www.w3.org/2000/svg" width="88" height="88" viewBox="0 0 88 88">
  <g id="Grupo_848" data-name="Grupo 848" transform="translate(-5736.083 -4364)">
    <g id="Componente_19_8" data-name="Componente 19 – 8" transform="translate(5736.083 4364)">
      <path id="Caminho_4" data-name="Caminho 4" d="M61.609,88H26.391C11.817,88,0,75.642,0,60.394V27.606C0,12.362,11.817,0,26.391,0H61.609C76.186,0,88,12.362,88,27.606V60.394C88,75.642,76.186,88,61.609,88" transform="translate(88 88) rotate(180)" fill="#4a9d52"/>
      <path id="Caminho_31" data-name="Caminho 31" d="M19.619,52.9a4.449,4.449,0,0,1-3.644-1.971L4.254,34.1a5.285,5.285,0,0,1-.884-3.677A5.061,5.061,0,0,1,5.14,27.145a4.3,4.3,0,0,1,3.387-.964,4.51,4.51,0,0,1,3.019,1.926l7.712,11.064L38.649,5.337a4.371,4.371,0,0,1,6.3-1.586,5.222,5.222,0,0,1,1.463,6.844L23.5,50.554a4.509,4.509,0,0,1-3.674,2.338,2.066,2.066,0,0,1-.21.007Z" transform="translate(20.382 16.051)" fill="#fff"/>
    </g>
  </g>
</svg>
