<?xml version="1.0" encoding="UTF-8"?>
<svg xmlns="http://www.w3.org/2000/svg" version="1.1" viewBox="0 0 70 70">
  <defs>
    <style>
      .cls-1 {
        fill: #0b2f2a;
      }

      .cls-2 {
        fill: #d66e0f;
      }
    </style>
  </defs>
  <!-- Generator: Adobe Illustrator 28.7.1, SVG Export Plug-In . SVG Version: 1.2.0 Build 142)  -->
  <g>
    <g id="Ajuda">
      <path id="Caminho_4" class="cls-2" d="M21,0h28c11.6,0,21,9.8,21,22v26.1c0,12.1-9.4,22-21,22h-28c-11.6,0-21-9.8-21-22v-26.1C0,9.8,9.4,0,21,0"/>
      <path class="cls-1" d="M35,51c0,.9-.5,1.7-1.3,2.1-.8.4-1.8.3-2.5-.3l-12.7-10.6h-6.8c-1.3,0-2.3-1-2.3-2.3,0,0,0,0,0,0v-9.3c0-1.3,1-2.3,2.3-2.3h6.8l12.7-10.6c.7-.6,1.7-.7,2.5-.3.8.4,1.3,1.2,1.3,2.1v31.5s0,0,0,0ZM44,47.4c-.7,0-1.3-.2-1.8-.7l-.3-.3c-.8-.8-.9-2.1-.2-3,1.7-2.3,2.7-5.2,2.7-8.1,0-3.1-1-6.1-3-8.5-.8-.9-.7-2.3.2-3.1l.3-.3c.5-.5,1.1-.7,1.8-.7.7,0,1.3.3,1.7.9,2.7,3.4,4.2,7.4,4.2,11.8s-1.3,7.9-3.7,11.2c-.4.5-1,.9-1.7.9h0ZM53.6,54.6c-.8,1-2.3,1.1-3.3.3,0,0,0,0-.1-.1l-.3-.3c-.9-.9-.9-2.2-.1-3.1,3.8-4.5,5.8-10.1,5.8-16,0-6.1-2.2-11.9-6.2-16.5-.8-.9-.8-2.3,0-3.2l.3-.3c.4-.5,1.1-.7,1.7-.7.6,0,1.2.3,1.7.8,4.9,5.5,7.5,12.5,7.5,19.9,0,7.1-2.5,13.9-7.1,19.3h0Z"/>
    </g>
  </g>
</svg>