<svg id="Fechar" xmlns="http://www.w3.org/2000/svg" width="70" height="70" viewBox="0 0 70 70">
  <path id="Caminho_4" data-name="Caminho 4" d="M49.007,70H20.993C9.4,70,0,60.169,0,48.04V21.96C0,9.833,9.4,0,20.993,0H49.007C60.6,0,70,9.833,70,21.96V48.04C70,60.169,60.6,70,49.007,70" transform="translate(70 70) rotate(180)" fill="#d66e0f"/>
  <path id="Caminho_7" data-name="Caminho 7" d="M98.251,93.374,86.4,81.475,98.278,69.729a1.254,1.254,0,0,0,0-1.771l-3.379-3.4a1.243,1.243,0,0,0-.885-.361,1.282,1.282,0,0,0-.885.361L81.3,76.271,69.457,64.57a1.243,1.243,0,0,0-.885-.361,1.282,1.282,0,0,0-.885.361l-3.37,3.4a1.254,1.254,0,0,0,0,1.771L76.2,81.484,64.352,93.374a1.252,1.252,0,0,0-.37.885,1.215,1.215,0,0,0,.37.885l3.379,3.4a1.245,1.245,0,0,0,.885.37,1.224,1.224,0,0,0,.885-.37L81.3,86.688,93.11,98.533A1.245,1.245,0,0,0,94,98.9a1.224,1.224,0,0,0,.885-.37l3.379-3.4a1.252,1.252,0,0,0,.37-.885A1.3,1.3,0,0,0,98.251,93.374Z" transform="translate(-46.03 -46.309)" fill="#0b2f2a"/>
</svg>
