<svg xmlns="http://www.w3.org/2000/svg" width="53.076" height="152.217" viewBox="0 0 53.076 152.217">
  <g id="Grupo_1" data-name="Grupo 1" transform="translate(-156 -669.26)">
    <path id="Caminho_1" data-name="Caminho 1" d="M37.159,50.74H15.918A15.918,15.918,0,0,1,0,34.822v-18.9A15.919,15.919,0,0,1,15.918,0H37.159A15.918,15.918,0,0,1,53.076,15.918v18.9A15.917,15.917,0,0,1,37.159,50.74" transform="translate(156 719.999)" fill="#4a9d52"/>
    <path id="Caminho_3" data-name="Caminho 3" d="M37.159,50.74H15.918A15.918,15.918,0,0,1,0,34.822v-18.9A15.919,15.919,0,0,1,15.918,0H37.159A15.918,15.918,0,0,1,53.076,15.918v18.9A15.917,15.917,0,0,1,37.159,50.74" transform="translate(156 669.26)" fill="#d66e10"/>
    <path id="Caminho_2" data-name="Caminho 2" d="M1.592,38.074c-3.463-3.516-.929-9.31,4.262-9.384.039,0,.08,0,.12,0h30.8c9,0,16.3,6.516,16.3,14.55V70.9a8.926,8.926,0,0,1-4.812,7.727,6.623,6.623,0,0,1-7.794-1.088Z" transform="translate(156 742.049)" fill="#fcf7c9"/>
  </g>
</svg>
