<?xml version="1.0" encoding="UTF-8"?>
<svg xmlns="http://www.w3.org/2000/svg" version="1.1" viewBox="0 0 70 70">
  <defs>
    <style>
      .cls-1 {
        fill: #0b2f2a;
      }

      .cls-2 {
        fill: #d66e0f;
      }
    </style>
  </defs>
  <!-- Generator: Adobe Illustrator 28.7.1, SVG Export Plug-In . SVG Version: 1.2.0 Build 142)  -->
  <g>
    <g id="Ajuda">
      <path id="Caminho_4" class="cls-2" d="M21,0h28c11.6,0,21,9.8,21,22v26.1c0,12.1-9.4,22-21,22h-28c-11.6,0-21-9.8-21-22v-26.1C0,9.8,9.4,0,21,0"/>
      <path class="cls-1" d="M55.3,13.1h-10.9c-.6,0-1.2.3-1.4.9-.3.6-.2,1.2.3,1.7l3.3,3.3-7.5,7.5c-1.2,1.2-1.2,3.1,0,4.4.6.6,1.4.9,2.2.9s1.6-.3,2.2-.9l7.5-7.5,3.3,3.3c.3.3.6.5,1.1.5s.5,0,.6-.2c.6-.3.9-.8.9-1.4v-10.9c0-.9-.6-1.6-1.6-1.6h0ZM26.6,39.1l-7.5,7.5-3.3-3.3c-.5-.5-1.1-.6-1.7-.3s-.9.8-.9,1.4v10.9c0,.9.6,1.6,1.6,1.6h10.9c.6,0,1.2-.3,1.4-.9.3-.6.2-1.2-.3-1.7l-3.3-3.3,7.5-7.5c1.2-1.2,1.2-3.1,0-4.4s-3.1-1.2-4.4,0h0ZM55.9,43c-.6-.3-1.2-.2-1.7.3l-3.3,3.3-7.5-7.5c-1.2-1.2-3.1-1.2-4.4,0s-1.2,3.1,0,4.4l7.5,7.5-3.3,3.3c-.5.5-.6,1.1-.3,1.7s.8.9,1.4.9h10.9c.9,0,1.6-.6,1.6-1.6v-10.9c0-.6-.3-1.2-.9-1.4h0ZM23.4,19.1l3.3-3.3c.5-.5.6-1.1.3-1.7-.2-.6-.8-.9-1.4-.9h-10.9c-.9,0-1.6.6-1.6,1.6v10.9c0,.6.3,1.2.9,1.4.2.2.5.2.6.2.5,0,.8-.2,1.1-.5l3.3-3.3,7.5,7.5c.6.6,1.4.9,2.2.9s1.6-.3,2.2-.9c1.2-1.2,1.2-3.1,0-4.4l-7.5-7.5Z"/>
    </g>
  </g>
</svg>