<svg id="Ajuda" xmlns="http://www.w3.org/2000/svg" width="70" height="70" viewBox="0 0 70 70">
  <path id="Caminho_4" data-name="Caminho 4" d="M49.007,70H20.993C9.4,70,0,60.169,0,48.04V21.96C0,9.833,9.4,0,20.993,0H49.007C60.6,0,70,9.833,70,21.96V48.04C70,60.169,60.6,70,49.007,70" transform="translate(70 70) rotate(180)" fill="#d66e0f"/>
  <path id="Caminho_8" data-name="Caminho 8" d="M17.144,23.8h-6.49c0-6.49,3.461-8.654,5.841-9.952a7.55,7.55,0,0,0,1.947-1.3,2.749,2.749,0,0,0,.433-3.029A5.059,5.059,0,0,0,13.9,6.49,5.264,5.264,0,0,0,8.49,11.466L2,10.6C2.433,6.923,5.678,0,13.9,0A11.829,11.829,0,0,1,24.932,6.923,9.165,9.165,0,0,1,23.2,17.091a16.532,16.532,0,0,1-3.461,2.38A4.229,4.229,0,0,0,17.144,23.8Zm1.082,6.49A4.327,4.327,0,1,1,13.9,26.059,4.327,4.327,0,0,1,18.226,30.288Z" transform="translate(21.076 17.891)" fill="#0b2f2a"/>
</svg>
