<?xml version="1.0" encoding="utf-8"?>
<!-- Generator: Adobe Illustrator 28.3.0, SVG Export Plug-In . SVG Version: 6.00 Build 0)  -->
<svg version="1.1" id="Camada_1" xmlns="http://www.w3.org/2000/svg" xmlns:xlink="http://www.w3.org/1999/xlink" x="0px" y="0px"
	 viewBox="0 0 174.3 87.6" style="enable-background:new 0 0 174.3 87.6;" xml:space="preserve">
<style type="text/css">
	.st0{fill:#E6233C;}
	.st1{fill:#99C31C;}
	.st2{fill:#9A1A33;}
	.st3{fill:#67802A;}
</style>
<g>
	<path class="st0" d="M0,87.6V0h87.6v87.6H0z M46.9,34.4H28.1v-25H9.4v43.8h18.8v25h50V9.4H59.4v50H46.9V34.4z"/>
	<path class="st1" d="M174.3,0v87.6H86.7V0H174.3z M114.9,28.1h50V9.4H96.1v68.8h68.8V59.4h-50V28.1z"/>
</g>
<polyline class="st2" points="29.9,78.2 29.7,53.1 9.4,53.2 9.4,87.6 86.7,87.6 86.7,18.7 78.2,9.4 78.2,78.2 29.9,78.2 "/>
<polygon class="st3" points="96.1,9.4 86.7,18.7 86.7,87.6 161.2,87.6 164.9,78.2 96.1,78.2 "/>
</svg>
