<?xml version="1.0" encoding="UTF-8"?>
<svg xmlns="http://www.w3.org/2000/svg" version="1.1" viewBox="0 0 70 70">
  <defs>
    <style>
      .cls-1 {
        fill: #0b2f2a;
      }

      .cls-2 {
        fill: #d66e0f;
      }
    </style>
  </defs>
  <!-- Generator: Adobe Illustrator 28.7.1, SVG Export Plug-In . SVG Version: 1.2.0 Build 142)  -->
  <g>
    <g id="Ajuda">
      <path id="Caminho_4" class="cls-2" d="M20.1-1.1h28c11.6,0,21,9.8,21,22v26.1c0,12.1-9.4,22-21,22h-28c-11.6,0-21-9.8-21-22v-26.1C-.9,8.7,8.5-1.1,20.1-1.1"/>
      <g>
        <path class="cls-1" d="M23.4,32.2h-2.1c-.5,0-1,.3-1.3.8l-5.8,13.5,13.8-7c-1.6-2.3-3.3-4.8-4.6-7.3ZM50,33.1c-.2-.5-.7-.8-1.3-.8h-2.1c-2.5,4.7-6.2,9.6-8.5,12.3-1.6,1.9-4.6,1.9-6.2,0-.2-.2-1-1.2-2.2-2.8l-2.5,1.3,9.4,9.4,17.8-9.2-4.3-10.1ZM12.5,50.5l-.7,1.7c-.4.9.3,1.9,1.3,1.9h20.1c.1,0,.1,0,.8-.4l-9.4-9.4-12.1,6.2ZM58.2,52.2l-2.8-6.5-16.3,8.5h17.8c1,0,1.6-1,1.3-1.9ZM36.4,19.8c0-.8-.6-1.4-1.4-1.4s-1.4.6-1.4,1.4.6,1.4,1.4,1.4,1.4-.6,1.4-1.4Z"/>
        <path class="cls-1" d="M36,42.6c.5-.5,11.3-13.1,11.3-21.7,0-17.8-24.7-18-24.7,0s10.8,21.2,11.3,21.7c.5.6,1.5.6,2.1,0h0ZM30.9,19.8c0-2.3,1.8-4.1,4.1-4.1s4.1,1.8,4.1,4.1-1.8,4.1-4.1,4.1-4.1-1.8-4.1-4.1Z"/>
      </g>
    </g>
  </g>
</svg>