<svg id="Explorar" xmlns="http://www.w3.org/2000/svg" width="70" height="70" viewBox="0 0 70 70">
  <path id="Caminho_4" data-name="Caminho 4" d="M49.007,70H20.993C9.4,70,0,60.169,0,48.04V21.96C0,9.833,9.4,0,20.993,0H49.007C60.6,0,70,9.833,70,21.96V48.04C70,60.169,60.6,70,49.007,70" transform="translate(70 70) rotate(180)" fill="#d66e0f"/>
  <path id="Caminho_7" data-name="Caminho 7" d="M27.446,23.876l-7.531-7.563,8.312-8.226A.84.84,0,0,0,28.284,6.9L26.137,4.745a.756.756,0,0,0-.58-.213.945.945,0,0,0-.6.27L16.68,13,9.148,5.571a.756.756,0,0,0-.58-.213.945.945,0,0,0-.6.27L5.606,8.006a.84.84,0,0,0-.057,1.182l7.555,7.46L4.81,24.969a.924.924,0,0,0-.276.6.738.738,0,0,0,.219.579L6.9,28.311a.756.756,0,0,0,.579.219.9.9,0,0,0,.6-.276l8.261-8.3,7.5,7.528a.756.756,0,0,0,.579.219.9.9,0,0,0,.6-.276L27.4,25.052a.924.924,0,0,0,.276-.6A.784.784,0,0,0,27.446,23.876Z" transform="translate(12.041 35.324) rotate(-45)" fill="#0b2f2a"/>
</svg>
