<?xml version="1.0" standalone="no"?>
<!DOCTYPE svg PUBLIC "-//W3C//DTD SVG 1.1//EN" "http://www.w3.org/Graphics/SVG/1.1/DTD/svg11.dtd" >
<svg xmlns="http://www.w3.org/2000/svg" xmlns:xlink="http://www.w3.org/1999/xlink" version="1.1">
<metadata>
Created by FontForge 20201107 at Thu Dec 21 23:13:14 2023
 By 
Copyright (c) 2023 by Fabio Haag Type. All rights reserved. Fabio Haag Type is a registered trademark of VLF Design Ltda.
</metadata>
<defs>
<font id="RDContrast-LightItalic" horiz-adv-x="0" >
  <font-face 
    font-family="RD Contrast Light"
    font-weight="300"
    font-style="italic"
    font-stretch="normal"
    units-per-em="1000"
    panose-1="2 11 3 3 3 5 3 9 3 4"
    ascent="800"
    descent="-200"
    x-height="513"
    cap-height="707"
    bbox="-232 -243 1136 956"
    underline-thickness="50"
    underline-position="-125"
    slope="-11"
    unicode-range="U+000D-FB02"
  />
<missing-glyph horiz-adv-x="600" 
d="M147 758h500l-190 -980h-500zM398 -163l168 862h-360l-167 -862h359z" />
    <glyph glyph-name="fi" unicode="fi" horiz-adv-x="621" 
d="M169 471h-105l8 42h105l17 88q14 76 62 120.5t116 44.5q59 0 104 -32l-21 -105h-37q5 28 5 44q0 29 -13 42t-40 13q-82 0 -107 -132l-16 -83h170l-8 -42h-170l-91 -471h-71zM519 513h70l-99 -513h-70zM552 717q17 17 42 17q20 0 32.5 -12t12.5 -31q0 -25 -17 -42.5
t-42 -17.5q-19 0 -32 12.5t-13 31.5q0 25 17 42z" />
    <glyph glyph-name="fl" unicode="fl" horiz-adv-x="620" 
d="M169 471h-105l8 42h105l17 87q14 76 61.5 121t116.5 45q59 0 104 -32l-21 -106h-37q5 28 5 44q0 30 -13 43t-40 13q-82 0 -107 -133l-16 -82h170l-8 -42h-170l-91 -471h-71zM567 758h70l-147 -758h-70z" />
    <glyph glyph-name="f_f.liga" unicode="ff" horiz-adv-x="724" 
d="M168 471h-104l8 42h105l17 91q15 77 61.5 119.5t115.5 42.5q58 0 101 -32l-20 -105h-38q5 28 5 45q0 28 -12.5 41t-38.5 13q-39 0 -65 -31t-39 -98l-17 -86h265l17 88q14 76 62 120.5t116 44.5q59 0 104 -32l-21 -105h-37q5 28 5 44q0 29 -13 42t-40 13q-82 0 -107 -132
l-16 -83h170l-8 -42h-170l-91 -471h-71l92 471h-265l-91 -471h-71z" />
    <glyph glyph-name="f_f_i.liga" unicode="ffi" horiz-adv-x="956" 
d="M168 471h-104l8 42h105l17 91q15 77 61.5 119.5t115.5 42.5q58 0 101 -32l-20 -105h-38q5 28 5 45q0 28 -12.5 41t-38.5 13q-39 0 -65 -31t-39 -98l-17 -86h265l17 88q14 76 62 120.5t116 44.5q59 0 104 -32l-21 -105h-37q5 28 5 44q0 29 -13 42t-40 13q-82 0 -107 -132
l-16 -83h170l-8 -42h-170l-91 -471h-71l92 471h-265l-91 -471h-71zM854 513h71l-99 -513h-71zM882.5 643.5q-12.5 12.5 -12.5 31.5q0 25 17 42t42 17q19 0 31.5 -12t12.5 -31q0 -25 -17 -42.5t-42 -17.5q-19 0 -31.5 12.5z" />
    <glyph glyph-name="f_f_l.liga" unicode="ffl" horiz-adv-x="955" 
d="M168 471h-104l8 42h105l17 91q15 77 61.5 119.5t115.5 42.5q58 0 101 -32l-20 -105h-38q5 28 5 45q0 28 -12.5 41t-38.5 13q-39 0 -65 -31t-39 -98l-17 -86h265l17 88q14 76 62 120.5t116 44.5q59 0 104 -32l-21 -105h-37q5 28 5 44q0 29 -13 42t-40 13q-82 0 -107 -132
l-16 -83h170l-8 -42h-170l-91 -471h-71l92 471h-265l-91 -471h-71zM902 758h70l-147 -758h-70z" />
    <glyph glyph-name=".notdef" horiz-adv-x="600" 
d="M147 758h500l-190 -980h-500zM398 -163l168 862h-360l-167 -862h359z" />
    <glyph glyph-name=".null" 
 />
    <glyph glyph-name="nonmarkingreturn" unicode="&#xd;" horiz-adv-x="600" 
 />
    <glyph glyph-name="space" unicode=" " horiz-adv-x="230" 
 />
    <glyph glyph-name="exclam" unicode="!" horiz-adv-x="290" 
d="M189 707h84l-120 -499h-43zM60 43q0 19 14 32.5t36 13.5q12 0 22 -6.5t15 -19.5q2 -8 2 -12q0 -19 -14.5 -33t-35.5 -14q-12 0 -22 7t-15 19q-2 8 -2 13z" />
    <glyph glyph-name="quotedbl" unicode="&#x22;" horiz-adv-x="363" 
d="M308 707h74l-63 -236h-42zM156 707h74l-63 -236h-42z" />
    <glyph glyph-name="numbersign" unicode="#" horiz-adv-x="714" 
d="M173 206h-148l15 43h147l72 210h-148l15 44h148l68 204h49l-68 -204h207l68 204h49l-68 -204h148l-15 -44h-147l-72 -210h147l-14 -43h-148l-68 -206h-50l69 206h-207l-68 -206h-50zM443 249l72 210h-206l-72 -210h206z" />
    <glyph glyph-name="dollar" unicode="$" horiz-adv-x="590" 
d="M63 84l27 140h42q-5 -32 -5 -51q0 -57 29.5 -85.5t87.5 -33.5l57 281l-33 12q-57 21 -90.5 61.5t-33.5 98.5q0 56 29 98.5t81 66.5t119 24l22 112h44l-23 -114q85 -11 145 -55l-25 -134h-42q4 23 4 46q0 48 -22 72.5t-68 29.5l-53 -261l23 -9q66 -26 100.5 -64.5
t34.5 -104.5q0 -93 -64.5 -147t-169.5 -56l-22 -112h-44l23 113q-101 11 -173 72zM296 414l19 -7l50 247q-70 -2 -113 -37.5t-43 -95.5q0 -74 87 -107zM403.5 93.5q43.5 38.5 43.5 104.5q0 44 -23.5 72.5t-72.5 46.5l-10 3l-53 -267q72 2 115.5 40.5z" />
    <glyph glyph-name="percent" unicode="%" horiz-adv-x="843" 
d="M706 707h68l-598 -707h-68zM126 589q24 56 66 89.5t93 33.5q54 0 87 -40t33 -109q0 -64 -24 -120t-66 -89.5t-93 -33.5q-54 0 -87 40t-33 109q0 64 24 120zM181 380q14 -26 42 -26q31 0 58.5 32t43.5 83.5t16 105.5q0 50 -15 76.5t-42 26.5q-31 0 -58 -32t-43 -83.5
t-16 -106.5q0 -50 14 -76zM499 264q24 56 66 89.5t93 33.5q54 0 87 -40t33 -109q0 -64 -24 -120t-66 -89.5t-93 -33.5q-54 0 -87 40t-33 109q0 64 24 120zM553.5 55q14.5 -26 42.5 -26q31 0 58 32t43 83.5t16 105.5q0 51 -14.5 77t-41.5 26q-31 0 -58.5 -32t-43.5 -83.5
t-16 -106.5q0 -50 14.5 -76z" />
    <glyph glyph-name="ampersand" unicode="&#x26;" horiz-adv-x="691" 
d="M149 15q-50 23 -77.5 64.5t-27.5 96.5q0 79 54 143t145 94q-28 55 -28 112q0 86 54 138t145 52q42 0 80 -10.5t67 -30.5l-26 -125h-42q6 27 6 48q0 41 -21 59t-65 18q-62 0 -96 -38.5t-34 -101.5q0 -61 40 -128l159 -263q63 80 93 210h43q-40 -160 -113 -247
q20 -36 39.5 -50.5t44.5 -14.5q22 0 41 5l-7 -40q-26 -14 -58 -14q-30 0 -59.5 16t-50.5 49q-80 -65 -191 -65q-65 0 -115 23zM163 74q42 -41 113 -41q85 0 158 60l-172 285q-65 -26 -103 -77t-38 -117q0 -69 42 -110z" />
    <glyph glyph-name="quotesingle" unicode="'" horiz-adv-x="212" 
d="M156 707h74l-63 -236h-42z" />
    <glyph glyph-name="parenleft" unicode="(" horiz-adv-x="319" 
d="M66 189q0 334 264 569h56q-76 -88 -128 -167.5t-83.5 -181t-31.5 -226.5q0 -175 61 -335h-50q-88 171 -88 341z" />
    <glyph glyph-name="parenright" unicode=")" horiz-adv-x="318" 
d="M78 15.5q52 79.5 83.5 181t31.5 226.5q0 174 -60 335h49q89 -170 89 -341q0 -333 -265 -569h-56q76 88 128 167.5z" />
    <glyph glyph-name="asterisk" unicode="*" horiz-adv-x="423" 
d="M119 430l104 127l-122 50l13 35l138 -40l38 152h36l-21 -150l143 39l10 -37l-150 -55l57 -129l-33 -16l-69 118l-116 -118z" />
    <glyph glyph-name="plus" unicode="+" horiz-adv-x="590" 
d="M283 300h-195l8 41h194l38 195h43l-38 -195h193l-8 -41h-193l-38 -194h-42z" />
    <glyph glyph-name="comma" unicode="," horiz-adv-x="282" 
d="M48.5 -28q23.5 61 22.5 130h78q4 -132 -125 -252h-46q47 61 70.5 122z" />
    <glyph glyph-name="hyphen" unicode="-" horiz-adv-x="468" 
d="M88 333h321l-12 -64h-321z" />
    <glyph glyph-name="period" unicode="." horiz-adv-x="282" 
d="M59 6.5q-14 14.5 -14 36.5q0 25 17.5 41.5t42.5 16.5q22 0 36 -14.5t14 -36.5q0 -24 -17.5 -41t-41.5 -17q-23 0 -37 14.5z" />
    <glyph glyph-name="slash" unicode="/" horiz-adv-x="372" 
d="M386 758h61l-442 -905h-61z" />
    <glyph glyph-name="zero" unicode="0" horiz-adv-x="575" 
d="M112.5 57.5q-49.5 65.5 -49.5 182.5q0 123 41 233t111 176t154 66q82 0 131 -65.5t49 -182.5q0 -124 -40.5 -233.5t-110.5 -175.5t-154 -66q-82 0 -131.5 65.5zM165.5 83q27.5 -50 80.5 -50q62 0 114.5 64t83 166.5t30.5 213.5q0 96 -27.5 146.5t-79.5 50.5
q-62 0 -114.5 -63.5t-83.5 -166.5t-31 -214q0 -97 27.5 -147z" />
    <glyph glyph-name="one" unicode="1" horiz-adv-x="364" 
d="M267 614l-168 -72l10 51l192 114h55l-141 -707h-71z" />
    <glyph glyph-name="two" unicode="2" horiz-adv-x="546" 
d="M281.5 256q90.5 81 132.5 148.5t42 137.5q0 64 -32 98t-90 34q-64 0 -104 -35t-55 -110h-41l27 146q79 40 176 40q89 0 141.5 -48t52.5 -128q0 -72 -46 -143.5t-137.5 -150t-239.5 -178.5h351l-14 -67h-427l11 53q162 122 252.5 203z" />
    <glyph glyph-name="three" unicode="3" horiz-adv-x="561" 
d="M92.5 48q-53.5 56 -49.5 147h42q-4 -72 37.5 -117t116.5 -45q50 0 90.5 22t63.5 62.5t23 93.5q0 60 -31.5 98t-93.5 38h-61l9 44h65q46 0 85 19.5t61.5 55t22.5 83.5q0 57 -36.5 91t-96.5 34q-68 0 -107 -33.5t-53 -109.5h-42l28 144q45 21 86 30.5t90 9.5
q59 0 105.5 -21.5t72 -59.5t25.5 -85q0 -69 -49 -118.5t-124 -63.5q57 -17 88 -60.5t31 -100.5q0 -63 -33.5 -112t-90.5 -75.5t-125 -26.5q-96 0 -149.5 56z" />
    <glyph glyph-name="four" unicode="4" horiz-adv-x="561" 
d="M350 187h-317l5 31l345 489h89l-376 -476h262l44 217h70l-43 -217h94l-8 -44h-94l-38 -187h-70z" />
    <glyph glyph-name="five" unicode="5" horiz-adv-x="563" 
d="M145.5 16.5q-42.5 24.5 -64.5 67t-20 95.5h42q0 -65 38 -105.5t103 -40.5q53 0 95.5 30.5t67 82.5t24.5 114q0 68 -32 107.5t-92 39.5q-44 0 -86.5 -21.5t-77.5 -65.5h-38l97 387h363l-14 -67h-324l-63 -250q32 30 72 45.5t84 15.5q56 0 98 -24.5t65 -67.5t23 -98
q0 -75 -35.5 -136.5t-95 -97t-129.5 -35.5q-58 0 -100.5 24.5z" />
    <glyph glyph-name="six" unicode="6" horiz-adv-x="563" 
d="M114 61.5q-50 69.5 -50 184.5q0 127 44 234.5t123.5 171t183.5 63.5q37 0 70.5 -10.5t59.5 -28.5l-9 -41q-54 35 -116 35q-72 0 -132 -44t-99.5 -124.5t-53.5 -187.5q27 60 79 95.5t116 35.5q50 0 91 -23t65.5 -67t24.5 -104q0 -71 -31.5 -130.5t-87.5 -94t-126 -34.5
q-102 0 -152 69.5zM174 78.5q36 -45.5 94 -45.5q47 0 85 29.5t60 79t22 107.5q0 73 -32.5 112t-84.5 39q-49 0 -90.5 -29t-65.5 -77.5t-24 -104.5q0 -65 36 -110.5z" />
    <glyph glyph-name="seven" unicode="7" horiz-adv-x="536" 
d="M517 638h-379l14 69h434l-10 -53l-456 -654h-93z" />
    <glyph glyph-name="eight" unicode="8" horiz-adv-x="582" 
d="M145.5 15.5q-48.5 23.5 -75 65t-26.5 92.5q0 74 52 129t138 73q-49 19 -77.5 58.5t-28.5 90.5q0 53 31 96.5t84.5 69t119.5 25.5q60 0 106 -22t71.5 -60.5t25.5 -85.5q0 -68 -48 -118t-124 -65q54 -17 86 -60.5t32 -99.5q0 -59 -32.5 -107.5t-90 -76.5t-130.5 -28
q-65 0 -113.5 23.5zM156.5 72q37.5 -39 104.5 -39q51 0 91 23t62.5 63.5t22.5 90.5q0 63 -36 101.5t-98 38.5q-52 0 -94 -22.5t-66 -63t-24 -90.5q0 -63 37.5 -102zM235 425q34 -36 91 -36q47 0 85.5 20t60 55.5t21.5 79.5q0 57 -35.5 93.5t-96.5 36.5q-45 0 -81.5 -20
t-57.5 -55.5t-21 -79.5q0 -58 34 -94z" />
    <glyph glyph-name="nine" unicode="9" horiz-adv-x="563" 
d="M115.5 2.5q-33.5 10.5 -59.5 28.5l9 41q54 -35 115 -35q73 0 133 44t99.5 124.5t53.5 187.5q-27 -60 -79.5 -95.5t-116.5 -35.5q-49 0 -90 23t-65.5 67t-24.5 104q0 71 31.5 130.5t87.5 94t126 34.5q102 0 152 -69.5t50 -184.5q0 -127 -44 -234.5t-124 -171t-183 -63.5
q-37 0 -70.5 10.5zM198 346q33 -39 84 -39q49 0 91 29t66 77.5t24 104.5q0 65 -36 110.5t-95 45.5q-46 0 -84.5 -29.5t-60.5 -79t-22 -107.5q0 -73 33 -112z" />
    <glyph glyph-name="colon" unicode=":" horiz-adv-x="282" 
d="M140.5 426.5q-13.5 14.5 -13.5 36.5q0 25 17 41.5t42 16.5q23 0 37 -14.5t14 -36.5q0 -25 -17.5 -41.5t-42.5 -16.5q-23 0 -36.5 14.5zM62.5 84.5q17.5 16.5 42.5 16.5q22 0 36 -14.5t14 -36.5q0 -24 -17.5 -41t-41.5 -17q-23 0 -37 14.5t-14 36.5q0 25 17.5 41.5z" />
    <glyph glyph-name="semicolon" unicode=";" horiz-adv-x="282" 
d="M48.5 -28q23.5 61 22.5 130h78q4 -132 -125 -252h-46q47 61 70.5 122zM143.5 504.5q17.5 16.5 42.5 16.5q22 0 36 -14.5t14 -36.5q0 -24 -17.5 -41t-41.5 -17q-23 0 -37 14.5t-14 36.5q0 25 17.5 41.5z" />
    <glyph glyph-name="less" unicode="&#x3c;" horiz-adv-x="590" 
d="M84 296l8 39l464 187l-10 -49l-407 -160l345 -159l-8 -43z" />
    <glyph glyph-name="equal" unicode="=" horiz-adv-x="590" 
d="M117 449h430l-8 -41h-430zM74 226h430l-8 -40h-430z" />
    <glyph glyph-name="greater" unicode="&#x3e;" horiz-adv-x="590" 
d="M68 161l406 159l-345 159l9 43l392 -185l-8 -39l-464 -187z" />
    <glyph glyph-name="question" unicode="?" horiz-adv-x="487" 
d="M192 257q0 48 19 80t62 68l85 71q30 24 46.5 49t16.5 56q0 39 -27 66t-84 27q-58 0 -92.5 -31t-49.5 -100h-41l27 136q78 36 162 36q83 0 128.5 -39t45.5 -97q0 -82 -97 -155l-85 -63q-40 -30 -57.5 -58.5t-17.5 -71.5q0 -14 1 -23h-37q-5 27 -5 49zM162 84.5
q17 16.5 42 16.5q23 0 37 -14.5t14 -36.5q0 -25 -17.5 -41.5t-42.5 -16.5q-23 0 -36.5 14.5t-13.5 36.5q0 25 17 41.5z" />
    <glyph glyph-name="at" unicode="@" horiz-adv-x="828" 
d="M212 -51q-71 37 -111 107.5t-40 169.5q0 119 53.5 212t147 145t210.5 52q94 0 164 -37t107.5 -101.5t37.5 -145.5q0 -75 -27.5 -136t-73.5 -95.5t-98 -34.5q-32 0 -55.5 15t-30.5 42q-26 -29 -58.5 -44.5t-67.5 -15.5q-57 0 -94.5 41.5t-37.5 111.5q0 57 24.5 107
t68 80.5t96.5 30.5q37 0 65 -15t45 -39l10 49h60l-52 -268q-2 -12 -2 -17q0 -18 9.5 -27.5t26.5 -9.5q37 0 70.5 29.5t54.5 80.5t21 113q0 72 -31 127t-91 86t-144 31q-103 0 -185 -44.5t-129 -127t-47 -190.5q0 -86 33 -148.5t94 -95.5t142 -33q78 0 154 27l-9 -42
q-65 -27 -148 -27q-91 0 -162 37zM328.5 154q24.5 -30 62.5 -30q52 0 99 50l38 195q-31 41 -84 41q-41 0 -73 -23.5t-49.5 -63.5t-17.5 -86q0 -53 24.5 -83z" />
    <glyph glyph-name="A" unicode="A" horiz-adv-x="654" 
d="M380 707h65l135 -707h-73l-37 203h-323l-116 -203h-58zM461 250l-70 382l-218 -382h288z" />
    <glyph glyph-name="B" unicode="B" horiz-adv-x="633" 
d="M178 707h230q88 0 137.5 -44.5t49.5 -114.5q0 -62 -38 -111t-103 -70q50 -20 77.5 -59.5t27.5 -94.5q0 -64 -35 -112.5t-95 -74.5t-133 -26h-255zM305 47q77 0 127 44.5t50 121.5q0 60 -31.5 95.5t-88.5 35.5h-181l-58 -297h182zM367 389q66 0 110.5 42.5t44.5 110.5
q0 54 -32 86t-94 32h-153l-53 -271h177z" />
    <glyph glyph-name="C" unicode="C" horiz-adv-x="732" 
d="M207.5 29.5q-62.5 37.5 -98 106t-35.5 157.5q0 113 51 210t140.5 154.5t201.5 57.5q139 0 241 -81l-29 -146h-41q5 30 5 50q0 70 -45.5 103t-134.5 33q-87 0 -158 -52t-111.5 -139t-40.5 -187q0 -79 25 -138.5t71.5 -92t108.5 -32.5q90 0 159 49t99 146h44
q-33 -112 -114.5 -174t-195.5 -62q-80 0 -142.5 37.5z" />
    <glyph glyph-name="D" unicode="D" horiz-adv-x="708" 
d="M178 707h227q78 0 139 -34.5t95.5 -98t34.5 -148.5q0 -117 -53 -214.5t-144 -154.5t-202 -57h-234zM280 47q87 0 160 50t115.5 136.5t42.5 190.5q0 113 -54.5 174.5t-145.5 61.5h-155l-120 -613h157z" />
    <glyph glyph-name="E" unicode="E" horiz-adv-x="584" 
d="M178 707h420l-9 -47h-346l-54 -271h312l-10 -46h-310l-58 -296h358l-9 -47h-432z" />
    <glyph glyph-name="F" unicode="F" horiz-adv-x="546" 
d="M178 707h409l-9 -47h-335l-58 -291h300l-9 -46h-299l-63 -323h-74z" />
    <glyph glyph-name="G" unicode="G" horiz-adv-x="750" 
d="M210 30q-65 38 -100.5 106.5t-35.5 155.5q0 114 50 211t141 154.5t208 57.5q138 0 241 -81l-29 -146h-41q5 30 5 49q0 137 -180 137q-92 0 -164 -52t-112 -139.5t-40 -188.5q0 -77 25 -136t72 -92t112 -33q100 0 167.5 64.5t83.5 177.5h-197l8 47h268q-5 -97 -49 -172
t-118 -116.5t-166 -41.5q-84 0 -149 38z" />
    <glyph glyph-name="H" unicode="H" horiz-adv-x="730" 
d="M178 707h74l-63 -318h403l62 318h73l-138 -707h-73l67 343h-402l-67 -343h-74z" />
    <glyph glyph-name="I" unicode="I" horiz-adv-x="254" 
d="M178 707h74l-138 -707h-74z" />
    <glyph glyph-name="J" unicode="J" horiz-adv-x="442" 
d="M1 32l7 40q51 -32 109 -32q129 0 160 162l97 505h74l-97 -508q-21 -105 -81.5 -156t-145.5 -51q-74 0 -123 40z" />
    <glyph glyph-name="K" unicode="K" horiz-adv-x="621" 
d="M178 707h74l-73 -368l435 368h72l-366 -309q80 -78 139 -180.5t93 -217.5h-76q-55 198 -207 356l-103 -87l-52 -269h-74z" />
    <glyph glyph-name="L" unicode="L" horiz-adv-x="560" 
d="M178 707h74l-129 -660h344l-9 -47h-418z" />
    <glyph glyph-name="M" unicode="M" horiz-adv-x="890" 
d="M248 707h72l112 -531l311 531h71l-46 -707h-70l40 607l-305 -522h-50l-114 531l-195 -616h-51z" />
    <glyph glyph-name="N" unicode="N" horiz-adv-x="705" 
d="M178 707h59l299 -610l119 610h47l-138 -707h-58l-300 611l-119 -611h-47z" />
    <glyph glyph-name="O" unicode="O" horiz-adv-x="770" 
d="M207.5 30q-63.5 38 -98.5 106.5t-35 156.5q0 112 50.5 209.5t137.5 155t193 57.5q82 0 145 -38t98.5 -106.5t35.5 -156.5q0 -112 -50.5 -209.5t-138 -155t-193.5 -57.5q-81 0 -144.5 38zM178 159q25 -60 70.5 -93t105.5 -33q82 0 150.5 52.5t109 139.5t40.5 187
q0 77 -24.5 136.5t-70 92.5t-105.5 33q-82 0 -151 -52t-109.5 -139t-40.5 -187q0 -77 25 -137z" />
    <glyph glyph-name="P" unicode="P" horiz-adv-x="591" 
d="M178 707h214q61 0 109 -22t75.5 -63t27.5 -95q0 -69 -37.5 -123t-101 -84t-138.5 -30h-157l-56 -290h-74zM329 336q54 0 99.5 23.5t72.5 66t27 98.5q0 65 -39 101t-110 36h-136l-64 -325h150z" />
    <glyph glyph-name="Q" unicode="Q" horiz-adv-x="764" 
d="M323 -6q-73 6 -129.5 45.5t-88 105.5t-31.5 148q0 112 50.5 209.5t137.5 155t193 57.5q82 0 145 -38t98.5 -106.5t35.5 -156.5q0 -107 -46 -200.5t-126.5 -153t-179.5 -67.5q74 -96 192 -96q82 0 154 38l-9 -48q-64 -36 -146 -36q-159 0 -250 143zM178 159
q25 -60 70.5 -93t105.5 -33q82 0 150.5 52.5t109 139.5t40.5 187q0 77 -24.5 136.5t-70 92.5t-105.5 33q-82 0 -151 -52t-109.5 -139t-40.5 -187q0 -77 25 -137z" />
    <glyph glyph-name="R" unicode="R" horiz-adv-x="605" 
d="M178 707h214q99 0 156 -47t57 -126q0 -59 -31.5 -107t-85.5 -77t-120 -35q53 -65 92.5 -146t61.5 -169h-76q-21 86 -64 168.5t-96 144.5h-111l-61 -313h-73zM335 358q53 0 97.5 21.5t70.5 61t26 90.5q0 62 -39 96t-111 34h-136l-59 -303h151z" />
    <glyph glyph-name="S" unicode="S" horiz-adv-x="594" 
d="M40 65l28 140h41q-5 -30 -5 -50q0 -65 42 -93.5t126 -28.5q82 0 133 43t51 117q0 46 -27 74.5t-84 49.5l-82 30q-67 25 -103 64t-36 102q0 59 31 105t86.5 71.5t126.5 25.5q59 0 112 -15t93 -43l-25 -133h-42q5 28 5 47q0 55 -34.5 79t-109.5 24q-78 0 -127.5 -40
t-49.5 -105q0 -43 24.5 -69.5t75.5 -45.5l82 -31q75 -28 113 -67t38 -107q0 -66 -32.5 -115t-90 -75.5t-131.5 -26.5q-137 0 -229 73z" />
    <glyph glyph-name="T" unicode="T" horiz-adv-x="640" 
d="M361 660h-259l9 47h593l-9 -47h-261l-127 -660h-73z" />
    <glyph glyph-name="U" unicode="U" horiz-adv-x="700" 
d="M196.5 20.5q-53.5 28.5 -84 82t-30.5 126.5q0 37 7 72l79 406h73l-80 -415q-7 -36 -7 -71q0 -89 46.5 -137.5t122.5 -48.5q91 0 162 67t96 196l79 409h47l-79 -409q-29 -149 -111.5 -227.5t-198.5 -78.5q-68 0 -121.5 28.5z" />
    <glyph glyph-name="V" unicode="V" horiz-adv-x="634" 
d="M109 707h74l109 -633l354 633h54l-397 -707h-67z" />
    <glyph glyph-name="W" unicode="W" horiz-adv-x="955" 
d="M116 707h74l56 -617l293 617h71l55 -625l295 625h54l-338 -707h-70l-58 617l-293 -617h-69z" />
    <glyph glyph-name="X" unicode="X" horiz-adv-x="683" 
d="M321 364l-168 343h80l142 -300l263 300h64l-303 -339l183 -368h-80l-156 324l-281 -324h-65z" />
    <glyph glyph-name="Y" unicode="Y" horiz-adv-x="625" 
d="M281 268l-177 439h75l154 -393l303 393h60l-342 -438l-51 -269h-73z" />
    <glyph glyph-name="Z" unicode="Z" horiz-adv-x="599" 
d="M127 69l-59 -69h-68l6 33l523 629h-390l9 45h486l-8 -42l-466 -561q42 -34 90 -50t109 -16q91 0 161 38l-9 -48q-65 -36 -156 -36q-138 0 -228 77z" />
    <glyph glyph-name="bracketleft" unicode="[" horiz-adv-x="364" 
d="M189 758h249l-9 -45h-179l-164 -820h178l-9 -45h-248z" />
    <glyph glyph-name="backslash" unicode="\" horiz-adv-x="369" 
d="M120 758h54l93 -905h-54z" />
    <glyph glyph-name="bracketright" unicode="]" horiz-adv-x="364" 
d="M-47 -107h179l164 820h-178l9 45h248l-182 -910h-249z" />
    <glyph glyph-name="asciicircum" unicode="^" horiz-adv-x="590" 
d="M360 707h45l108 -350h-47l-90 299l-208 -299h-52z" />
    <glyph glyph-name="underscore" unicode="_" horiz-adv-x="500" 
d="M-68 -93h500l-8 -42h-500z" />
    <glyph glyph-name="grave" unicode="`" horiz-adv-x="302" 
d="M144 744h92l83 -140h-39z" />
    <glyph glyph-name="a" unicode="a" horiz-adv-x="506" 
d="M68 28.5q-42 36.5 -42 99.5q0 51 28.5 90t77 60.5t107.5 21.5q67 0 124 -31l12 65q4 19 4 38q0 50 -29.5 77t-86.5 27q-76 0 -148 -36l10 47q69 34 146 34q85 0 131.5 -41t46.5 -109q0 -22 -4 -42l-65 -329h-61l9 65q-31 -34 -71.5 -53.5t-85.5 -19.5q-61 0 -103 36.5z
M124.5 60.5q24.5 -24.5 64.5 -24.5q36 0 74 19t69 54l25 129q-50 22 -106 22q-69 0 -110 -36t-41 -94q0 -45 24.5 -69.5z" />
    <glyph glyph-name="b" unicode="b" horiz-adv-x="577" 
d="M175.5 13.5q-39.5 21.5 -64.5 55.5l-13 -69h-67l147 758h70l-60 -312q32 35 73.5 55t88.5 20q53 0 96 -26.5t67.5 -75.5t24.5 -113q0 -82 -35 -154.5t-97 -116t-138 -43.5q-53 0 -92.5 21.5zM249 40q62 0 111 36t76.5 96.5t27.5 129.5q0 79 -37 125t-97 46
q-39 0 -78.5 -20.5t-72.5 -56.5l-57 -293q46 -63 127 -63z" />
    <glyph glyph-name="c" unicode="c" horiz-adv-x="528" 
d="M144.5 20q-49.5 28 -77 78.5t-27.5 116.5q0 82 37 152t103.5 112t151.5 42q53 0 99 -16.5t82 -45.5l-22 -114h-38q4 26 4 37q0 51 -32 74.5t-95 23.5q-62 0 -111.5 -36t-77 -96.5t-27.5 -130.5q0 -85 40.5 -134.5t112.5 -49.5q59 0 105 34t66 101h40q-22 -82 -81.5 -129
t-140.5 -47q-62 0 -111.5 28z" />
    <glyph glyph-name="d" unicode="d" horiz-adv-x="577" 
d="M131 18.5q-43 26.5 -67.5 75.5t-24.5 113q0 82 35 154.5t97 116t138 43.5q52 0 91 -20t63 -53l60 310h71l-147 -758h-67l14 72q-32 -37 -75.5 -58.5t-91.5 -21.5q-53 0 -96 26.5zM150 86q37 -46 97 -46q39 0 78.5 20.5t72.5 56.5l57 293q-46 63 -126 63q-62 0 -111 -36
t-77 -96.5t-28 -129.5q0 -79 37 -125z" />
    <glyph glyph-name="e" unicode="e" horiz-adv-x="544" 
d="M144.5 19.5q-49.5 27.5 -77 78.5t-27.5 117q0 82 37 152t102 112t145 42q57 0 100 -24.5t66.5 -67t23.5 -95.5q0 -31 -10 -66h-385q-4 -23 -4 -52q0 -78 37.5 -130.5t115.5 -52.5q60 0 107.5 33t68.5 97h41q-23 -78 -84.5 -124.5t-143.5 -46.5q-63 0 -112.5 27.5z
M440 309q4 22 4 34q0 55 -32 96t-91 41q-67 0 -119.5 -47.5t-73.5 -123.5h312z" />
    <glyph glyph-name="f" unicode="f" horiz-adv-x="389" 
d="M169 471h-105l8 42h105l17 87q14 76 61.5 121t116.5 45q59 0 104 -32l-21 -106h-37q5 28 5 44q0 30 -13 43t-40 13q-82 0 -107 -133l-16 -82h170l-8 -42h-170l-91 -471h-71z" />
    <glyph glyph-name="g" unicode="g" horiz-adv-x="532" 
d="M30.5 -194.5q-53.5 35.5 -53.5 95.5q0 39 26 74.5t73 59.5q-19 22 -19 52q0 34 24 63.5t61 44.5q-32 20 -49 51t-17 70q0 56 31 103t83.5 74.5t114.5 27.5q58 0 102 -26q22 37 52.5 55.5t64.5 18.5q18 0 39 -8l-8 -35q-16 7 -33 7q-55 0 -87 -59q42 -42 42 -103
q0 -55 -31 -102t-84 -74.5t-115 -27.5q-36 0 -71 11q-28 -10 -44.5 -29t-16.5 -39q0 -34 48 -40l159 -19q61 -7 89.5 -35.5t28.5 -73.5q0 -50 -32 -89t-90.5 -61t-134.5 -22q-99 0 -152.5 35.5zM62 -165.5q42 -24.5 124 -24.5q60 0 105.5 15t70 40.5t24.5 57.5q0 53 -75 62
l-205 26q-40 -15 -63 -44.5t-23 -63.5q0 -44 42 -68.5zM175.5 236.5q29.5 -29.5 74.5 -29.5q41 0 77 22t57.5 60t21.5 82q0 51 -29 80.5t-75 29.5q-41 0 -77 -22t-57.5 -60t-21.5 -82q0 -51 29.5 -80.5z" />
    <glyph glyph-name="h" unicode="h" horiz-adv-x="569" 
d="M178 758h70l-67 -347q39 50 88.5 80t103.5 30q63 0 101 -39t38 -107q0 -27 -5 -50l-63 -325h-70l63 326q5 28 5 47q0 47 -22 72.5t-65 25.5q-92 0 -185 -115l-69 -356h-70z" />
    <glyph glyph-name="i" unicode="i" horiz-adv-x="232" 
d="M130 513h71l-99 -513h-71zM159.5 643.5q-12.5 12.5 -12.5 31.5q0 25 17 42t42 17q19 0 31.5 -12t12.5 -31q0 -25 -17 -42.5t-42 -17.5q-19 0 -31.5 12.5z" />
    <glyph glyph-name="j" unicode="j" horiz-adv-x="227" 
d="M-138 -208l7 36q24 -12 51 -12q35 0 57.5 22t31.5 72l117 603h71l-118 -608q-14 -67 -54 -101t-92 -34q-41 0 -71 22zM154.5 643.5q-12.5 12.5 -12.5 31.5q0 25 17 42t42 17q19 0 31.5 -12t12.5 -31q0 -25 -17 -42.5t-42 -17.5q-19 0 -31.5 12.5z" />
    <glyph glyph-name="k" unicode="k" horiz-adv-x="515" 
d="M178 758h70l-98 -505l322 260h65l-266 -215q110 -117 174 -298h-74q-52 148 -151 259l-81 -65l-38 -194h-70z" />
    <glyph glyph-name="l" unicode="l" horiz-adv-x="231" 
d="M178 758h70l-147 -758h-70z" />
    <glyph glyph-name="m" unicode="m" horiz-adv-x="885" 
d="M130 513h67l-20 -107q38 52 87.5 83.5t101.5 31.5q54 0 90 -33t42 -90q38 55 89.5 89t106.5 34q60 0 97 -38.5t37 -105.5q0 -28 -5 -51l-63 -326h-71l64 327q5 28 5 48q0 46 -21 71t-61 25q-43 0 -88 -29.5t-88 -85.5l-69 -356h-71l63 327q5 30 5 49q0 45 -20.5 70
t-59.5 25q-43 0 -88 -29.5t-89 -85.5l-70 -356h-70z" />
    <glyph glyph-name="n" unicode="n" horiz-adv-x="569" 
d="M130 513h67l-20 -107q38 52 89 83.5t107 31.5q63 0 101 -39t38 -107q0 -27 -5 -50l-63 -325h-70l63 326q5 28 5 47q0 47 -22 72.5t-65 25.5q-92 0 -185 -115l-69 -356h-70z" />
    <glyph glyph-name="o" unicode="o" horiz-adv-x="575" 
d="M142 20q-48 28 -75 78.5t-27 116.5q0 82 37 152t102 112t144 42q62 0 110 -28t75 -78.5t27 -116.5q0 -82 -37 -152t-102 -112t-144 -42q-62 0 -110 28zM151.5 83q37.5 -50 101.5 -50q58 0 105 36t74.5 96.5t27.5 130.5q0 84 -37.5 134t-101.5 50q-57 0 -104.5 -36
t-75 -96.5t-27.5 -130.5q0 -84 37.5 -134z" />
    <glyph glyph-name="p" unicode="p" horiz-adv-x="577" 
d="M130 513h67l-14 -72q33 37 76 58.5t91 21.5q53 0 96 -26.5t67.5 -75.5t24.5 -113q0 -82 -35 -154.5t-97 -116t-138 -43.5q-52 0 -90.5 20t-63.5 53l-56 -287h-70zM249 40q62 0 111 36t76.5 96.5t27.5 129.5q0 79 -37 125t-97 46q-39 0 -78.5 -20.5t-72.5 -56.5l-57 -293
q46 -63 127 -63z" />
    <glyph glyph-name="q" unicode="q" horiz-adv-x="577" 
d="M315.5 12q-41.5 -20 -88.5 -20q-53 0 -96 26.5t-67.5 75.5t-24.5 113q0 82 35 154.5t97 116t138 43.5q54 0 93 -21t64 -56l14 69h67l-143 -735h-71l56 289q-32 -35 -73.5 -55zM150 86q37 -46 97 -46q39 0 78.5 20.5t72.5 56.5l57 293q-46 63 -126 63q-62 0 -111 -36
t-77 -96.5t-28 -129.5q0 -79 37 -125z" />
    <glyph glyph-name="r" unicode="r" horiz-adv-x="374" 
d="M130 513h67l-23 -118q92 126 189 126q28 0 51 -10l-13 -64q-20 7 -47 7q-53 0 -97.5 -27t-88.5 -81l-67 -346h-71z" />
    <glyph glyph-name="s" unicode="s" horiz-adv-x="447" 
d="M101.5 6.5q-44.5 14.5 -79.5 44.5l19 99h39q-3 -18 -3 -32q0 -88 119 -88q55 0 91 29.5t36 76.5q0 31 -18.5 50.5t-56.5 31.5l-66 21q-102 33 -102 125q0 46 23.5 81.5t65 55.5t95.5 20q87 0 154 -48l-19 -95h-38q3 17 3 30q0 40 -26 57.5t-77 17.5q-54 0 -88 -28
t-34 -72q0 -29 16 -47t49 -29l67 -22q54 -18 82 -48t28 -82q0 -74 -52.5 -118.5t-134.5 -44.5q-48 0 -92.5 14.5z" />
    <glyph glyph-name="t" unicode="t" horiz-adv-x="393" 
d="M136 23.5q-34 31.5 -34 89.5q0 23 4 43l61 315h-103l8 42h103l25 125h70l-24 -125h167l-8 -42h-167l-63 -325q-3 -18 -3 -34q0 -72 73 -72q43 0 87 19l-8 -43q-48 -24 -97 -24q-57 0 -91 31.5z" />
    <glyph glyph-name="u" unicode="u" horiz-adv-x="557" 
d="M111 35q-48 43 -48 125q0 28 6 61l56 292h71l-61 -311q-5 -24 -5 -52q0 -57 30 -87t83 -30q61 0 100.5 38t53.5 112l64 330h71l-62 -317q-19 -101 -78 -152.5t-153 -51.5q-80 0 -128 43z" />
    <glyph glyph-name="v" unicode="v" horiz-adv-x="487" 
d="M67 513h72l79 -449l251 449h51l-290 -513h-66z" />
    <glyph glyph-name="w" unicode="w" horiz-adv-x="721" 
d="M73 513h72l37 -434l207 434h67l38 -439l207 439h48l-245 -513h-67l-39 435l-206 -435h-68z" />
    <glyph glyph-name="x" unicode="x" horiz-adv-x="516" 
d="M225 262l-127 251h79l102 -208l184 208h59l-221 -245l130 -268h-80l-104 225l-203 -225h-59z" />
    <glyph glyph-name="y" unicode="y" horiz-adv-x="487" 
d="M179 8l-112 505h72l91 -419l239 419h51l-426 -735h-51z" />
    <glyph glyph-name="z" unicode="z" horiz-adv-x="468" 
d="M175.5 6.5q-44.5 14.5 -80.5 41.5l-41 -48h-62l5 28l375 443h-280l8 42h370l-6 -34l-338 -399q63 -46 144 -46q67 0 122 29l-8 -44q-48 -27 -117 -27q-47 0 -91.5 14.5z" />
    <glyph glyph-name="braceleft" unicode="{" horiz-adv-x="427" 
d="M146.5 -118q-39.5 40 -39.5 113q0 29 6 62l28 148q2 8 2 22q0 29 -21 41.5t-66 12.5l9 45q54 0 80 16t34 60l34 172q18 92 74.5 141.5t142.5 49.5q41 0 69 -12l-8 -39q-23 8 -55 8q-122 0 -154 -163l-29 -152q-8 -44 -33 -71t-72 -36q63 -25 63 -92q0 -15 -3 -33
l-25 -127q-7 -32 -7 -61q0 -102 93 -102q35 0 60 5l-8 -41q-31 -7 -62 -7q-73 0 -112.5 40z" />
    <glyph glyph-name="bar" unicode="|" horiz-adv-x="270" 
d="M200 758h70l-176 -878h-70z" />
    <glyph glyph-name="braceright" unicode="}" horiz-adv-x="427" 
d="M-54 -146l8 39q23 -8 55 -8q122 0 154 163l29 152q8 44 33 71t72 36q-63 25 -63 92q0 15 3 33l25 127q7 32 7 61q0 102 -93 102q-35 0 -60 -5l8 41q31 7 62 7q73 0 112.5 -40t39.5 -113q0 -29 -6 -62l-28 -148q-2 -8 -2 -22q0 -29 21 -41.5t66 -12.5l-9 -45
q-54 0 -80 -16t-34 -60l-34 -172q-18 -92 -74.5 -141.5t-142.5 -49.5q-41 0 -69 12z" />
    <glyph glyph-name="asciitilde" unicode="~" horiz-adv-x="590" 
d="M355.5 267.5q-27.5 12.5 -61.5 34.5q-30 19 -51.5 28.5t-44.5 9.5q-33 0 -53 -19t-23 -58h-41q3 57 36.5 88.5t83.5 31.5q32 0 57.5 -11.5t60.5 -34.5q31 -20 52.5 -29.5t44.5 -9.5q32 0 52.5 19.5t23.5 57.5h41q-4 -57 -37 -88.5t-83 -31.5q-30 0 -57.5 12.5z" />
    <glyph glyph-name="uni00A0" unicode="&#xa0;" horiz-adv-x="230" 
 />
    <glyph glyph-name="exclamdown" unicode="&#xa1;" horiz-adv-x="290" 
d="M138 305h42l-79 -499h-84zM148.5 504q17.5 17 41.5 17q23 0 37 -14.5t14 -36.5q0 -25 -17.5 -41.5t-42.5 -16.5q-22 0 -36 14.5t-14 36.5q0 24 17.5 41z" />
    <glyph glyph-name="cent" unicode="&#xa2;" horiz-adv-x="590" 
d="M120.5 168q-45.5 59 -45.5 144q0 77 34 145t95 111t139 49l24 121h43l-23 -120q91 -6 161 -61l-22 -115h-38q4 28 4 37q0 48 -28.5 71.5t-85.5 25.5l-86 -445q64 -2 112 32t69 102h40q-22 -82 -82.5 -129.5t-146.5 -46.5l-23 -120h-43l24 125q-76 15 -121.5 74z
M175.5 200.5q26.5 -45.5 75.5 -61.5l84 435q-54 -8 -96.5 -45.5t-66 -94t-23.5 -120.5q0 -68 26.5 -113.5z" />
    <glyph glyph-name="sterling" unicode="&#xa3;" horiz-adv-x="590" 
d="M116 106q31 29 47 70t16 102l-1 47h-89l8 43h78q-5 48 -5 88q0 130 66 194.5t173 64.5q105 0 180 -53l-30 -151h-41q6 33 6 58q0 55 -28.5 80t-85.5 25q-85 0 -126.5 -53t-41.5 -162q0 -33 5 -91h203l-8 -43h-193q2 -34 2 -49q0 -80 -29.5 -129.5t-93.5 -79.5h359
l-13 -67h-450l10 50q51 27 82 56z" />
    <glyph glyph-name="currency" unicode="&#xa4;" horiz-adv-x="590" 
d="M60 158l86 74q-26 40 -26 95q0 44 16 83t44 70l-60 76l36 28l58 -75q56 42 130 42q69 0 117 -42l87 75l29 -34l-87 -75q24 -40 24 -94q0 -47 -17.5 -88.5t-48.5 -71.5l55 -68l-35 -29l-55 69q-57 -36 -122 -36q-69 0 -116 41l-85 -74zM217 233q28 -36 79 -36
q41 0 75 22.5t54.5 63.5t20.5 94q0 62 -28.5 98t-79.5 36q-41 0 -75 -22.5t-54 -63.5t-20 -94q0 -62 28 -98z" />
    <glyph glyph-name="yen" unicode="&#xa5;" horiz-adv-x="590" 
d="M232 123h-161l8 42h161l18 91h-160l8 42h148l-131 409h75l116 -384l267 384h60l-292 -409h148l-8 -42h-158l-18 -91h157l-8 -42h-157l-25 -123h-73z" />
    <glyph glyph-name="brokenbar" unicode="&#xa6;" horiz-adv-x="270" 
d="M200 758h70l-70 -347h-70zM93 227h70l-69 -347h-70z" />
    <glyph glyph-name="section" unicode="&#xa7;" horiz-adv-x="517" 
d="M86.5 -135.5q-43.5 14.5 -77.5 41.5l22 109h40q-4 -19 -4 -37q0 -88 112 -88q65 0 107 34.5t42 90.5q0 36 -20.5 59.5t-58.5 37.5l-71 25q-52 17 -79 51t-27 82q0 54 32 95.5t87 63.5q-46 40 -46 112q0 52 26 91.5t72 61t104 21.5q41 0 79.5 -10.5t69.5 -30.5l-22 -105
h-38q3 18 3 32q0 74 -95 74q-62 0 -101.5 -33t-39.5 -85q0 -68 71 -95l71 -25q56 -19 85.5 -50t29.5 -85q0 -56 -31 -97t-87 -64q45 -37 45 -107q0 -57 -28 -99t-76 -63.5t-107 -21.5q-46 0 -89.5 14.5zM150 232.5q20 -20.5 57 -33.5l100 -36q44 18 69.5 50t25.5 71
q0 35 -21 55.5t-61 34.5l-96 34q-44 -18 -69 -50t-25 -72q0 -33 20 -53.5z" />
    <glyph glyph-name="dieresis" unicode="&#xa8;" horiz-adv-x="386" 
d="M333.5 646q-11.5 12 -11.5 30q0 24 16 40t40 16q18 0 29.5 -12t11.5 -29q0 -24 -16 -40.5t-40 -16.5q-18 0 -29.5 12zM149 716q16 16 40 16q18 0 29.5 -12t11.5 -29q0 -24 -16 -40.5t-40 -16.5q-18 0 -29.5 12t-11.5 30q0 24 16 40z" />
    <glyph glyph-name="copyright" unicode="&#xa9;" horiz-adv-x="853" 
d="M259.5 38.5q-82.5 46.5 -128.5 129t-46 186.5q0 101 47.5 183.5t130 130t183.5 47.5q104 0 186 -46.5t128.5 -128.5t46.5 -186q0 -100 -48 -183t-130.5 -131t-182.5 -48q-104 0 -186.5 46.5zM171.5 189q40.5 -73 112.5 -114t162 -41q89 0 160.5 42t112.5 115t41 163
q0 91 -40 164t-111.5 114t-162.5 41q-88 0 -160 -41.5t-113.5 -114.5t-41.5 -163q0 -92 40.5 -165zM284.5 454.5q24.5 45.5 69.5 71.5t104 26q78 0 140 -41v-95h-34q0 99 -103 99q-60 0 -97 -44t-37 -117t36.5 -118t95.5 -45q46 0 77 25.5t40 73.5h36q-10 -60 -52.5 -97.5
t-108.5 -37.5q-54 0 -98 25.5t-68.5 71t-24.5 102.5q0 55 24.5 100.5z" />
    <glyph glyph-name="ordfeminine" unicode="&#xaa;" horiz-adv-x="363" 
d="M98.5 365q-29.5 26 -29.5 70q0 53 42.5 87t106.5 34q44 0 85 -19l7 40q3 14 3 26q0 33 -19.5 50.5t-58.5 17.5q-54 0 -105 -26l8 40q51 26 108 26q63 0 97.5 -30t34.5 -81q0 -11 -4 -33l-43 -222h-60l6 44q-19 -23 -47 -36.5t-59 -13.5q-43 0 -72.5 26zM152.5 395.5
q15.5 -15.5 41.5 -15.5q22 0 45 12t42 33l16 85q-31 14 -66 14q-44 0 -69 -23.5t-25 -61.5q0 -28 15.5 -43.5z" />
    <glyph glyph-name="guillemotleft" unicode="&#xab;" horiz-adv-x="473" 
d="M43 260l179 188h59l-161 -195l76 -181h-50zM231 260l179 188h59l-161 -195l76 -181h-50z" />
    <glyph glyph-name="logicalnot" unicode="&#xac;" horiz-adv-x="590" 
d="M485 375h-387l8 41h430l-42 -214h-43z" />
    <glyph glyph-name="uni00AD" unicode="&#xad;" 
 />
    <glyph glyph-name="registered" unicode="&#xae;" horiz-adv-x="520" 
d="M197.5 315.5q-48.5 27.5 -75.5 76t-27 110.5q0 59 28 108t77 77t108 28q62 0 110.5 -27t75.5 -75.5t27 -110.5q0 -59 -28.5 -108t-77 -77.5t-107.5 -28.5q-62 0 -110.5 27.5zM152 408.5q23 -41.5 64 -64.5t92 -23q50 0 91 23.5t64 65t23 92.5q0 52 -23 93t-63.5 64
t-91.5 23q-50 0 -91 -24t-64.5 -65t-23.5 -91q0 -52 23 -93.5zM230 616h86q39 0 62 -17.5t23 -46.5q0 -24 -16 -41t-43 -23l69 -93h-54l-63 90h-19v-90h-45v221zM309 511q20 0 32 10.5t12 29.5q0 17 -13 28t-33 11h-32v-79h34z" />
    <glyph glyph-name="macron" unicode="&#xaf;" horiz-adv-x="387" 
d="M137 703h286l-10 -50h-286z" />
    <glyph glyph-name="degree" unicode="&#xb0;" horiz-adv-x="414" 
d="M183.5 414q-36.5 20 -57.5 56.5t-21 82.5q0 47 21.5 84t59 57.5t81.5 20.5q43 0 79 -20t57 -56.5t21 -83.5t-21.5 -83.5t-58 -57t-80.5 -20.5t-80.5 20zM195.5 464.5q26.5 -33.5 68.5 -33.5t69.5 34t27.5 90t-26.5 90t-68.5 34q-43 0 -70 -34.5t-27 -90.5t26.5 -89.5z
" />
    <glyph glyph-name="plusminus" unicode="&#xb1;" horiz-adv-x="590" 
d="M296 370h-194l8 41h194l33 170h43l-34 -170h194l-8 -41h-194l-33 -170h-43zM54 125h430l-8 -41h-430z" />
    <glyph glyph-name="uni00B2" unicode="&#xb2;" horiz-adv-x="381" 
d="M288 591.5q54 56.5 54 107.5q0 30 -17 47t-47 17q-71 0 -88 -78h-30l16 88q53 24 106 24q56 0 90 -26t34 -73q0 -55 -57 -111t-179 -124h201l-11 -53h-262l9 44q127 81 181 137.5z" />
    <glyph glyph-name="uni00B3" unicode="&#xb3;" horiz-adv-x="392" 
d="M140 437q-34 32 -33 86h33q-1 -37 22 -60.5t65 -23.5q41 0 67 24t26 61q0 30 -17.5 48.5t-49.5 18.5h-29l7 34h31q38 0 63 20.5t25 53.5q0 29 -19 46.5t-52 17.5q-74 0 -90 -79h-31l17 91q28 11 53 16.5t54 5.5q57 0 93.5 -26.5t36.5 -67.5q0 -36 -27.5 -62.5
t-70.5 -33.5q33 -10 51.5 -33t18.5 -54q0 -51 -44 -83t-106 -32q-60 0 -94 32z" />
    <glyph glyph-name="acute" unicode="&#xb4;" horiz-adv-x="311" 
d="M258 744h98l-192 -140h-47z" />
    <glyph glyph-name="uni00B5" unicode="&#xb5;" horiz-adv-x="569" 
d="M131 513h71l-65 -331q-4 -21 -4 -44q0 -46 21.5 -71t62.5 -25q44 0 90 29.5t91 84.5l69 357h71l-100 -513h-67l21 107q-38 -52 -88.5 -83.5t-105.5 -31.5q-57 0 -91 36l-49 -250h-71z" />
    <glyph glyph-name="paragraph" unicode="&#xb6;" horiz-adv-x="623" 
d="M159 297q-49 56 -49 141q0 77 39.5 138.5t108 96t153.5 34.5h200l-167 -832h-71l157 786h-102l-158 -786h-52l70 354q-80 12 -129 68z" />
    <glyph glyph-name="periodcentered" unicode="&#xb7;" horiz-adv-x="282" 
d="M119 312.5q-14 14.5 -14 36.5q0 25 17.5 41.5t42.5 16.5q22 0 36 -14.5t14 -36.5q0 -24 -17.5 -41t-41.5 -17q-23 0 -37 14.5z" />
    <glyph glyph-name="cedilla" unicode="&#xb8;" horiz-adv-x="292" 
d="M-34 -177l6 35q37 -19 74 -19q29 0 45.5 11.5t16.5 32.5q0 18 -13 28t-37 10h-14l26 79h31l-17 -49q35 -1 59.5 -19.5t24.5 -49.5q0 -36 -33 -61t-81 -25t-88 27z" />
    <glyph glyph-name="uni00B9" unicode="&#xb9;" horiz-adv-x="289" 
d="M225 722l-97 -29l7 36l116 63h47l-75 -382h-60z" />
    <glyph glyph-name="ordmasculine" unicode="&#xba;" horiz-adv-x="409" 
d="M121.5 382q-43.5 43 -43.5 114q0 58 26.5 107t73.5 78.5t104 29.5q67 0 110.5 -43t43.5 -114q0 -58 -26.5 -107t-73.5 -78.5t-104 -29.5q-67 0 -110.5 43zM170 409q23 -33 64 -33q36 0 66.5 24t48 65t17.5 89q0 55 -22.5 87.5t-63.5 32.5q-37 0 -67.5 -24t-48 -65
t-17.5 -89q0 -54 23 -87z" />
    <glyph glyph-name="guillemotright" unicode="&#xbb;" horiz-adv-x="473" 
d="M167 267l-75 181h49l103 -188l-178 -188h-60zM355 267l-75 181h49l103 -188l-178 -188h-60z" />
    <glyph glyph-name="onequarter" unicode="&#xbc;" horiz-adv-x="788" 
d="M208 637l-97 -29l7 36l116 63h47l-75 -382h-60zM686 707h70l-656 -707h-70zM612 89h-188l6 28l195 265h78l-233 -259h148l21 107h59l-21 -107h52l-7 -34h-51l-18 -89h-59z" />
    <glyph glyph-name="onehalf" unicode="&#xbd;" horiz-adv-x="853" 
d="M208 637l-97 -29l7 36l116 63h47l-75 -382h-60zM686 707h70l-656 -707h-70zM680 181.5q54 56.5 54 107.5q0 30 -17 47t-47 17q-71 0 -88 -78h-30l16 88q53 24 106 24q56 0 90 -26t34 -73q0 -55 -57 -111t-179 -124h201l-11 -53h-262l9 44q127 81 181 137.5z" />
    <glyph glyph-name="threequarters" unicode="&#xbe;" horiz-adv-x="888" 
d="M123 352q-34 32 -33 86h33q-1 -37 22 -60.5t65 -23.5q41 0 67 24t26 61q0 30 -17.5 48.5t-49.5 18.5h-29l7 34h31q38 0 63 20.5t25 53.5q0 29 -19 46.5t-52 17.5q-74 0 -90 -79h-31l17 91q28 11 53 16.5t54 5.5q57 0 93.5 -26.5t36.5 -67.5q0 -36 -27.5 -62.5
t-70.5 -33.5q33 -10 51.5 -33t18.5 -54q0 -51 -44 -83t-106 -32q-60 0 -94 32zM786 707h70l-656 -707h-70zM712 89h-188l6 28l195 265h78l-233 -259h148l21 107h59l-21 -107h52l-7 -34h-51l-18 -89h-59z" />
    <glyph glyph-name="questiondown" unicode="&#xbf;" horiz-adv-x="487" 
d="M42.5 -163q-45.5 39 -45.5 97q0 82 97 155l85 63q40 30 57.5 58.5t17.5 71.5q0 14 -1 23h37q5 -27 5 -49q0 -48 -19 -80t-62 -68l-85 -71q-30 -24 -46.5 -49t-16.5 -56q0 -39 27 -66t84 -27q58 0 92.5 31t49.5 100h41l-27 -136q-78 -36 -162 -36q-83 0 -128.5 39z
M249.5 504.5q17.5 16.5 42.5 16.5q23 0 36.5 -14.5t13.5 -36.5q0 -25 -17 -41.5t-42 -16.5q-23 0 -37 14.5t-14 36.5q0 25 17.5 41.5z" />
    <glyph glyph-name="Agrave" unicode="&#xc0;" horiz-adv-x="654" 
d="M380 707h65l135 -707h-73l-37 203h-323l-116 -203h-58zM461 250l-70 382l-218 -382h288zM290 884h95l102 -120h-43z" />
    <glyph glyph-name="Aacute" unicode="&#xc1;" horiz-adv-x="654" 
d="M380 707h65l135 -707h-73l-37 203h-323l-116 -203h-58zM461 250l-70 382l-218 -382h288zM505 884h101l-200 -120h-49z" />
    <glyph glyph-name="Acircumflex" unicode="&#xc2;" horiz-adv-x="654" 
d="M380 707h65l135 -707h-73l-37 203h-323l-116 -203h-58zM461 250l-70 382l-218 -382h288zM413 884h67l96 -120h-44l-90 72l-125 -72h-47z" />
    <glyph glyph-name="Atilde" unicode="&#xc3;" horiz-adv-x="654" 
d="M380 707h65l135 -707h-73l-37 203h-323l-116 -203h-58zM461 250l-70 382l-218 -382h288zM434 787l-23 16q-25 18 -45 18q-21 0 -34.5 -13.5t-15.5 -39.5h-36q2 46 28 75t64 29q30 0 64 -23l22 -16q25 -18 45 -18q21 0 34.5 13.5t15.5 39.5h36q-1 -46 -27 -75t-65 -29
q-31 0 -63 23z" />
    <glyph glyph-name="Adieresis" unicode="&#xc4;" horiz-adv-x="654" 
d="M380 707h65l135 -707h-73l-37 203h-323l-116 -203h-58zM461 250l-70 382l-218 -382h288zM497 781q-12 12 -12 30q0 24 16 40t40 16q18 0 30 -11.5t12 -29.5q0 -23 -16.5 -40t-39.5 -17q-18 0 -30 12zM302 851q16 16 40 16q18 0 30 -11.5t12 -29.5q0 -23 -16.5 -40
t-39.5 -17q-18 0 -30 12t-12 30q0 24 16 40z" />
    <glyph glyph-name="Aring" unicode="&#xc5;" horiz-adv-x="654" 
d="M368 686q-28 11 -43.5 35.5t-15.5 56.5q0 34 18 62.5t48 45t64 16.5q46 0 75.5 -28.5t29.5 -72.5q0 -42 -26.5 -74.5t-67.5 -44.5l130 -682h-73l-37 203h-323l-116 -203h-58zM461 250l-70 382l-218 -382h288zM382 727q12 -16 32 -16q30 0 49.5 28t19.5 68q0 28 -12 44
t-33 16q-29 0 -48.5 -28t-19.5 -68q0 -28 12 -44z" />
    <glyph glyph-name="AE" unicode="&#xc6;" horiz-adv-x="998" 
d="M590 707h423l-9 -47h-347l-53 -271h312l-10 -46h-310l-59 -296h358l-9 -47h-431l39 203h-286l-180 -203h-65zM504 250l72 369l-327 -369h255z" />
    <glyph glyph-name="Ccedilla" unicode="&#xc7;" horiz-adv-x="732" 
d="M341 -8l-14 -41q35 -1 59.5 -19.5t24.5 -49.5q0 -36 -33 -61t-81 -25t-88 27l6 35q37 -19 74 -19q29 0 45.5 11.5t16.5 32.5q0 18 -13 28t-37 10h-14l24 73q-69 9 -123 48.5t-84 104t-30 146.5q0 113 51 210t140.5 154.5t201.5 57.5q139 0 241 -81l-29 -146h-41
q5 30 5 50q0 70 -45.5 103t-134.5 33q-87 0 -158 -52t-111.5 -139t-40.5 -187q0 -79 25 -138.5t71.5 -92t108.5 -32.5q90 0 159 49t99 146h44q-33 -112 -114.5 -174t-195.5 -62h-9z" />
    <glyph glyph-name="Egrave" unicode="&#xc8;" horiz-adv-x="584" 
d="M178 707h420l-9 -47h-346l-54 -271h312l-10 -46h-310l-58 -296h358l-9 -47h-432zM267 884h95l102 -120h-43z" />
    <glyph glyph-name="Eacute" unicode="&#xc9;" horiz-adv-x="584" 
d="M178 707h420l-9 -47h-346l-54 -271h312l-10 -46h-310l-58 -296h358l-9 -47h-432zM482 884h101l-200 -120h-49z" />
    <glyph glyph-name="Ecircumflex" unicode="&#xca;" horiz-adv-x="584" 
d="M178 707h420l-9 -47h-346l-54 -271h312l-10 -46h-310l-58 -296h358l-9 -47h-432zM390 884h67l96 -120h-44l-90 72l-125 -72h-47z" />
    <glyph glyph-name="Edieresis" unicode="&#xcb;" horiz-adv-x="584" 
d="M178 707h420l-9 -47h-346l-54 -271h312l-10 -46h-310l-58 -296h358l-9 -47h-432zM474 781q-12 12 -12 30q0 24 16 40t40 16q18 0 30 -11.5t12 -29.5q0 -23 -16.5 -40t-39.5 -17q-18 0 -30 12zM279 851q16 16 40 16q18 0 30 -11.5t12 -29.5q0 -23 -16.5 -40t-39.5 -17
q-18 0 -30 12t-12 30q0 24 16 40z" />
    <glyph glyph-name="Igrave" unicode="&#xcc;" horiz-adv-x="254" 
d="M178 707h74l-138 -707h-74zM91 884h95l102 -120h-43z" />
    <glyph glyph-name="Iacute" unicode="&#xcd;" horiz-adv-x="254" 
d="M178 707h74l-138 -707h-74zM305 884h101l-200 -120h-49z" />
    <glyph glyph-name="Icircumflex" unicode="&#xce;" horiz-adv-x="254" 
d="M178 707h74l-138 -707h-74zM214 884h67l96 -120h-44l-90 72l-125 -72h-47z" />
    <glyph glyph-name="Idieresis" unicode="&#xcf;" horiz-adv-x="254" 
d="M178 707h74l-138 -707h-74zM298 781q-12 12 -12 30q0 24 16 40t40 16q18 0 30 -11.5t12 -29.5q0 -23 -16.5 -40t-39.5 -17q-18 0 -30 12zM103 851q16 16 40 16q18 0 30 -11.5t12 -29.5q0 -23 -16.5 -40t-39.5 -17q-18 0 -30 12t-12 30q0 24 16 40z" />
    <glyph glyph-name="Eth" unicode="&#xd0;" horiz-adv-x="714" 
d="M112 338h-105l8 39h105l64 330h227q78 0 139 -34.5t95.5 -98t34.5 -148.5q0 -117 -53 -214.5t-144 -154.5t-202 -57h-234zM286 47q87 0 160 50t115.5 136.5t42.5 190.5q0 113 -54.5 174.5t-145.5 61.5h-155l-55 -283h176l-8 -39h-176l-57 -291h157z" />
    <glyph glyph-name="Ntilde" unicode="&#xd1;" horiz-adv-x="705" 
d="M178 707h59l299 -610l119 610h47l-138 -707h-58l-300 611l-119 -611h-47zM460 787l-23 16q-25 18 -45 18q-21 0 -34.5 -13.5t-15.5 -39.5h-36q2 46 28 75t64 29q30 0 64 -23l22 -16q25 -18 45 -18q21 0 34.5 13.5t15.5 39.5h36q-1 -46 -27 -75t-65 -29q-31 0 -63 23z" />
    <glyph glyph-name="Ograve" unicode="&#xd2;" horiz-adv-x="770" 
d="M207.5 30q-63.5 38 -98.5 106.5t-35 156.5q0 112 50.5 209.5t137.5 155t193 57.5q82 0 145 -38t98.5 -106.5t35.5 -156.5q0 -112 -50.5 -209.5t-138 -155t-193.5 -57.5q-81 0 -144.5 38zM178 159q25 -60 70.5 -93t105.5 -33q82 0 150.5 52.5t109 139.5t40.5 187
q0 77 -24.5 136.5t-70 92.5t-105.5 33q-82 0 -151 -52t-109.5 -139t-40.5 -187q0 -77 25 -137zM350 884h95l102 -120h-43z" />
    <glyph glyph-name="Oacute" unicode="&#xd3;" horiz-adv-x="770" 
d="M207.5 30q-63.5 38 -98.5 106.5t-35 156.5q0 112 50.5 209.5t137.5 155t193 57.5q82 0 145 -38t98.5 -106.5t35.5 -156.5q0 -112 -50.5 -209.5t-138 -155t-193.5 -57.5q-81 0 -144.5 38zM178 159q25 -60 70.5 -93t105.5 -33q82 0 150.5 52.5t109 139.5t40.5 187
q0 77 -24.5 136.5t-70 92.5t-105.5 33q-82 0 -151 -52t-109.5 -139t-40.5 -187q0 -77 25 -137zM564 884h101l-200 -120h-49z" />
    <glyph glyph-name="Ocircumflex" unicode="&#xd4;" horiz-adv-x="770" 
d="M207.5 30q-63.5 38 -98.5 106.5t-35 156.5q0 112 50.5 209.5t137.5 155t193 57.5q82 0 145 -38t98.5 -106.5t35.5 -156.5q0 -112 -50.5 -209.5t-138 -155t-193.5 -57.5q-81 0 -144.5 38zM178 159q25 -60 70.5 -93t105.5 -33q82 0 150.5 52.5t109 139.5t40.5 187
q0 77 -24.5 136.5t-70 92.5t-105.5 33q-82 0 -151 -52t-109.5 -139t-40.5 -187q0 -77 25 -137zM473 884h67l96 -120h-44l-90 72l-125 -72h-47z" />
    <glyph glyph-name="Otilde" unicode="&#xd5;" horiz-adv-x="770" 
d="M207.5 30q-63.5 38 -98.5 106.5t-35 156.5q0 112 50.5 209.5t137.5 155t193 57.5q82 0 145 -38t98.5 -106.5t35.5 -156.5q0 -112 -50.5 -209.5t-138 -155t-193.5 -57.5q-81 0 -144.5 38zM178 159q25 -60 70.5 -93t105.5 -33q82 0 150.5 52.5t109 139.5t40.5 187
q0 77 -24.5 136.5t-70 92.5t-105.5 33q-82 0 -151 -52t-109.5 -139t-40.5 -187q0 -77 25 -137zM493 787l-23 16q-25 18 -45 18q-21 0 -34.5 -13.5t-15.5 -39.5h-36q2 46 28 75t64 29q30 0 64 -23l22 -16q25 -18 45 -18q21 0 34.5 13.5t15.5 39.5h36q-1 -46 -27 -75t-65 -29
q-31 0 -63 23z" />
    <glyph glyph-name="Odieresis" unicode="&#xd6;" horiz-adv-x="770" 
d="M207.5 30q-63.5 38 -98.5 106.5t-35 156.5q0 112 50.5 209.5t137.5 155t193 57.5q82 0 145 -38t98.5 -106.5t35.5 -156.5q0 -112 -50.5 -209.5t-138 -155t-193.5 -57.5q-81 0 -144.5 38zM178 159q25 -60 70.5 -93t105.5 -33q82 0 150.5 52.5t109 139.5t40.5 187
q0 77 -24.5 136.5t-70 92.5t-105.5 33q-82 0 -151 -52t-109.5 -139t-40.5 -187q0 -77 25 -137zM557 781q-12 12 -12 30q0 24 16 40t40 16q18 0 30 -11.5t12 -29.5q0 -23 -16.5 -40t-39.5 -17q-18 0 -30 12zM362 851q16 16 40 16q18 0 30 -11.5t12 -29.5q0 -23 -16.5 -40
t-39.5 -17q-18 0 -30 12t-12 30q0 24 16 40z" />
    <glyph glyph-name="multiply" unicode="&#xd7;" horiz-adv-x="590" 
d="M95 171l183 152l-123 154l32 26l123 -153l183 153l26 -33l-183 -153l123 -153l-33 -26l-122 153l-183 -152z" />
    <glyph glyph-name="Oslash" unicode="&#xd8;" horiz-adv-x="770" 
d="M234 16.5q-54 24.5 -91 69.5l-95 -86h-66l135 122q-43 74 -43 171q0 112 50.5 209.5t137.5 155t193 57.5q65 0 119 -24.5t92 -69.5l95 86h65l-135 -123q43 -72 43 -170q0 -112 -50.5 -209.5t-138 -155t-193.5 -57.5q-64 0 -118 24.5zM172 173l444 403q-26 46 -68 72
t-94 26q-82 0 -151 -52t-109.5 -139t-40.5 -187q0 -66 19 -123zM259.5 58.5q41.5 -25.5 94.5 -25.5q82 0 150.5 52.5t109 139.5t40.5 187q0 65 -19 122l-443 -403q26 -47 67.5 -72.5z" />
    <glyph glyph-name="Ugrave" unicode="&#xd9;" horiz-adv-x="700" 
d="M196.5 20.5q-53.5 28.5 -84 82t-30.5 126.5q0 37 7 72l79 406h73l-80 -415q-7 -36 -7 -71q0 -89 46.5 -137.5t122.5 -48.5q91 0 162 67t96 196l79 409h47l-79 -409q-29 -149 -111.5 -227.5t-198.5 -78.5q-68 0 -121.5 28.5zM321 884h95l102 -120h-43z" />
    <glyph glyph-name="Uacute" unicode="&#xda;" horiz-adv-x="700" 
d="M196.5 20.5q-53.5 28.5 -84 82t-30.5 126.5q0 37 7 72l79 406h73l-80 -415q-7 -36 -7 -71q0 -89 46.5 -137.5t122.5 -48.5q91 0 162 67t96 196l79 409h47l-79 -409q-29 -149 -111.5 -227.5t-198.5 -78.5q-68 0 -121.5 28.5zM535 884h101l-200 -120h-49z" />
    <glyph glyph-name="Ucircumflex" unicode="&#xdb;" horiz-adv-x="700" 
d="M196.5 20.5q-53.5 28.5 -84 82t-30.5 126.5q0 37 7 72l79 406h73l-80 -415q-7 -36 -7 -71q0 -89 46.5 -137.5t122.5 -48.5q91 0 162 67t96 196l79 409h47l-79 -409q-29 -149 -111.5 -227.5t-198.5 -78.5q-68 0 -121.5 28.5zM444 884h67l96 -120h-44l-90 72l-125 -72h-47z
" />
    <glyph glyph-name="Udieresis" unicode="&#xdc;" horiz-adv-x="700" 
d="M196.5 20.5q-53.5 28.5 -84 82t-30.5 126.5q0 37 7 72l79 406h73l-80 -415q-7 -36 -7 -71q0 -89 46.5 -137.5t122.5 -48.5q91 0 162 67t96 196l79 409h47l-79 -409q-29 -149 -111.5 -227.5t-198.5 -78.5q-68 0 -121.5 28.5zM528 781q-12 12 -12 30q0 24 16 40t40 16
q18 0 30 -11.5t12 -29.5q0 -23 -16.5 -40t-39.5 -17q-18 0 -30 12zM333 851q16 16 40 16q18 0 30 -11.5t12 -29.5q0 -23 -16.5 -40t-39.5 -17q-18 0 -30 12t-12 30q0 24 16 40z" />
    <glyph glyph-name="Yacute" unicode="&#xdd;" horiz-adv-x="625" 
d="M281 268l-177 439h75l154 -393l303 393h60l-342 -438l-51 -269h-73zM500 884h101l-200 -120h-49z" />
    <glyph glyph-name="Thorn" unicode="&#xde;" horiz-adv-x="593" 
d="M178 707h74l-28 -140h142q61 0 109.5 -22.5t76 -63.5t27.5 -95q0 -69 -38 -123t-101.5 -83.5t-137.5 -29.5h-159l-29 -150h-74zM303 195q54 0 99.5 23.5t72.5 66.5t27 99q0 65 -39 101t-110 36h-138l-63 -326h151z" />
    <glyph glyph-name="germandbls" unicode="&#xdf;" horiz-adv-x="598" 
d="M204 41l22 110h39q-4 -21 -4 -41q0 -42 23.5 -59.5t73.5 -17.5q53 0 89 33.5t36 85.5q0 54 -50 96l-54 44q-47 39 -47 89q0 39 24.5 71.5t67.5 65.5q35 28 56 55.5t21 63.5q0 41 -29 64.5t-80 23.5q-71 0 -117.5 -44.5t-63.5 -129.5l-110 -551h-71l111 556
q19 95 87 152.5t168 57.5q78 0 121.5 -35t43.5 -88q0 -42 -24 -73t-72 -70q-39 -31 -57 -54t-18 -49q0 -16 8.5 -29t28.5 -29l53 -44q31 -26 47.5 -56.5t16.5 -72.5q0 -79 -53 -126.5t-137 -47.5q-83 0 -150 49z" />
    <glyph glyph-name="agrave" unicode="&#xe0;" horiz-adv-x="506" 
d="M68 28.5q-42 36.5 -42 99.5q0 51 28.5 90t77 60.5t107.5 21.5q67 0 124 -31l12 65q4 19 4 38q0 50 -29.5 77t-86.5 27q-76 0 -148 -36l10 47q69 34 146 34q85 0 131.5 -41t46.5 -109q0 -22 -4 -42l-65 -329h-61l9 65q-31 -34 -71.5 -53.5t-85.5 -19.5q-61 0 -103 36.5z
M124.5 60.5q24.5 -24.5 64.5 -24.5q36 0 74 19t69 54l25 129q-50 22 -106 22q-69 0 -110 -36t-41 -94q0 -45 24.5 -69.5zM184 744h92l83 -140h-39z" />
    <glyph glyph-name="aacute" unicode="&#xe1;" horiz-adv-x="506" 
d="M68 28.5q-42 36.5 -42 99.5q0 51 28.5 90t77 60.5t107.5 21.5q67 0 124 -31l12 65q4 19 4 38q0 50 -29.5 77t-86.5 27q-76 0 -148 -36l10 47q69 34 146 34q85 0 131.5 -41t46.5 -109q0 -22 -4 -42l-65 -329h-61l9 65q-31 -34 -71.5 -53.5t-85.5 -19.5q-61 0 -103 36.5z
M124.5 60.5q24.5 -24.5 64.5 -24.5q36 0 74 19t69 54l25 129q-50 22 -106 22q-69 0 -110 -36t-41 -94q0 -45 24.5 -69.5zM384 744h98l-192 -140h-47z" />
    <glyph glyph-name="acircumflex" unicode="&#xe2;" horiz-adv-x="506" 
d="M68 28.5q-42 36.5 -42 99.5q0 51 28.5 90t77 60.5t107.5 21.5q67 0 124 -31l12 65q4 19 4 38q0 50 -29.5 77t-86.5 27q-76 0 -148 -36l10 47q69 34 146 34q85 0 131.5 -41t46.5 -109q0 -22 -4 -42l-65 -329h-61l9 65q-31 -34 -71.5 -53.5t-85.5 -19.5q-61 0 -103 36.5z
M124.5 60.5q24.5 -24.5 64.5 -24.5q36 0 74 19t69 54l25 129q-50 22 -106 22q-69 0 -110 -36t-41 -94q0 -45 24.5 -69.5zM298 744h66l88 -140h-42l-86 88l-123 -88h-47z" />
    <glyph glyph-name="atilde" unicode="&#xe3;" horiz-adv-x="506" 
d="M68 28.5q-42 36.5 -42 99.5q0 51 28.5 90t77 60.5t107.5 21.5q67 0 124 -31l12 65q4 19 4 38q0 50 -29.5 77t-86.5 27q-76 0 -148 -36l10 47q69 34 146 34q85 0 131.5 -41t46.5 -109q0 -22 -4 -42l-65 -329h-61l9 65q-31 -34 -71.5 -53.5t-85.5 -19.5q-61 0 -103 36.5z
M124.5 60.5q24.5 -24.5 64.5 -24.5q36 0 74 19t69 54l25 129q-50 22 -106 22q-69 0 -110 -36t-41 -94q0 -45 24.5 -69.5zM317 647l-23 16q-25 18 -45 18q-21 0 -34.5 -13.5t-15.5 -39.5h-36q2 46 28 75t64 29q30 0 64 -23l22 -16q25 -18 45 -18q21 0 34.5 13.5t15.5 39.5h36
q-1 -46 -27 -75t-65 -29q-31 0 -63 23z" />
    <glyph glyph-name="adieresis" unicode="&#xe4;" horiz-adv-x="506" 
d="M68 28.5q-42 36.5 -42 99.5q0 51 28.5 90t77 60.5t107.5 21.5q67 0 124 -31l12 65q4 19 4 38q0 50 -29.5 77t-86.5 27q-76 0 -148 -36l10 47q69 34 146 34q85 0 131.5 -41t46.5 -109q0 -22 -4 -42l-65 -329h-61l9 65q-31 -34 -71.5 -53.5t-85.5 -19.5q-61 0 -103 36.5z
M124.5 60.5q24.5 -24.5 64.5 -24.5q36 0 74 19t69 54l25 129q-50 22 -106 22q-69 0 -110 -36t-41 -94q0 -45 24.5 -69.5zM376.5 646q-11.5 12 -11.5 30q0 24 16 40t40 16q18 0 29.5 -12t11.5 -29q0 -24 -16 -40.5t-40 -16.5q-18 0 -29.5 12zM192 716q16 16 40 16
q18 0 29.5 -12t11.5 -29q0 -24 -16 -40.5t-40 -16.5q-18 0 -29.5 12t-11.5 30q0 24 16 40z" />
    <glyph glyph-name="aring" unicode="&#xe5;" horiz-adv-x="506" 
d="M68 28.5q-42 36.5 -42 99.5q0 51 28.5 90t77 60.5t107.5 21.5q67 0 124 -31l12 65q4 19 4 38q0 50 -29.5 77t-86.5 27q-76 0 -148 -36l10 47q69 34 146 34q85 0 131.5 -41t46.5 -109q0 -22 -4 -42l-65 -329h-61l9 65q-31 -34 -71.5 -53.5t-85.5 -19.5q-61 0 -103 36.5z
M124.5 60.5q24.5 -24.5 64.5 -24.5q36 0 74 19t69 54l25 129q-50 22 -106 22q-69 0 -110 -36t-41 -94q0 -45 24.5 -69.5zM236.5 604q-27.5 27 -27.5 68q0 49 36 83t86 34q44 0 71.5 -26.5t27.5 -68.5q0 -49 -36.5 -83t-86.5 -34q-43 0 -70.5 27zM277 624q11 -15 31 -15
q27 0 46 27t19 64q0 27 -11.5 42t-31.5 15q-27 0 -45.5 -27t-18.5 -64q0 -27 11 -42z" />
    <glyph glyph-name="ae" unicode="&#xe6;" horiz-adv-x="859" 
d="M68 28q-42 36 -42 98q0 51 28.5 90t77 60.5t107.5 21.5q68 0 124 -29l12 65q4 19 4 38q0 50 -29.5 77t-86.5 27q-76 0 -148 -36l10 47q69 34 145 34q67 0 109.5 -27t55.5 -75q35 47 88 74.5t115 27.5q57 0 100 -24.5t66.5 -67t23.5 -95.5q0 -34 -9 -66h-385
q-4 -23 -4 -51q0 -78 38 -131t116 -53q59 0 106.5 33t68.5 97h41q-23 -78 -84.5 -124.5t-143.5 -46.5q-67 0 -117.5 31t-76.5 86q-40 -55 -93.5 -86t-112.5 -31q-62 0 -104 36zM124.5 59.5q24.5 -24.5 65.5 -24.5q43 0 90 27.5t86 77.5q-13 45 -9 99q-55 21 -106 21
q-70 0 -110.5 -36.5t-40.5 -95.5q0 -44 24.5 -68.5zM755 307q4 16 4 37q0 55 -33 95.5t-91 40.5q-66 0 -118.5 -48.5t-73.5 -124.5h312z" />
    <glyph glyph-name="ccedilla" unicode="&#xe7;" horiz-adv-x="528" 
d="M247 -8l-14 -41q35 -1 59.5 -19.5t24.5 -49.5q0 -36 -33 -61t-81 -25t-88 27l6 35q37 -19 74 -19q29 0 45.5 11.5t16.5 32.5q0 18 -13 28t-37 10h-14l24 74q-79 12 -128 72t-49 148q0 82 37 152t103.5 112t151.5 42q53 0 99 -16.5t82 -45.5l-22 -114h-38q4 26 4 37
q0 51 -32 74.5t-95 23.5q-62 0 -111.5 -36t-77 -96.5t-27.5 -130.5q0 -85 40.5 -134.5t112.5 -49.5q59 0 105 34t66 101h40q-22 -82 -81.5 -129t-140.5 -47h-9z" />
    <glyph glyph-name="egrave" unicode="&#xe8;" horiz-adv-x="544" 
d="M144.5 19.5q-49.5 27.5 -77 78.5t-27.5 117q0 82 37 152t102 112t145 42q57 0 100 -24.5t66.5 -67t23.5 -95.5q0 -31 -10 -66h-385q-4 -23 -4 -52q0 -78 37.5 -130.5t115.5 -52.5q60 0 107.5 33t68.5 97h41q-23 -78 -84.5 -124.5t-143.5 -46.5q-63 0 -112.5 27.5z
M440 309q4 22 4 34q0 55 -32 96t-91 41q-67 0 -119.5 -47.5t-73.5 -123.5h312zM220 744h92l83 -140h-39z" />
    <glyph glyph-name="eacute" unicode="&#xe9;" horiz-adv-x="544" 
d="M144.5 19.5q-49.5 27.5 -77 78.5t-27.5 117q0 82 37 152t102 112t145 42q57 0 100 -24.5t66.5 -67t23.5 -95.5q0 -31 -10 -66h-385q-4 -23 -4 -52q0 -78 37.5 -130.5t115.5 -52.5q60 0 107.5 33t68.5 97h41q-23 -78 -84.5 -124.5t-143.5 -46.5q-63 0 -112.5 27.5z
M440 309q4 22 4 34q0 55 -32 96t-91 41q-67 0 -119.5 -47.5t-73.5 -123.5h312zM420 744h98l-192 -140h-47z" />
    <glyph glyph-name="ecircumflex" unicode="&#xea;" horiz-adv-x="544" 
d="M144.5 19.5q-49.5 27.5 -77 78.5t-27.5 117q0 82 37 152t102 112t145 42q57 0 100 -24.5t66.5 -67t23.5 -95.5q0 -31 -10 -66h-385q-4 -23 -4 -52q0 -78 37.5 -130.5t115.5 -52.5q60 0 107.5 33t68.5 97h41q-23 -78 -84.5 -124.5t-143.5 -46.5q-63 0 -112.5 27.5z
M440 309q4 22 4 34q0 55 -32 96t-91 41q-67 0 -119.5 -47.5t-73.5 -123.5h312zM334 744h66l88 -140h-42l-86 88l-123 -88h-47z" />
    <glyph glyph-name="edieresis" unicode="&#xeb;" horiz-adv-x="544" 
d="M144.5 19.5q-49.5 27.5 -77 78.5t-27.5 117q0 82 37 152t102 112t145 42q57 0 100 -24.5t66.5 -67t23.5 -95.5q0 -31 -10 -66h-385q-4 -23 -4 -52q0 -78 37.5 -130.5t115.5 -52.5q60 0 107.5 33t68.5 97h41q-23 -78 -84.5 -124.5t-143.5 -46.5q-63 0 -112.5 27.5z
M440 309q4 22 4 34q0 55 -32 96t-91 41q-67 0 -119.5 -47.5t-73.5 -123.5h312zM412.5 646q-11.5 12 -11.5 30q0 24 16 40t40 16q18 0 29.5 -12t11.5 -29q0 -24 -16 -40.5t-40 -16.5q-18 0 -29.5 12zM228 716q16 16 40 16q18 0 29.5 -12t11.5 -29q0 -24 -16 -40.5t-40 -16.5
q-18 0 -29.5 12t-11.5 30q0 24 16 40z" />
    <glyph glyph-name="igrave" unicode="&#xec;" horiz-adv-x="232" 
d="M130 513h71l-99 -513h-71zM70 744h91l68 -140h-40z" />
    <glyph glyph-name="iacute" unicode="&#xed;" horiz-adv-x="232" 
d="M130 513h71l-99 -513h-71zM259 744h95l-171 -140h-49z" />
    <glyph glyph-name="icircumflex" unicode="&#xee;" horiz-adv-x="232" 
d="M130 513h71l-99 -513h-71zM177 744h66l84 -140h-41l-82 86l-119 -86h-47z" />
    <glyph glyph-name="idieresis" unicode="&#xef;" horiz-adv-x="232" 
d="M130 513h71l-99 -513h-71zM252.5 646q-11.5 12 -11.5 30q0 24 16 40t40 16q18 0 29.5 -12t11.5 -29q0 -24 -16 -40.5t-40 -16.5q-18 0 -29.5 12zM74 715.5q16 16.5 40 16.5q18 0 30 -12t12 -29q0 -23 -16.5 -40t-39.5 -17q-18 0 -30 12t-12 30q0 23 16 39.5z" />
    <glyph glyph-name="eth" unicode="&#xf0;" horiz-adv-x="555" 
d="M135 17.5q-46 25.5 -72 72.5t-26 109q0 77 35 144t94.5 106.5t130.5 39.5q94 0 143 -72q-20 119 -81 207l-181 -64l8 45l150 52q-37 46 -98 101h55q48 -38 88 -85l173 60l-8 -45l-140 -48q52 -71 80 -156t28 -178q0 -89 -35.5 -160.5t-98 -112.5t-140.5 -41
q-59 0 -105 25.5zM146.5 78.5q35.5 -45.5 95.5 -45.5q55 0 100.5 34t71.5 91t26 123q0 77 -35.5 122t-96.5 45q-55 0 -100 -33.5t-71 -90.5t-26 -123q0 -77 35.5 -122.5z" />
    <glyph glyph-name="ntilde" unicode="&#xf1;" horiz-adv-x="569" 
d="M130 513h67l-20 -107q38 52 89 83.5t107 31.5q63 0 101 -39t38 -107q0 -27 -5 -50l-63 -325h-70l63 326q5 28 5 47q0 47 -22 72.5t-65 25.5q-92 0 -185 -115l-69 -356h-70zM372 647l-23 16q-25 18 -45 18q-21 0 -34.5 -13.5t-15.5 -39.5h-36q2 46 28 75t64 29
q30 0 64 -23l22 -16q25 -18 45 -18q21 0 34.5 13.5t15.5 39.5h36q-1 -46 -27 -75t-65 -29q-31 0 -63 23z" />
    <glyph glyph-name="ograve" unicode="&#xf2;" horiz-adv-x="575" 
d="M142 20q-48 28 -75 78.5t-27 116.5q0 82 37 152t102 112t144 42q62 0 110 -28t75 -78.5t27 -116.5q0 -82 -37 -152t-102 -112t-144 -42q-62 0 -110 28zM151.5 83q37.5 -50 101.5 -50q58 0 105 36t74.5 96.5t27.5 130.5q0 84 -37.5 134t-101.5 50q-57 0 -104.5 -36
t-75 -96.5t-27.5 -130.5q0 -84 37.5 -134zM235 744h92l83 -140h-39z" />
    <glyph glyph-name="oacute" unicode="&#xf3;" horiz-adv-x="575" 
d="M142 20q-48 28 -75 78.5t-27 116.5q0 82 37 152t102 112t144 42q62 0 110 -28t75 -78.5t27 -116.5q0 -82 -37 -152t-102 -112t-144 -42q-62 0 -110 28zM151.5 83q37.5 -50 101.5 -50q58 0 105 36t74.5 96.5t27.5 130.5q0 84 -37.5 134t-101.5 50q-57 0 -104.5 -36
t-75 -96.5t-27.5 -130.5q0 -84 37.5 -134zM436 744h98l-192 -140h-47z" />
    <glyph glyph-name="ocircumflex" unicode="&#xf4;" horiz-adv-x="575" 
d="M142 20q-48 28 -75 78.5t-27 116.5q0 82 37 152t102 112t144 42q62 0 110 -28t75 -78.5t27 -116.5q0 -82 -37 -152t-102 -112t-144 -42q-62 0 -110 28zM151.5 83q37.5 -50 101.5 -50q58 0 105 36t74.5 96.5t27.5 130.5q0 84 -37.5 134t-101.5 50q-57 0 -104.5 -36
t-75 -96.5t-27.5 -130.5q0 -84 37.5 -134zM350 744h66l88 -140h-42l-86 88l-123 -88h-47z" />
    <glyph glyph-name="otilde" unicode="&#xf5;" horiz-adv-x="575" 
d="M142 20q-48 28 -75 78.5t-27 116.5q0 82 37 152t102 112t144 42q62 0 110 -28t75 -78.5t27 -116.5q0 -82 -37 -152t-102 -112t-144 -42q-62 0 -110 28zM151.5 83q37.5 -50 101.5 -50q58 0 105 36t74.5 96.5t27.5 130.5q0 84 -37.5 134t-101.5 50q-57 0 -104.5 -36
t-75 -96.5t-27.5 -130.5q0 -84 37.5 -134zM368 647l-23 16q-25 18 -45 18q-21 0 -34.5 -13.5t-15.5 -39.5h-36q2 46 28 75t64 29q30 0 64 -23l22 -16q25 -18 45 -18q21 0 34.5 13.5t15.5 39.5h36q-1 -46 -27 -75t-65 -29q-31 0 -63 23z" />
    <glyph glyph-name="odieresis" unicode="&#xf6;" horiz-adv-x="575" 
d="M142 20q-48 28 -75 78.5t-27 116.5q0 82 37 152t102 112t144 42q62 0 110 -28t75 -78.5t27 -116.5q0 -82 -37 -152t-102 -112t-144 -42q-62 0 -110 28zM151.5 83q37.5 -50 101.5 -50q58 0 105 36t74.5 96.5t27.5 130.5q0 84 -37.5 134t-101.5 50q-57 0 -104.5 -36
t-75 -96.5t-27.5 -130.5q0 -84 37.5 -134zM427.5 646q-11.5 12 -11.5 30q0 24 16 40t40 16q18 0 29.5 -12t11.5 -29q0 -24 -16 -40.5t-40 -16.5q-18 0 -29.5 12zM243 716q16 16 40 16q18 0 29.5 -12t11.5 -29q0 -24 -16 -40.5t-40 -16.5q-18 0 -29.5 12t-11.5 30q0 24 16 40
z" />
    <glyph glyph-name="divide" unicode="&#xf7;" horiz-adv-x="590" 
d="M96 341h430l-8 -41h-430zM244 186.5q15 13.5 35 13.5q18 0 30 -11.5t12 -28.5q0 -21 -14.5 -34.5t-35.5 -13.5q-19 0 -30.5 11.5t-11.5 30.5t15 32.5zM308.5 515.5q14.5 13.5 34.5 13.5q19 0 30.5 -11.5t11.5 -29.5q0 -20 -14.5 -34t-34.5 -14q-19 0 -30.5 12t-11.5 30
q0 20 14.5 33.5z" />
    <glyph glyph-name="oslash" unicode="&#xf8;" horiz-adv-x="575" 
d="M161 10.5q-41 18.5 -70 52.5l-74 -63h-62l113 96q-28 53 -28 119q0 82 37 152t102 112t144 42q50 0 91 -18.5t70 -51.5l73 62h61l-112 -95q29 -52 29 -120q0 -82 -37 -152t-102 -112t-144 -42q-50 0 -91 18.5zM123 143l312 266q-17 34 -46.5 52.5t-67.5 18.5
q-57 0 -104.5 -36t-75 -96.5t-27.5 -130.5q0 -41 9 -74zM185.5 51.5q29.5 -18.5 67.5 -18.5q58 0 105 36t74.5 96.5t27.5 130.5q0 41 -9 74l-312 -266q17 -34 46.5 -52.5z" />
    <glyph glyph-name="ugrave" unicode="&#xf9;" horiz-adv-x="557" 
d="M111 35q-48 43 -48 125q0 28 6 61l56 292h71l-61 -311q-5 -24 -5 -52q0 -57 30 -87t83 -30q61 0 100.5 38t53.5 112l64 330h71l-62 -317q-19 -101 -78 -152.5t-153 -51.5q-80 0 -128 43zM228 744h92l83 -140h-39z" />
    <glyph glyph-name="uacute" unicode="&#xfa;" horiz-adv-x="557" 
d="M111 35q-48 43 -48 125q0 28 6 61l56 292h71l-61 -311q-5 -24 -5 -52q0 -57 30 -87t83 -30q61 0 100.5 38t53.5 112l64 330h71l-62 -317q-19 -101 -78 -152.5t-153 -51.5q-80 0 -128 43zM428 744h98l-192 -140h-47z" />
    <glyph glyph-name="ucircumflex" unicode="&#xfb;" horiz-adv-x="557" 
d="M111 35q-48 43 -48 125q0 28 6 61l56 292h71l-61 -311q-5 -24 -5 -52q0 -57 30 -87t83 -30q61 0 100.5 38t53.5 112l64 330h71l-62 -317q-19 -101 -78 -152.5t-153 -51.5q-80 0 -128 43zM342 744h66l88 -140h-42l-86 88l-123 -88h-47z" />
    <glyph glyph-name="udieresis" unicode="&#xfc;" horiz-adv-x="557" 
d="M111 35q-48 43 -48 125q0 28 6 61l56 292h71l-61 -311q-5 -24 -5 -52q0 -57 30 -87t83 -30q61 0 100.5 38t53.5 112l64 330h71l-62 -317q-19 -101 -78 -152.5t-153 -51.5q-80 0 -128 43zM419.5 646q-11.5 12 -11.5 30q0 24 16 40t40 16q18 0 29.5 -12t11.5 -29
q0 -24 -16 -40.5t-40 -16.5q-18 0 -29.5 12zM235 716q16 16 40 16q18 0 29.5 -12t11.5 -29q0 -24 -16 -40.5t-40 -16.5q-18 0 -29.5 12t-11.5 30q0 24 16 40z" />
    <glyph glyph-name="yacute" unicode="&#xfd;" horiz-adv-x="487" 
d="M179 8l-112 505h72l91 -419l239 419h51l-426 -735h-51zM398 744h98l-192 -140h-47z" />
    <glyph glyph-name="thorn" unicode="&#xfe;" horiz-adv-x="577" 
d="M178 758h70l-60 -312q32 35 73.5 55t88.5 20q53 0 96 -26.5t67.5 -75.5t24.5 -113q0 -82 -35 -154.5t-97 -116t-138 -43.5q-52 0 -90.5 20t-63.5 53l-56 -287h-70zM176 56.5q32 -16.5 73 -16.5q62 0 111 36t76.5 96.5t27.5 129.5q0 79 -37 125t-97 46q-38 0 -77.5 -20
t-73.5 -56l-57 -295q22 -29 54 -45.5z" />
    <glyph glyph-name="ydieresis" unicode="&#xff;" horiz-adv-x="487" 
d="M179 8l-112 505h72l91 -419l239 419h51l-426 -735h-51zM390.5 646q-11.5 12 -11.5 30q0 24 16 40t40 16q18 0 29.5 -12t11.5 -29q0 -24 -16 -40.5t-40 -16.5q-18 0 -29.5 12zM206 716q16 16 40 16q18 0 29.5 -12t11.5 -29q0 -24 -16 -40.5t-40 -16.5q-18 0 -29.5 12
t-11.5 30q0 24 16 40z" />
    <glyph glyph-name="Amacron" unicode="&#x100;" horiz-adv-x="654" 
d="M380 707h65l135 -707h-73l-37 203h-323l-116 -203h-58zM461 250l-70 382l-218 -382h288zM288 838h301l-10 -50h-301z" />
    <glyph glyph-name="amacron" unicode="&#x101;" horiz-adv-x="506" 
d="M68 28.5q-42 36.5 -42 99.5q0 51 28.5 90t77 60.5t107.5 21.5q67 0 124 -31l12 65q4 19 4 38q0 50 -29.5 77t-86.5 27q-76 0 -148 -36l10 47q69 34 146 34q85 0 131.5 -41t46.5 -109q0 -22 -4 -42l-65 -329h-61l9 65q-31 -34 -71.5 -53.5t-85.5 -19.5q-61 0 -103 36.5z
M124.5 60.5q24.5 -24.5 64.5 -24.5q36 0 74 19t69 54l25 129q-50 22 -106 22q-69 0 -110 -36t-41 -94q0 -45 24.5 -69.5zM180 703h286l-10 -50h-286z" />
    <glyph glyph-name="Abreve" unicode="&#x102;" horiz-adv-x="654" 
d="M380 707h65l135 -707h-73l-37 203h-323l-116 -203h-58zM461 250l-70 382l-218 -382h288zM343 788q-33 30 -33 76q0 6 2 20h39q-3 -31 17.5 -50.5t63.5 -19.5q42 0 71 19t39 51h40q-8 -54 -51 -90t-102 -36q-53 0 -86 30z" />
    <glyph glyph-name="abreve" unicode="&#x103;" horiz-adv-x="506" 
d="M68 28.5q-42 36.5 -42 99.5q0 51 28.5 90t77 60.5t107.5 21.5q67 0 124 -31l12 65q4 19 4 38q0 50 -29.5 77t-86.5 27q-76 0 -148 -36l10 47q69 34 146 34q85 0 131.5 -41t46.5 -109q0 -22 -4 -42l-65 -329h-61l9 65q-31 -34 -71.5 -53.5t-85.5 -19.5q-61 0 -103 36.5z
M124.5 60.5q24.5 -24.5 64.5 -24.5q36 0 74 19t69 54l25 129q-50 22 -106 22q-69 0 -110 -36t-41 -94q0 -45 24.5 -69.5zM228 632.5q-32 34.5 -32 88.5q0 7 2 23h39q-3 -40 17 -65t61 -25q40 0 69 24.5t38 65.5h39q-7 -62 -49 -104t-100 -42q-52 0 -84 34.5z" />
    <glyph glyph-name="Aogonek" unicode="&#x104;" horiz-adv-x="654" 
d="M380 707h65l135 -707q-55 -37 -83.5 -75.5t-28.5 -73.5q0 -44 43 -44q17 0 30 4l-6 -33q-21 -8 -45 -8q-38 0 -60.5 21t-22.5 56q0 42 35 81t94 72h-29l-37 203h-323l-116 -203h-58zM461 250l-70 382l-218 -382h288z" />
    <glyph glyph-name="aogonek" unicode="&#x105;" horiz-adv-x="506" 
d="M68 28.5q-42 36.5 -42 99.5q0 51 28.5 90t77 60.5t107.5 21.5q67 0 124 -31l12 65q4 19 4 38q0 50 -29.5 77t-86.5 27q-76 0 -148 -36l10 47q69 34 146 34q85 0 131.5 -41t46.5 -109q0 -22 -4 -42l-65 -329q-55 -37 -83.5 -75.5t-28.5 -73.5q0 -44 43 -44q17 0 30 4
l-6 -33q-21 -8 -45 -8q-38 0 -60.5 21t-22.5 56q0 42 35 81t94 72h-17l9 65q-31 -34 -71.5 -53.5t-85.5 -19.5q-61 0 -103 36.5zM124.5 60.5q24.5 -24.5 64.5 -24.5q36 0 74 19t69 54l25 129q-50 22 -106 22q-69 0 -110 -36t-41 -94q0 -45 24.5 -69.5z" />
    <glyph glyph-name="Cacute" unicode="&#x106;" horiz-adv-x="732" 
d="M207.5 29.5q-62.5 37.5 -98 106t-35.5 157.5q0 113 51 210t140.5 154.5t201.5 57.5q139 0 241 -81l-29 -146h-41q5 30 5 50q0 70 -45.5 103t-134.5 33q-87 0 -158 -52t-111.5 -139t-40.5 -187q0 -79 25 -138.5t71.5 -92t108.5 -32.5q90 0 159 49t99 146h44
q-33 -112 -114.5 -174t-195.5 -62q-80 0 -142.5 37.5zM558 884h101l-200 -120h-49z" />
    <glyph glyph-name="cacute" unicode="&#x107;" horiz-adv-x="528" 
d="M144.5 20q-49.5 28 -77 78.5t-27.5 116.5q0 82 37 152t103.5 112t151.5 42q53 0 99 -16.5t82 -45.5l-22 -114h-38q4 26 4 37q0 51 -32 74.5t-95 23.5q-62 0 -111.5 -36t-77 -96.5t-27.5 -130.5q0 -85 40.5 -134.5t112.5 -49.5q59 0 105 34t66 101h40q-22 -82 -81.5 -129
t-140.5 -47q-62 0 -111.5 28zM429 744h98l-192 -140h-47z" />
    <glyph glyph-name="Ccircumflex" unicode="&#x108;" horiz-adv-x="732" 
d="M207.5 29.5q-62.5 37.5 -98 106t-35.5 157.5q0 113 51 210t140.5 154.5t201.5 57.5q139 0 241 -81l-29 -146h-41q5 30 5 50q0 70 -45.5 103t-134.5 33q-87 0 -158 -52t-111.5 -139t-40.5 -187q0 -79 25 -138.5t71.5 -92t108.5 -32.5q90 0 159 49t99 146h44
q-33 -112 -114.5 -174t-195.5 -62q-80 0 -142.5 37.5zM467 884h67l96 -120h-44l-90 72l-125 -72h-47z" />
    <glyph glyph-name="ccircumflex" unicode="&#x109;" horiz-adv-x="528" 
d="M144.5 20q-49.5 28 -77 78.5t-27.5 116.5q0 82 37 152t103.5 112t151.5 42q53 0 99 -16.5t82 -45.5l-22 -114h-38q4 26 4 37q0 51 -32 74.5t-95 23.5q-62 0 -111.5 -36t-77 -96.5t-27.5 -130.5q0 -85 40.5 -134.5t112.5 -49.5q59 0 105 34t66 101h40q-22 -82 -81.5 -129
t-140.5 -47q-62 0 -111.5 28zM343 744h66l88 -140h-42l-86 88l-123 -88h-47z" />
    <glyph glyph-name="Cdotaccent" unicode="&#x10a;" horiz-adv-x="732" 
d="M207.5 29.5q-62.5 37.5 -98 106t-35.5 157.5q0 113 51 210t140.5 154.5t201.5 57.5q139 0 241 -81l-29 -146h-41q5 30 5 50q0 70 -45.5 103t-134.5 33q-87 0 -158 -52t-111.5 -139t-40.5 -187q0 -79 25 -138.5t71.5 -92t108.5 -32.5q90 0 159 49t99 146h44
q-33 -112 -114.5 -174t-195.5 -62q-80 0 -142.5 37.5zM448.5 779q-12.5 13 -12.5 32q0 24 17 41.5t42 17.5q19 0 31.5 -12.5t12.5 -31.5q0 -25 -17 -42.5t-42 -17.5q-19 0 -31.5 13z" />
    <glyph glyph-name="cdotaccent" unicode="&#x10b;" horiz-adv-x="528" 
d="M144.5 20q-49.5 28 -77 78.5t-27.5 116.5q0 82 37 152t103.5 112t151.5 42q53 0 99 -16.5t82 -45.5l-22 -114h-38q4 26 4 37q0 51 -32 74.5t-95 23.5q-62 0 -111.5 -36t-77 -96.5t-27.5 -130.5q0 -85 40.5 -134.5t112.5 -49.5q59 0 105 34t66 101h40q-22 -82 -81.5 -129
t-140.5 -47q-62 0 -111.5 28zM324.5 643.5q-12.5 12.5 -12.5 31.5q0 25 17 42t42 17q19 0 31.5 -12t12.5 -31q0 -25 -17 -42.5t-42 -17.5q-19 0 -31.5 12.5z" />
    <glyph glyph-name="Ccaron" unicode="&#x10c;" horiz-adv-x="732" 
d="M207.5 29.5q-62.5 37.5 -98 106t-35.5 157.5q0 113 51 210t140.5 154.5t201.5 57.5q139 0 241 -81l-29 -146h-41q5 30 5 50q0 70 -45.5 103t-134.5 33q-87 0 -158 -52t-111.5 -139t-40.5 -187q0 -79 25 -138.5t71.5 -92t108.5 -32.5q90 0 159 49t99 146h44
q-33 -112 -114.5 -174t-195.5 -62q-80 0 -142.5 37.5zM347 884h44l91 -72l125 72h47l-143 -120h-67z" />
    <glyph glyph-name="ccaron" unicode="&#x10d;" horiz-adv-x="528" 
d="M144.5 20q-49.5 28 -77 78.5t-27.5 116.5q0 82 37 152t103.5 112t151.5 42q53 0 99 -16.5t82 -45.5l-22 -114h-38q4 26 4 37q0 51 -32 74.5t-95 23.5q-62 0 -111.5 -36t-77 -96.5t-27.5 -130.5q0 -85 40.5 -134.5t112.5 -49.5q59 0 105 34t66 101h40q-22 -82 -81.5 -129
t-140.5 -47q-62 0 -111.5 28zM227 744h42l85 -88l123 88h48l-144 -140h-67z" />
    <glyph glyph-name="Dcaron" unicode="&#x10e;" horiz-adv-x="708" 
d="M178 707h227q78 0 139 -34.5t95.5 -98t34.5 -148.5q0 -117 -53 -214.5t-144 -154.5t-202 -57h-234zM280 47q87 0 160 50t115.5 136.5t42.5 190.5q0 113 -54.5 174.5t-145.5 61.5h-155l-120 -613h157zM296 884h44l91 -72l125 72h47l-143 -120h-67z" />
    <glyph glyph-name="dcaron" unicode="&#x10f;" horiz-adv-x="668" 
d="M131 18.5q-43 26.5 -67.5 75.5t-24.5 113q0 82 35 154.5t97 116t138 43.5q52 0 91 -20t63 -53l60 310h71l-147 -758h-67l14 72q-32 -37 -75.5 -58.5t-91.5 -21.5q-53 0 -96 26.5zM150 86q37 -46 97 -46q39 0 78.5 20.5t72.5 56.5l57 293q-46 63 -126 63q-62 0 -111 -36
t-77 -96.5t-28 -129.5q0 -79 37 -125zM684 758h69l-85 -195h-41z" />
    <glyph glyph-name="Dcroat" unicode="&#x110;" horiz-adv-x="714" 
d="M112 338h-105l8 39h105l64 330h227q78 0 139 -34.5t95.5 -98t34.5 -148.5q0 -117 -53 -214.5t-144 -154.5t-202 -57h-234zM286 47q87 0 160 50t115.5 136.5t42.5 190.5q0 113 -54.5 174.5t-145.5 61.5h-155l-55 -283h176l-8 -39h-176l-57 -291h157z" />
    <glyph glyph-name="dcroat" unicode="&#x111;" horiz-adv-x="577" 
d="M131 18.5q-43 26.5 -67.5 75.5t-24.5 113q0 82 35 154.5t97 116t138 43.5q52 0 91 -20t63 -53l34 174h-145l6 37h146l19 99h71l-19 -99h92l-6 -37h-93l-121 -622h-67l14 72q-32 -37 -75.5 -58.5t-91.5 -21.5q-53 0 -96 26.5zM150 86q37 -46 97 -46q39 0 78.5 20.5
t72.5 56.5l57 293q-46 63 -126 63q-62 0 -111 -36t-77 -96.5t-28 -129.5q0 -79 37 -125z" />
    <glyph glyph-name="Emacron" unicode="&#x112;" horiz-adv-x="584" 
d="M178 707h420l-9 -47h-346l-54 -271h312l-10 -46h-310l-58 -296h358l-9 -47h-432zM265 838h301l-10 -50h-301z" />
    <glyph glyph-name="emacron" unicode="&#x113;" horiz-adv-x="544" 
d="M144.5 19.5q-49.5 27.5 -77 78.5t-27.5 117q0 82 37 152t102 112t145 42q57 0 100 -24.5t66.5 -67t23.5 -95.5q0 -31 -10 -66h-385q-4 -23 -4 -52q0 -78 37.5 -130.5t115.5 -52.5q60 0 107.5 33t68.5 97h41q-23 -78 -84.5 -124.5t-143.5 -46.5q-63 0 -112.5 27.5z
M440 309q4 22 4 34q0 55 -32 96t-91 41q-67 0 -119.5 -47.5t-73.5 -123.5h312zM216 703h286l-10 -50h-286z" />
    <glyph glyph-name="Ebreve" unicode="&#x114;" horiz-adv-x="584" 
d="M178 707h420l-9 -47h-346l-54 -271h312l-10 -46h-310l-58 -296h358l-9 -47h-432zM320 788q-33 30 -33 76q0 6 2 20h39q-3 -31 17.5 -50.5t63.5 -19.5q42 0 71 19t39 51h40q-8 -54 -51 -90t-102 -36q-53 0 -86 30z" />
    <glyph glyph-name="ebreve" unicode="&#x115;" horiz-adv-x="544" 
d="M144.5 19.5q-49.5 27.5 -77 78.5t-27.5 117q0 82 37 152t102 112t145 42q57 0 100 -24.5t66.5 -67t23.5 -95.5q0 -31 -10 -66h-385q-4 -23 -4 -52q0 -78 37.5 -130.5t115.5 -52.5q60 0 107.5 33t68.5 97h41q-23 -78 -84.5 -124.5t-143.5 -46.5q-63 0 -112.5 27.5z
M440 309q4 22 4 34q0 55 -32 96t-91 41q-67 0 -119.5 -47.5t-73.5 -123.5h312zM265 632.5q-32 34.5 -32 88.5q0 7 2 23h39q-3 -40 17 -65t61 -25q40 0 69 24.5t38 65.5h39q-7 -62 -49 -104t-100 -42q-52 0 -84 34.5z" />
    <glyph glyph-name="Edotaccent" unicode="&#x116;" horiz-adv-x="584" 
d="M178 707h420l-9 -47h-346l-54 -271h312l-10 -46h-310l-58 -296h358l-9 -47h-432zM371.5 779q-12.5 13 -12.5 32q0 24 17 41.5t42 17.5q19 0 31.5 -12.5t12.5 -31.5q0 -25 -17 -42.5t-42 -17.5q-19 0 -31.5 13z" />
    <glyph glyph-name="edotaccent" unicode="&#x117;" horiz-adv-x="544" 
d="M144.5 19.5q-49.5 27.5 -77 78.5t-27.5 117q0 82 37 152t102 112t145 42q57 0 100 -24.5t66.5 -67t23.5 -95.5q0 -31 -10 -66h-385q-4 -23 -4 -52q0 -78 37.5 -130.5t115.5 -52.5q60 0 107.5 33t68.5 97h41q-23 -78 -84.5 -124.5t-143.5 -46.5q-63 0 -112.5 27.5z
M440 309q4 22 4 34q0 55 -32 96t-91 41q-67 0 -119.5 -47.5t-73.5 -123.5h312zM315.5 643.5q-12.5 12.5 -12.5 31.5q0 25 17 42t42 17q19 0 31.5 -12t12.5 -31q0 -25 -17 -42.5t-42 -17.5q-19 0 -31.5 12.5z" />
    <glyph glyph-name="Eogonek" unicode="&#x118;" horiz-adv-x="584" 
d="M178 707h420l-9 -47h-346l-54 -271h312l-10 -46h-310l-58 -296h358l-9 -47q-55 -37 -83.5 -75.5t-28.5 -73.5q0 -44 43 -44q17 0 30 4l-6 -33q-21 -8 -45 -8q-38 0 -60.5 21t-22.5 56q0 42 35 81t94 72h-388z" />
    <glyph glyph-name="eogonek" unicode="&#x119;" horiz-adv-x="544" 
d="M262.5 -210.5q-22.5 19.5 -22.5 52.5q0 36 26 77t75 91q-39 -18 -84 -18q-63 0 -112.5 27.5t-77 78.5t-27.5 117q0 82 37 152t102 112t145 42q57 0 100 -24.5t66.5 -67t23.5 -95.5q0 -31 -10 -66h-385q-4 -23 -4 -52q0 -78 37.5 -130.5t115.5 -52.5q108 0 177 130h40
q-34 -67 -91 -136q-48 -58 -70.5 -99.5t-22.5 -75.5q0 -24 10.5 -34.5t32.5 -10.5q17 0 30 4l-6 -33q-21 -8 -45 -8q-38 0 -60.5 19.5zM440 307q3 17 3 35q0 57 -31.5 97.5t-90.5 40.5q-67 0 -120 -48.5t-74 -124.5h313z" />
    <glyph glyph-name="Ecaron" unicode="&#x11a;" horiz-adv-x="584" 
d="M178 707h420l-9 -47h-346l-54 -271h312l-10 -46h-310l-58 -296h358l-9 -47h-432zM270 884h44l91 -72l125 72h47l-143 -120h-67z" />
    <glyph glyph-name="ecaron" unicode="&#x11b;" horiz-adv-x="544" 
d="M144.5 19.5q-49.5 27.5 -77 78.5t-27.5 117q0 82 37 152t102 112t145 42q57 0 100 -24.5t66.5 -67t23.5 -95.5q0 -31 -10 -66h-385q-4 -23 -4 -52q0 -78 37.5 -130.5t115.5 -52.5q60 0 107.5 33t68.5 97h41q-23 -78 -84.5 -124.5t-143.5 -46.5q-63 0 -112.5 27.5z
M440 309q4 22 4 34q0 55 -32 96t-91 41q-67 0 -119.5 -47.5t-73.5 -123.5h312zM218 744h42l85 -88l123 88h48l-144 -140h-67z" />
    <glyph glyph-name="Gcircumflex" unicode="&#x11c;" horiz-adv-x="750" 
d="M210 30q-65 38 -100.5 106.5t-35.5 155.5q0 114 50 211t141 154.5t208 57.5q138 0 241 -81l-29 -146h-41q5 30 5 49q0 137 -180 137q-92 0 -164 -52t-112 -139.5t-40 -188.5q0 -77 25 -136t72 -92t112 -33q100 0 167.5 64.5t83.5 177.5h-197l8 47h268q-5 -97 -49 -172
t-118 -116.5t-166 -41.5q-84 0 -149 38zM473 884h67l96 -120h-44l-90 72l-125 -72h-47z" />
    <glyph glyph-name="gcircumflex" unicode="&#x11d;" horiz-adv-x="532" 
d="M30.5 -194.5q-53.5 35.5 -53.5 95.5q0 39 26 74.5t73 59.5q-19 22 -19 52q0 34 24 63.5t61 44.5q-32 20 -49 51t-17 70q0 56 31 103t83.5 74.5t114.5 27.5q58 0 102 -26q22 37 52.5 55.5t64.5 18.5q18 0 39 -8l-8 -35q-16 7 -33 7q-55 0 -87 -59q42 -42 42 -103
q0 -55 -31 -102t-84 -74.5t-115 -27.5q-36 0 -71 11q-28 -10 -44.5 -29t-16.5 -39q0 -34 48 -40l159 -19q61 -7 89.5 -35.5t28.5 -73.5q0 -50 -32 -89t-90.5 -61t-134.5 -22q-99 0 -152.5 35.5zM62 -165.5q42 -24.5 124 -24.5q60 0 105.5 15t70 40.5t24.5 57.5q0 53 -75 62
l-205 26q-40 -15 -63 -44.5t-23 -63.5q0 -44 42 -68.5zM175.5 236.5q29.5 -29.5 74.5 -29.5q41 0 77 22t57.5 60t21.5 82q0 51 -29 80.5t-75 29.5q-41 0 -77 -22t-57.5 -60t-21.5 -82q0 -51 29.5 -80.5zM315 744h66l84 -140h-41l-82 86l-119 -86h-47z" />
    <glyph glyph-name="Gbreve" unicode="&#x11e;" horiz-adv-x="750" 
d="M210 30q-65 38 -100.5 106.5t-35.5 155.5q0 114 50 211t141 154.5t208 57.5q138 0 241 -81l-29 -146h-41q5 30 5 49q0 137 -180 137q-92 0 -164 -52t-112 -139.5t-40 -188.5q0 -77 25 -136t72 -92t112 -33q100 0 167.5 64.5t83.5 177.5h-197l8 47h268q-5 -97 -49 -172
t-118 -116.5t-166 -41.5q-84 0 -149 38zM403 788q-33 30 -33 76q0 6 2 20h39q-3 -31 17.5 -50.5t63.5 -19.5q42 0 71 19t39 51h40q-8 -54 -51 -90t-102 -36q-53 0 -86 30z" />
    <glyph glyph-name="gbreve" unicode="&#x11f;" horiz-adv-x="532" 
d="M30.5 -194.5q-53.5 35.5 -53.5 95.5q0 39 26 74.5t73 59.5q-19 22 -19 52q0 34 24 63.5t61 44.5q-32 20 -49 51t-17 70q0 56 31 103t83.5 74.5t114.5 27.5q58 0 102 -26q22 37 52.5 55.5t64.5 18.5q18 0 39 -8l-8 -35q-16 7 -33 7q-55 0 -87 -59q42 -42 42 -103
q0 -55 -31 -102t-84 -74.5t-115 -27.5q-36 0 -71 11q-28 -10 -44.5 -29t-16.5 -39q0 -34 48 -40l159 -19q61 -7 89.5 -35.5t28.5 -73.5q0 -50 -32 -89t-90.5 -61t-134.5 -22q-99 0 -152.5 35.5zM62 -165.5q42 -24.5 124 -24.5q60 0 105.5 15t70 40.5t24.5 57.5q0 53 -75 62
l-205 26q-40 -15 -63 -44.5t-23 -63.5q0 -44 42 -68.5zM175.5 236.5q29.5 -29.5 74.5 -29.5q41 0 77 22t57.5 60t21.5 82q0 51 -29 80.5t-75 29.5q-41 0 -77 -22t-57.5 -60t-21.5 -82q0 -51 29.5 -80.5zM246 632.5q-32 34.5 -32 88.5q0 7 2 23h39q-3 -40 17 -65t61 -25
q40 0 69 24.5t38 65.5h39q-7 -62 -49 -104t-100 -42q-52 0 -84 34.5z" />
    <glyph glyph-name="Gdotaccent" unicode="&#x120;" horiz-adv-x="750" 
d="M210 30q-65 38 -100.5 106.5t-35.5 155.5q0 114 50 211t141 154.5t208 57.5q138 0 241 -81l-29 -146h-41q5 30 5 49q0 137 -180 137q-92 0 -164 -52t-112 -139.5t-40 -188.5q0 -77 25 -136t72 -92t112 -33q100 0 167.5 64.5t83.5 177.5h-197l8 47h268q-5 -97 -49 -172
t-118 -116.5t-166 -41.5q-84 0 -149 38zM454.5 779q-12.5 13 -12.5 32q0 24 17 41.5t42 17.5q19 0 31.5 -12.5t12.5 -31.5q0 -25 -17 -42.5t-42 -17.5q-19 0 -31.5 13z" />
    <glyph glyph-name="gdotaccent" unicode="&#x121;" horiz-adv-x="532" 
d="M30.5 -194.5q-53.5 35.5 -53.5 95.5q0 39 26 74.5t73 59.5q-19 22 -19 52q0 34 24 63.5t61 44.5q-32 20 -49 51t-17 70q0 56 31 103t83.5 74.5t114.5 27.5q58 0 102 -26q22 37 52.5 55.5t64.5 18.5q18 0 39 -8l-8 -35q-16 7 -33 7q-55 0 -87 -59q42 -42 42 -103
q0 -55 -31 -102t-84 -74.5t-115 -27.5q-36 0 -71 11q-28 -10 -44.5 -29t-16.5 -39q0 -34 48 -40l159 -19q61 -7 89.5 -35.5t28.5 -73.5q0 -50 -32 -89t-90.5 -61t-134.5 -22q-99 0 -152.5 35.5zM62 -165.5q42 -24.5 124 -24.5q60 0 105.5 15t70 40.5t24.5 57.5q0 53 -75 62
l-205 26q-40 -15 -63 -44.5t-23 -63.5q0 -44 42 -68.5zM175.5 236.5q29.5 -29.5 74.5 -29.5q41 0 77 22t57.5 60t21.5 82q0 51 -29 80.5t-75 29.5q-41 0 -77 -22t-57.5 -60t-21.5 -82q0 -51 29.5 -80.5zM297.5 643.5q-12.5 12.5 -12.5 31.5q0 25 17 42t42 17q19 0 31.5 -12
t12.5 -31q0 -25 -17 -42.5t-42 -17.5q-19 0 -31.5 12.5z" />
    <glyph glyph-name="uni0122" unicode="&#x122;" horiz-adv-x="750" 
d="M210 30q-65 38 -100.5 106.5t-35.5 155.5q0 114 50 211t141 154.5t208 57.5q138 0 241 -81l-29 -146h-41q5 30 5 49q0 137 -180 137q-92 0 -164 -52t-112 -139.5t-40 -188.5q0 -77 25 -136t72 -92t112 -33q100 0 167.5 64.5t83.5 177.5h-197l8 47h268q-5 -97 -49 -172
t-118 -116.5t-166 -41.5q-84 0 -149 38zM272.5 -150.5q18.5 45.5 17.5 96.5h72q4 -102 -104 -189h-41q37 47 55.5 92.5z" />
    <glyph glyph-name="uni0123" unicode="&#x123;" horiz-adv-x="532" 
d="M30.5 -194.5q-53.5 35.5 -53.5 95.5q0 39 26 74.5t73 59.5q-19 22 -19 52q0 34 24 63.5t61 44.5q-32 20 -49 51t-17 70q0 56 31 103t83.5 74.5t114.5 27.5q58 0 102 -26q22 37 52.5 55.5t64.5 18.5q18 0 39 -8l-8 -35q-16 7 -33 7q-55 0 -87 -59q42 -42 42 -103
q0 -55 -31 -102t-84 -74.5t-115 -27.5q-36 0 -71 11q-28 -10 -44.5 -29t-16.5 -39q0 -34 48 -40l159 -19q61 -7 89.5 -35.5t28.5 -73.5q0 -50 -32 -89t-90.5 -61t-134.5 -22q-99 0 -152.5 35.5zM62 -165.5q42 -24.5 124 -24.5q60 0 105.5 15t70 40.5t24.5 57.5q0 53 -75 62
l-205 26q-40 -15 -63 -44.5t-23 -63.5q0 -44 42 -68.5zM175.5 236.5q29.5 -29.5 74.5 -29.5q41 0 77 22t57.5 60t21.5 82q0 51 -29 80.5t-75 29.5q-41 0 -77 -22t-57.5 -60t-21.5 -82q0 -51 29.5 -80.5zM306.5 703q26.5 44 74.5 83h43q-37 -48 -54.5 -89.5t-15.5 -92.5h-73
q-1 55 25.5 99z" />
    <glyph glyph-name="Hcircumflex" unicode="&#x124;" horiz-adv-x="730" 
d="M178 707h74l-63 -318h403l62 318h73l-138 -707h-73l67 343h-402l-67 -343h-74zM453 884h67l96 -120h-44l-90 72l-125 -72h-47z" />
    <glyph glyph-name="hcircumflex" unicode="&#x125;" horiz-adv-x="569" 
d="M178 758h70l-67 -347q39 50 88.5 80t103.5 30q63 0 101 -39t38 -107q0 -27 -5 -50l-63 -325h-70l63 326q5 28 5 47q0 47 -22 72.5t-65 25.5q-92 0 -185 -115l-69 -356h-70zM214 935h67l96 -120h-44l-90 72l-125 -72h-47z" />
    <glyph glyph-name="Hbar" unicode="&#x126;" horiz-adv-x="730" 
d="M144 532h-89l6 39h91l26 136h73l-26 -136h402l26 136h74l-26 -136h88l-7 -39h-89l-104 -532h-74l68 343h-403l-67 -343h-73zM591 389l28 143h-402l-28 -143h402z" />
    <glyph glyph-name="hbar" unicode="&#x127;" horiz-adv-x="569" 
d="M152 622h-89l6 37h90l19 99h70l-19 -99h149l-6 -37h-150l-41 -211q39 50 88.5 80t103.5 30q63 0 101 -39t38 -107q0 -27 -5 -50l-63 -325h-70l63 326q5 28 5 47q0 47 -22 72.5t-65 25.5q-92 0 -185 -115l-69 -356h-70z" />
    <glyph glyph-name="Itilde" unicode="&#x128;" horiz-adv-x="254" 
d="M178 707h74l-138 -707h-74zM234 787l-23 16q-25 18 -45 18q-21 0 -34.5 -13.5t-15.5 -39.5h-36q2 46 28 75t64 29q30 0 64 -23l22 -16q25 -18 45 -18q21 0 34.5 13.5t15.5 39.5h36q-1 -46 -27 -75t-65 -29q-31 0 -63 23z" />
    <glyph glyph-name="itilde" unicode="&#x129;" horiz-adv-x="232" 
d="M130 513h71l-99 -513h-71zM197 647l-21 16q-11 9 -20 13.5t-20 4.5q-19 0 -30 -13.5t-12 -39.5h-35q-1 46 22.5 75t60.5 29q31 0 58 -23l20 -16q12 -9 21 -13.5t19 -4.5q18 0 29.5 14t11.5 39h36q1 -46 -22 -75t-60 -29q-29 0 -58 23z" />
    <glyph glyph-name="Imacron" unicode="&#x12a;" horiz-adv-x="254" 
d="M178 707h74l-138 -707h-74zM88 838h301l-10 -50h-301z" />
    <glyph glyph-name="imacron" unicode="&#x12b;" horiz-adv-x="232" 
d="M130 513h71l-99 -513h-71zM73 703h258l-9 -50h-258z" />
    <glyph glyph-name="Ibreve" unicode="&#x12c;" horiz-adv-x="254" 
d="M178 707h74l-138 -707h-74zM144 788q-33 30 -33 76q0 6 2 20h39q-3 -31 17.5 -50.5t63.5 -19.5q42 0 71 19t39 51h40q-8 -54 -51 -90t-102 -36q-53 0 -86 30z" />
    <glyph glyph-name="ibreve" unicode="&#x12d;" horiz-adv-x="232" 
d="M130 513h71l-99 -513h-71zM111.5 632.5q-30.5 34.5 -30.5 87.5q0 8 2 24h39q-3 -40 15.5 -65t57.5 -25t66.5 24.5t35.5 65.5h39q-7 -62 -47.5 -104t-96.5 -42q-50 0 -80.5 34.5z" />
    <glyph glyph-name="Iogonek" unicode="&#x12e;" horiz-adv-x="255" 
d="M-18.5 -209q-22.5 21 -22.5 56q0 42 30.5 81.5t80.5 71.5h-30l138 707h74l-138 -707q-46 -37 -69.5 -75.5t-23.5 -73.5q0 -44 41 -44q18 0 31 4l-7 -33q-20 -8 -44 -8q-38 0 -60.5 21z" />
    <glyph glyph-name="iogonek" unicode="&#x12f;" horiz-adv-x="232" 
d="M-33 -209q-22 21 -22 56q0 45 31 83.5t82 69.5h-27l99 513h71l-99 -513q-46 -37 -71 -75.5t-25 -73.5q0 -44 41 -44q17 0 30 4l-6 -33q-21 -8 -45 -8q-37 0 -59 21zM159.5 643.5q-12.5 12.5 -12.5 31.5q0 25 17 42t42 17q19 0 31.5 -12t12.5 -31q0 -25 -17 -42.5
t-42 -17.5q-19 0 -31.5 12.5z" />
    <glyph glyph-name="Idotaccent" unicode="&#x130;" horiz-adv-x="254" 
d="M178 707h74l-138 -707h-74zM195.5 779q-12.5 13 -12.5 32q0 24 17 41.5t42 17.5q19 0 31.5 -12.5t12.5 -31.5q0 -25 -17 -42.5t-42 -17.5q-19 0 -31.5 13z" />
    <glyph glyph-name="dotlessi" unicode="&#x131;" horiz-adv-x="232" 
d="M130 513h71l-99 -513h-71z" />
    <glyph glyph-name="IJ" unicode="&#x132;" horiz-adv-x="696" 
d="M178 707h74l-138 -707h-74zM255 32l7 40q51 -32 109 -32q129 0 160 162l97 505h74l-97 -508q-21 -105 -81.5 -156t-145.5 -51q-74 0 -123 40z" />
    <glyph glyph-name="ij" unicode="&#x133;" horiz-adv-x="459" 
d="M130 513h71l-99 -513h-71zM159.5 643.5q-12.5 12.5 -12.5 31.5q0 25 17 42t42 17q19 0 31.5 -12t12.5 -31q0 -25 -17 -42.5t-42 -17.5q-19 0 -31.5 12.5zM94 -208l7 36q24 -12 51 -12q35 0 57.5 22t31.5 72l117 603h71l-118 -608q-14 -67 -54 -101t-92 -34q-41 0 -71 22z
M386.5 643.5q-12.5 12.5 -12.5 31.5q0 25 17 42t42 17q19 0 31.5 -12t12.5 -31q0 -25 -17 -42.5t-42 -17.5q-19 0 -31.5 12.5z" />
    <glyph glyph-name="Jcircumflex" unicode="&#x134;" horiz-adv-x="442" 
d="M1 32l7 40q51 -32 109 -32q129 0 160 162l97 505h74l-97 -508q-21 -105 -81.5 -156t-145.5 -51q-74 0 -123 40zM411 884h67l96 -120h-44l-90 72l-125 -72h-47z" />
    <glyph glyph-name="jcircumflex" unicode="&#x135;" horiz-adv-x="227" 
d="M-138 -208l7 36q24 -12 51 -12q35 0 57.5 22t31.5 72l117 603h71l-118 -608q-14 -67 -54 -101t-92 -34q-41 0 -71 22zM173 744h66l84 -140h-41l-82 86l-119 -86h-47z" />
    <glyph glyph-name="uni0136" unicode="&#x136;" horiz-adv-x="621" 
d="M178 707h74l-73 -368l435 368h72l-366 -309q80 -78 139 -180.5t93 -217.5h-76q-55 198 -207 356l-103 -87l-52 -269h-74zM227.5 -150.5q18.5 45.5 17.5 96.5h72q4 -102 -104 -189h-41q37 47 55.5 92.5z" />
    <glyph glyph-name="uni0137" unicode="&#x137;" horiz-adv-x="515" 
d="M178 758h70l-98 -505l322 260h65l-266 -215q110 -117 174 -298h-74q-52 148 -151 259l-81 -65l-38 -194h-70zM162.5 -150.5q18.5 45.5 17.5 96.5h72q4 -102 -104 -189h-41q37 47 55.5 92.5z" />
    <glyph glyph-name="kgreenlandic" unicode="&#x138;" horiz-adv-x="515" 
d="M130 513h71l-53 -270l324 270h65l-262 -221q109 -117 170 -292h-74q-50 143 -146 253l-89 -71l-35 -182h-70z" />
    <glyph glyph-name="Lacute" unicode="&#x139;" horiz-adv-x="560" 
d="M178 707h74l-129 -660h344l-9 -47h-418zM304 884h101l-200 -120h-49z" />
    <glyph glyph-name="lacute" unicode="&#x13a;" horiz-adv-x="231" 
d="M178 758h70l-147 -758h-70zM305 935h101l-200 -120h-49z" />
    <glyph glyph-name="uni013B" unicode="&#x13b;" horiz-adv-x="560" 
d="M178 707h74l-129 -660h344l-9 -47h-418zM186.5 -150.5q18.5 45.5 17.5 96.5h72q4 -102 -104 -189h-41q37 47 55.5 92.5z" />
    <glyph glyph-name="uni013C" unicode="&#x13c;" horiz-adv-x="231" 
d="M178 758h70l-147 -758h-70zM2.5 -150.5q18.5 45.5 17.5 96.5h72q4 -102 -104 -189h-41q37 47 55.5 92.5z" />
    <glyph glyph-name="Lcaron" unicode="&#x13d;" horiz-adv-x="560" 
d="M178 707h74l-129 -660h344l-9 -47h-418zM378 707h69l-85 -195h-41z" />
    <glyph glyph-name="lcaron" unicode="&#x13e;" horiz-adv-x="322" 
d="M178 758h70l-147 -758h-70zM338 758h69l-85 -195h-41z" />
    <glyph glyph-name="Ldot" unicode="&#x13f;" horiz-adv-x="560" 
d="M178 707h74l-129 -660h344l-9 -47h-418zM390 318.5q-14 14.5 -14 36.5q0 25 17.5 41.5t42.5 16.5q22 0 36 -14.5t14 -36.5q0 -24 -17.5 -41t-41.5 -17q-23 0 -37 14.5z" />
    <glyph glyph-name="ldot" unicode="&#x140;" horiz-adv-x="379" 
d="M178 758h70l-147 -758h-70zM277 312.5q-14 14.5 -14 36.5q0 25 17.5 41.5t42.5 16.5q22 0 36 -14.5t14 -36.5q0 -24 -17.5 -41t-41.5 -17q-23 0 -37 14.5z" />
    <glyph glyph-name="Lslash" unicode="&#x141;" horiz-adv-x="560" 
d="M102 320l-126 -81l11 53l126 81l65 334h74l-58 -297l163 103l-10 -54l-164 -103l-60 -309h344l-9 -47h-418z" />
    <glyph glyph-name="lslash" unicode="&#x142;" horiz-adv-x="266" 
d="M116 348l-110 -70l9 49l110 71l70 360h70l-63 -325l110 70l-10 -49l-109 -70l-75 -384h-70z" />
    <glyph glyph-name="Nacute" unicode="&#x143;" horiz-adv-x="705" 
d="M178 707h59l299 -610l119 610h47l-138 -707h-58l-300 611l-119 -611h-47zM531 884h101l-200 -120h-49z" />
    <glyph glyph-name="nacute" unicode="&#x144;" horiz-adv-x="569" 
d="M130 513h67l-20 -107q38 52 89 83.5t107 31.5q63 0 101 -39t38 -107q0 -27 -5 -50l-63 -325h-70l63 326q5 28 5 47q0 47 -22 72.5t-65 25.5q-92 0 -185 -115l-69 -356h-70zM439 744h98l-192 -140h-47z" />
    <glyph glyph-name="uni0145" unicode="&#x145;" horiz-adv-x="705" 
d="M178 707h59l299 -610l119 610h47l-138 -707h-58l-300 611l-119 -611h-47zM239.5 -150.5q18.5 45.5 17.5 96.5h72q4 -102 -104 -189h-41q37 47 55.5 92.5z" />
    <glyph glyph-name="uni0146" unicode="&#x146;" horiz-adv-x="569" 
d="M130 513h67l-20 -107q38 52 89 83.5t107 31.5q63 0 101 -39t38 -107q0 -27 -5 -50l-63 -325h-70l63 326q5 28 5 47q0 47 -22 72.5t-65 25.5q-92 0 -185 -115l-69 -356h-70zM174.5 -150.5q18.5 45.5 17.5 96.5h72q4 -102 -104 -189h-41q37 47 55.5 92.5z" />
    <glyph glyph-name="Ncaron" unicode="&#x147;" horiz-adv-x="705" 
d="M178 707h59l299 -610l119 610h47l-138 -707h-58l-300 611l-119 -611h-47zM319 884h44l91 -72l125 72h47l-143 -120h-67z" />
    <glyph glyph-name="ncaron" unicode="&#x148;" horiz-adv-x="569" 
d="M130 513h67l-20 -107q38 52 89 83.5t107 31.5q63 0 101 -39t38 -107q0 -27 -5 -50l-63 -325h-70l63 326q5 28 5 47q0 47 -22 72.5t-65 25.5q-92 0 -185 -115l-69 -356h-70zM237 744h42l85 -88l123 88h48l-144 -140h-67z" />
    <glyph glyph-name="napostrophe" unicode="&#x149;" horiz-adv-x="575" 
d="M136 513h67l-20 -107q38 52 89 83.5t107 31.5q63 0 101 -39t38 -107q0 -27 -5 -50l-63 -325h-70l63 326q5 28 5 47q0 47 -22 72.5t-65 25.5q-92 0 -185 -115l-69 -356h-70zM113 758h69l-85 -195h-41z" />
    <glyph glyph-name="Eng" unicode="&#x14a;" horiz-adv-x="705" 
d="M320 -208l7 36q29 -12 64 -12q90 0 109 94l17 90h-14l-297 611l-119 -611h-47l138 707h59l299 -613l119 613h47l-157 -808q-12 -63 -51 -96t-93 -33q-46 0 -81 22z" />
    <glyph glyph-name="eng" unicode="&#x14b;" horiz-adv-x="569" 
d="M209 -208l7 36q24 -12 51 -12q35 0 57.5 22t31.5 72l81 417q5 28 5 46q0 47 -22 72.5t-65 25.5q-92 0 -185 -115l-69 -356h-70l99 513h67l-20 -108q38 52 89 84t107 32q62 0 100.5 -39t38.5 -106q0 -27 -5 -50l-81 -421q-14 -67 -54 -101t-92 -34q-40 0 -71 22z" />
    <glyph glyph-name="Omacron" unicode="&#x14c;" horiz-adv-x="770" 
d="M207.5 30q-63.5 38 -98.5 106.5t-35 156.5q0 112 50.5 209.5t137.5 155t193 57.5q82 0 145 -38t98.5 -106.5t35.5 -156.5q0 -112 -50.5 -209.5t-138 -155t-193.5 -57.5q-81 0 -144.5 38zM178 159q25 -60 70.5 -93t105.5 -33q82 0 150.5 52.5t109 139.5t40.5 187
q0 77 -24.5 136.5t-70 92.5t-105.5 33q-82 0 -151 -52t-109.5 -139t-40.5 -187q0 -77 25 -137zM347 838h301l-10 -50h-301z" />
    <glyph glyph-name="omacron" unicode="&#x14d;" horiz-adv-x="575" 
d="M142 20q-48 28 -75 78.5t-27 116.5q0 82 37 152t102 112t144 42q62 0 110 -28t75 -78.5t27 -116.5q0 -82 -37 -152t-102 -112t-144 -42q-62 0 -110 28zM151.5 83q37.5 -50 101.5 -50q58 0 105 36t74.5 96.5t27.5 130.5q0 84 -37.5 134t-101.5 50q-57 0 -104.5 -36
t-75 -96.5t-27.5 -130.5q0 -84 37.5 -134zM231 703h286l-10 -50h-286z" />
    <glyph glyph-name="Obreve" unicode="&#x14e;" horiz-adv-x="770" 
d="M207.5 30q-63.5 38 -98.5 106.5t-35 156.5q0 112 50.5 209.5t137.5 155t193 57.5q82 0 145 -38t98.5 -106.5t35.5 -156.5q0 -112 -50.5 -209.5t-138 -155t-193.5 -57.5q-81 0 -144.5 38zM178 159q25 -60 70.5 -93t105.5 -33q82 0 150.5 52.5t109 139.5t40.5 187
q0 77 -24.5 136.5t-70 92.5t-105.5 33q-82 0 -151 -52t-109.5 -139t-40.5 -187q0 -77 25 -137zM403 788q-33 30 -33 76q0 6 2 20h39q-3 -31 17.5 -50.5t63.5 -19.5q42 0 71 19t39 51h40q-8 -54 -51 -90t-102 -36q-53 0 -86 30z" />
    <glyph glyph-name="obreve" unicode="&#x14f;" horiz-adv-x="575" 
d="M142 20q-48 28 -75 78.5t-27 116.5q0 82 37 152t102 112t144 42q62 0 110 -28t75 -78.5t27 -116.5q0 -82 -37 -152t-102 -112t-144 -42q-62 0 -110 28zM151.5 83q37.5 -50 101.5 -50q58 0 105 36t74.5 96.5t27.5 130.5q0 84 -37.5 134t-101.5 50q-57 0 -104.5 -36
t-75 -96.5t-27.5 -130.5q0 -84 37.5 -134zM280 632.5q-32 34.5 -32 88.5q0 7 2 23h39q-3 -40 17 -65t61 -25q40 0 69 24.5t38 65.5h39q-7 -62 -49 -104t-100 -42q-52 0 -84 34.5z" />
    <glyph glyph-name="Ohungarumlaut" unicode="&#x150;" horiz-adv-x="770" 
d="M207.5 30q-63.5 38 -98.5 106.5t-35 156.5q0 112 50.5 209.5t137.5 155t193 57.5q82 0 145 -38t98.5 -106.5t35.5 -156.5q0 -112 -50.5 -209.5t-138 -155t-193.5 -57.5q-81 0 -144.5 38zM178 159q25 -60 70.5 -93t105.5 -33q82 0 150.5 52.5t109 139.5t40.5 187
q0 77 -24.5 136.5t-70 92.5t-105.5 33q-82 0 -151 -52t-109.5 -139t-40.5 -187q0 -77 25 -137zM626 884h80l-139 -120h-40zM468 884h80l-139 -120h-40z" />
    <glyph glyph-name="ohungarumlaut" unicode="&#x151;" horiz-adv-x="575" 
d="M142 20q-48 28 -75 78.5t-27 116.5q0 82 37 152t102 112t144 42q62 0 110 -28t75 -78.5t27 -116.5q0 -82 -37 -152t-102 -112t-144 -42q-62 0 -110 28zM151.5 83q37.5 -50 101.5 -50q58 0 105 36t74.5 96.5t27.5 130.5q0 84 -37.5 134t-101.5 50q-57 0 -104.5 -36
t-75 -96.5t-27.5 -130.5q0 -84 37.5 -134zM499 744h80l-137 -140h-43zM343 744h80l-137 -140h-43z" />
    <glyph glyph-name="OE" unicode="&#x152;" horiz-adv-x="1121" 
d="M208.5 30q-63.5 38 -99 106.5t-35.5 156.5q0 113 49.5 210t135.5 154.5t191 57.5q82 0 143.5 -45t90.5 -124l32 161h420l-9 -47h-347l-53 -271h311l-10 -46h-310l-58 -296h358l-9 -47h-431l21 110q-48 -57 -111 -87.5t-134 -30.5q-82 0 -145.5 38zM178 158.5
q25 -59.5 71 -92.5t107 -33q66 0 125.5 37t101 102.5t57.5 148.5q9 45 9 92q0 70 -21.5 129.5t-66.5 95.5t-113 36q-80 0 -148 -52t-107.5 -139t-39.5 -187q0 -78 25 -137.5z" />
    <glyph glyph-name="oe" unicode="&#x153;" horiz-adv-x="959" 
d="M142 20q-48 28 -75 78.5t-27 116.5q0 82 37 152t102 112t144 42q67 0 117 -35.5t71 -96.5q38 61 97 96.5t131 35.5q57 0 100 -24.5t66.5 -67t23.5 -95.5q0 -31 -10 -66h-385q-4 -23 -4 -51q0 -78 37.5 -131t115.5 -53q60 0 107.5 33t68.5 97h41q-23 -78 -84.5 -124.5
t-143.5 -46.5q-70 0 -121 36t-71 98q-37 -62 -97 -98t-131 -36q-62 0 -110 28zM151.5 83q37.5 -50 101.5 -50q58 0 105 36t74.5 96.5t27.5 130.5q0 84 -37.5 134t-101.5 50q-57 0 -104.5 -36t-75 -96.5t-27.5 -130.5q0 -84 37.5 -134zM856 307q3 17 3 34q0 57 -31.5 98
t-91.5 41q-67 0 -120 -48.5t-74 -124.5h314z" />
    <glyph glyph-name="Racute" unicode="&#x154;" horiz-adv-x="605" 
d="M178 707h214q99 0 156 -47t57 -126q0 -59 -31.5 -107t-85.5 -77t-120 -35q53 -65 92.5 -146t61.5 -169h-76q-21 86 -64 168.5t-96 144.5h-111l-61 -313h-73zM335 358q53 0 97.5 21.5t70.5 61t26 90.5q0 62 -39 96t-111 34h-136l-59 -303h151zM478 884h101l-200 -120h-49z
" />
    <glyph glyph-name="racute" unicode="&#x155;" horiz-adv-x="374" 
d="M130 513h67l-23 -118q92 126 189 126q28 0 51 -10l-13 -64q-20 7 -47 7q-53 0 -97.5 -27t-88.5 -81l-67 -346h-71zM356 744h98l-192 -140h-47z" />
    <glyph glyph-name="uni0156" unicode="&#x156;" horiz-adv-x="605" 
d="M178 707h214q99 0 156 -47t57 -126q0 -59 -31.5 -107t-85.5 -77t-120 -35q53 -65 92.5 -146t61.5 -169h-76q-21 86 -64 168.5t-96 144.5h-111l-61 -313h-73zM335 358q53 0 97.5 21.5t70.5 61t26 90.5q0 62 -39 96t-111 34h-136l-59 -303h151zM213.5 -150.5
q18.5 45.5 17.5 96.5h72q4 -102 -104 -189h-41q37 47 55.5 92.5z" />
    <glyph glyph-name="uni0157" unicode="&#x157;" horiz-adv-x="374" 
d="M130 513h67l-23 -118q92 126 189 126q28 0 51 -10l-13 -64q-20 7 -47 7q-53 0 -97.5 -27t-88.5 -81l-67 -346h-71zM2.5 -150.5q18.5 45.5 17.5 96.5h72q4 -102 -104 -189h-41q37 47 55.5 92.5z" />
    <glyph glyph-name="Rcaron" unicode="&#x158;" horiz-adv-x="605" 
d="M178 707h214q99 0 156 -47t57 -126q0 -59 -31.5 -107t-85.5 -77t-120 -35q53 -65 92.5 -146t61.5 -169h-76q-21 86 -64 168.5t-96 144.5h-111l-61 -313h-73zM335 358q53 0 97.5 21.5t70.5 61t26 90.5q0 62 -39 96t-111 34h-136l-59 -303h151zM267 884h44l91 -72l125 72
h47l-143 -120h-67z" />
    <glyph glyph-name="rcaron" unicode="&#x159;" horiz-adv-x="374" 
d="M130 513h67l-23 -118q92 126 189 126q28 0 51 -10l-13 -64q-20 7 -47 7q-53 0 -97.5 -27t-88.5 -81l-67 -346h-71zM153 744h42l85 -88l123 88h48l-144 -140h-67z" />
    <glyph glyph-name="Sacute" unicode="&#x15a;" horiz-adv-x="594" 
d="M40 65l28 140h41q-5 -30 -5 -50q0 -65 42 -93.5t126 -28.5q82 0 133 43t51 117q0 46 -27 74.5t-84 49.5l-82 30q-67 25 -103 64t-36 102q0 59 31 105t86.5 71.5t126.5 25.5q59 0 112 -15t93 -43l-25 -133h-42q5 28 5 47q0 55 -34.5 79t-109.5 24q-78 0 -127.5 -40
t-49.5 -105q0 -43 24.5 -69.5t75.5 -45.5l82 -31q75 -28 113 -67t38 -107q0 -66 -32.5 -115t-90 -75.5t-131.5 -26.5q-137 0 -229 73zM473 884h101l-200 -120h-49z" />
    <glyph glyph-name="sacute" unicode="&#x15b;" horiz-adv-x="447" 
d="M101.5 6.5q-44.5 14.5 -79.5 44.5l19 99h39q-3 -18 -3 -32q0 -88 119 -88q55 0 91 29.5t36 76.5q0 31 -18.5 50.5t-56.5 31.5l-66 21q-102 33 -102 125q0 46 23.5 81.5t65 55.5t95.5 20q87 0 154 -48l-19 -95h-38q3 17 3 30q0 40 -26 57.5t-77 17.5q-54 0 -88 -28
t-34 -72q0 -29 16 -47t49 -29l67 -22q54 -18 82 -48t28 -82q0 -74 -52.5 -118.5t-134.5 -44.5q-48 0 -92.5 14.5zM367 744h98l-192 -140h-47z" />
    <glyph glyph-name="Scircumflex" unicode="&#x15c;" horiz-adv-x="594" 
d="M40 65l28 140h41q-5 -30 -5 -50q0 -65 42 -93.5t126 -28.5q82 0 133 43t51 117q0 46 -27 74.5t-84 49.5l-82 30q-67 25 -103 64t-36 102q0 59 31 105t86.5 71.5t126.5 25.5q59 0 112 -15t93 -43l-25 -133h-42q5 28 5 47q0 55 -34.5 79t-109.5 24q-78 0 -127.5 -40
t-49.5 -105q0 -43 24.5 -69.5t75.5 -45.5l82 -31q75 -28 113 -67t38 -107q0 -66 -32.5 -115t-90 -75.5t-131.5 -26.5q-137 0 -229 73zM382 884h67l96 -120h-44l-90 72l-125 -72h-47z" />
    <glyph glyph-name="scircumflex" unicode="&#x15d;" horiz-adv-x="447" 
d="M101.5 6.5q-44.5 14.5 -79.5 44.5l19 99h39q-3 -18 -3 -32q0 -88 119 -88q55 0 91 29.5t36 76.5q0 31 -18.5 50.5t-56.5 31.5l-66 21q-102 33 -102 125q0 46 23.5 81.5t65 55.5t95.5 20q87 0 154 -48l-19 -95h-38q3 17 3 30q0 40 -26 57.5t-77 17.5q-54 0 -88 -28
t-34 -72q0 -29 16 -47t49 -29l67 -22q54 -18 82 -48t28 -82q0 -74 -52.5 -118.5t-134.5 -44.5q-48 0 -92.5 14.5zM281 744h66l88 -140h-42l-86 88l-123 -88h-47z" />
    <glyph glyph-name="Scedilla" unicode="&#x15e;" horiz-adv-x="594" 
d="M256 -8l-14 -41q35 -1 59.5 -19.5t24.5 -49.5q0 -36 -33 -61t-81 -25t-88 27l6 35q37 -19 74 -19q29 0 45.5 11.5t16.5 32.5q0 18 -13 28t-37 10h-14l24 73q-110 9 -186 71l28 140h41q-5 -30 -5 -50q0 -65 42 -93.5t126 -28.5q82 0 133 43t51 117q0 46 -27 74.5t-84 49.5
l-82 30q-67 25 -103 64t-36 102q0 59 31 105t86.5 71.5t126.5 25.5q59 0 112 -15t93 -43l-25 -133h-42q5 28 5 47q0 55 -34.5 79t-109.5 24q-78 0 -127.5 -40t-49.5 -105q0 -43 24.5 -69.5t75.5 -45.5l82 -31q75 -28 113 -67t38 -107q0 -66 -32.5 -115t-90 -75.5
t-131.5 -26.5h-13z" />
    <glyph glyph-name="scedilla" unicode="&#x15f;" horiz-adv-x="447" 
d="M186 -8l-14 -41q35 -1 59.5 -19.5t24.5 -49.5q0 -36 -33 -61t-81 -25t-88 27l6 35q37 -19 74 -19q29 0 45.5 11.5t16.5 32.5q0 18 -13 28t-37 10h-14l24 73q-80 10 -134 57l19 99h39q-3 -18 -3 -32q0 -88 119 -88q55 0 91 29.5t36 76.5q0 31 -18.5 50.5t-56.5 31.5
l-66 21q-102 33 -102 125q0 46 23.5 81.5t65 55.5t95.5 20q87 0 154 -48l-19 -95h-38q3 17 3 30q0 40 -26 57.5t-77 17.5q-54 0 -88 -28t-34 -72q0 -29 16 -47t49 -29l67 -22q54 -18 82 -48t28 -82q0 -74 -52.5 -118.5t-134.5 -44.5h-8z" />
    <glyph glyph-name="Scaron" unicode="&#x160;" horiz-adv-x="594" 
d="M40 65l28 140h41q-5 -30 -5 -50q0 -65 42 -93.5t126 -28.5q82 0 133 43t51 117q0 46 -27 74.5t-84 49.5l-82 30q-67 25 -103 64t-36 102q0 59 31 105t86.5 71.5t126.5 25.5q59 0 112 -15t93 -43l-25 -133h-42q5 28 5 47q0 55 -34.5 79t-109.5 24q-78 0 -127.5 -40
t-49.5 -105q0 -43 24.5 -69.5t75.5 -45.5l82 -31q75 -28 113 -67t38 -107q0 -66 -32.5 -115t-90 -75.5t-131.5 -26.5q-137 0 -229 73zM262 884h44l91 -72l125 72h47l-143 -120h-67z" />
    <glyph glyph-name="scaron" unicode="&#x161;" horiz-adv-x="447" 
d="M101.5 6.5q-44.5 14.5 -79.5 44.5l19 99h39q-3 -18 -3 -32q0 -88 119 -88q55 0 91 29.5t36 76.5q0 31 -18.5 50.5t-56.5 31.5l-66 21q-102 33 -102 125q0 46 23.5 81.5t65 55.5t95.5 20q87 0 154 -48l-19 -95h-38q3 17 3 30q0 40 -26 57.5t-77 17.5q-54 0 -88 -28
t-34 -72q0 -29 16 -47t49 -29l67 -22q54 -18 82 -48t28 -82q0 -74 -52.5 -118.5t-134.5 -44.5q-48 0 -92.5 14.5zM165 744h42l85 -88l123 88h48l-144 -140h-67z" />
    <glyph glyph-name="uni0162" unicode="&#x162;" horiz-adv-x="640" 
d="M193.5 -197q-23.5 7 -42.5 20l7 35q35 -19 74 -19q29 0 45.5 11.5t16.5 32.5q0 19 -13.5 28.5t-37.5 9.5h-14l26 79h-21l127 660h-259l9 47h593l-9 -47h-261l-127 -660h-21l-16 -49q35 -1 59.5 -19.5t24.5 -49.5q0 -36 -33.5 -61t-80.5 -25q-23 0 -46.5 7z" />
    <glyph glyph-name="uni0163" unicode="&#x163;" horiz-adv-x="393" 
d="M120.5 -197q-23.5 7 -42.5 20l7 35q35 -19 74 -19q29 0 45.5 11.5t16.5 32.5q0 19 -13.5 28.5t-37.5 9.5h-14l26 77q-38 11 -59 40.5t-21 75.5q0 22 4 42l61 315h-103l8 42h103l25 125h70l-24 -125h167l-8 -42h-167l-63 -325q-3 -18 -3 -34q0 -72 73 -72q43 0 87 19
l-8 -43q-48 -24 -97 -24q-11 0 -16 1l-14 -42q35 -1 59.5 -19.5t24.5 -49.5q0 -36 -33.5 -61t-80.5 -25q-23 0 -46.5 7z" />
    <glyph glyph-name="Tcaron" unicode="&#x164;" horiz-adv-x="640" 
d="M361 660h-259l9 47h593l-9 -47h-261l-127 -660h-73zM288 884h44l91 -72l125 72h47l-143 -120h-67z" />
    <glyph glyph-name="tcaron" unicode="&#x165;" horiz-adv-x="393" 
d="M136 23.5q-34 31.5 -34 89.5q0 23 4 43l61 315h-103l8 42h103l25 125h70l-24 -125h167l-8 -42h-167l-63 -325q-3 -18 -3 -34q0 -72 73 -72q43 0 87 19l-8 -43q-48 -24 -97 -24q-57 0 -91 31.5zM383 758h69l-85 -195h-41z" />
    <glyph glyph-name="Tbar" unicode="&#x166;" horiz-adv-x="640" 
d="M298 335h-139l8 39h139l55 286h-259l9 47h593l-9 -47h-261l-55 -286h143l-8 -39h-143l-64 -335h-73z" />
    <glyph glyph-name="tbar" unicode="&#x167;" horiz-adv-x="393" 
d="M136 23.5q-34 31.5 -34 89.5q0 23 4 43l22 117h-103l8 37h103l31 161h-103l8 42h103l25 125h70l-24 -125h167l-8 -42h-167l-31 -161h166l-7 -37h-166l-25 -127q-3 -18 -3 -34q0 -72 73 -72q43 0 87 19l-8 -43q-48 -24 -97 -24q-57 0 -91 31.5z" />
    <glyph glyph-name="Utilde" unicode="&#x168;" horiz-adv-x="700" 
d="M196.5 20.5q-53.5 28.5 -84 82t-30.5 126.5q0 37 7 72l79 406h73l-80 -415q-7 -36 -7 -71q0 -89 46.5 -137.5t122.5 -48.5q91 0 162 67t96 196l79 409h47l-79 -409q-29 -149 -111.5 -227.5t-198.5 -78.5q-68 0 -121.5 28.5zM464 787l-23 16q-25 18 -45 18
q-21 0 -34.5 -13.5t-15.5 -39.5h-36q2 46 28 75t64 29q30 0 64 -23l22 -16q25 -18 45 -18q21 0 34.5 13.5t15.5 39.5h36q-1 -46 -27 -75t-65 -29q-31 0 -63 23z" />
    <glyph glyph-name="utilde" unicode="&#x169;" horiz-adv-x="557" 
d="M111 35q-48 43 -48 125q0 28 6 61l56 292h71l-61 -311q-5 -24 -5 -52q0 -57 30 -87t83 -30q61 0 100.5 38t53.5 112l64 330h71l-62 -317q-19 -101 -78 -152.5t-153 -51.5q-80 0 -128 43zM361 647l-23 16q-25 18 -45 18q-21 0 -34.5 -13.5t-15.5 -39.5h-36q2 46 28 75
t64 29q30 0 64 -23l22 -16q25 -18 45 -18q21 0 34.5 13.5t15.5 39.5h36q-1 -46 -27 -75t-65 -29q-31 0 -63 23z" />
    <glyph glyph-name="Umacron" unicode="&#x16a;" horiz-adv-x="700" 
d="M196.5 20.5q-53.5 28.5 -84 82t-30.5 126.5q0 37 7 72l79 406h73l-80 -415q-7 -36 -7 -71q0 -89 46.5 -137.5t122.5 -48.5q91 0 162 67t96 196l79 409h47l-79 -409q-29 -149 -111.5 -227.5t-198.5 -78.5q-68 0 -121.5 28.5zM318 838h301l-10 -50h-301z" />
    <glyph glyph-name="umacron" unicode="&#x16b;" horiz-adv-x="557" 
d="M111 35q-48 43 -48 125q0 28 6 61l56 292h71l-61 -311q-5 -24 -5 -52q0 -57 30 -87t83 -30q61 0 100.5 38t53.5 112l64 330h71l-62 -317q-19 -101 -78 -152.5t-153 -51.5q-80 0 -128 43zM224 703h286l-10 -50h-286z" />
    <glyph glyph-name="Ubreve" unicode="&#x16c;" horiz-adv-x="700" 
d="M196.5 20.5q-53.5 28.5 -84 82t-30.5 126.5q0 37 7 72l79 406h73l-80 -415q-7 -36 -7 -71q0 -89 46.5 -137.5t122.5 -48.5q91 0 162 67t96 196l79 409h47l-79 -409q-29 -149 -111.5 -227.5t-198.5 -78.5q-68 0 -121.5 28.5zM374 788q-33 30 -33 76q0 6 2 20h39
q-3 -31 17.5 -50.5t63.5 -19.5q42 0 71 19t39 51h40q-8 -54 -51 -90t-102 -36q-53 0 -86 30z" />
    <glyph glyph-name="ubreve" unicode="&#x16d;" horiz-adv-x="557" 
d="M111 35q-48 43 -48 125q0 28 6 61l56 292h71l-61 -311q-5 -24 -5 -52q0 -57 30 -87t83 -30q61 0 100.5 38t53.5 112l64 330h71l-62 -317q-19 -101 -78 -152.5t-153 -51.5q-80 0 -128 43zM272 632.5q-32 34.5 -32 88.5q0 7 2 23h39q-3 -40 17 -65t61 -25q40 0 69 24.5
t38 65.5h39q-7 -62 -49 -104t-100 -42q-52 0 -84 34.5z" />
    <glyph glyph-name="Uring" unicode="&#x16e;" horiz-adv-x="700" 
d="M196.5 20.5q-53.5 28.5 -84 82t-30.5 126.5q0 37 7 72l79 406h73l-80 -415q-7 -36 -7 -71q0 -89 46.5 -137.5t122.5 -48.5q91 0 162 67t96 196l79 409h47l-79 -409q-29 -149 -111.5 -227.5t-198.5 -78.5q-68 0 -121.5 28.5zM381 759.5q-29 28.5 -29 72.5q0 34 18 62.5
t48 45t64 16.5q46 0 75.5 -28.5t29.5 -72.5q0 -35 -18 -63t-48 -44.5t-65 -16.5q-46 0 -75 28.5zM425 781q12 -16 32 -16q30 0 49.5 28t19.5 68q0 28 -12 44t-33 16q-29 0 -48.5 -28t-19.5 -68q0 -28 12 -44z" />
    <glyph glyph-name="uring" unicode="&#x16f;" horiz-adv-x="557" 
d="M111 35q-48 43 -48 125q0 28 6 61l56 292h71l-61 -311q-5 -24 -5 -52q0 -57 30 -87t83 -30q61 0 100.5 38t53.5 112l64 330h71l-62 -317q-19 -101 -78 -152.5t-153 -51.5q-80 0 -128 43zM280.5 604q-27.5 27 -27.5 68q0 49 36 83t86 34q44 0 71.5 -26.5t27.5 -68.5
q0 -49 -36.5 -83t-86.5 -34q-43 0 -70.5 27zM321 624q11 -15 31 -15q27 0 46 27t19 64q0 27 -11.5 42t-31.5 15q-27 0 -45.5 -27t-18.5 -64q0 -27 11 -42z" />
    <glyph glyph-name="Uhungarumlaut" unicode="&#x170;" horiz-adv-x="700" 
d="M196.5 20.5q-53.5 28.5 -84 82t-30.5 126.5q0 37 7 72l79 406h73l-80 -415q-7 -36 -7 -71q0 -89 46.5 -137.5t122.5 -48.5q91 0 162 67t96 196l79 409h47l-79 -409q-29 -149 -111.5 -227.5t-198.5 -78.5q-68 0 -121.5 28.5zM597 884h80l-139 -120h-40zM439 884h80
l-139 -120h-40z" />
    <glyph glyph-name="uhungarumlaut" unicode="&#x171;" horiz-adv-x="557" 
d="M111 35q-48 43 -48 125q0 28 6 61l56 292h71l-61 -311q-5 -24 -5 -52q0 -57 30 -87t83 -30q61 0 100.5 38t53.5 112l64 330h71l-62 -317q-19 -101 -78 -152.5t-153 -51.5q-80 0 -128 43zM492 744h80l-137 -140h-43zM336 744h80l-137 -140h-43z" />
    <glyph glyph-name="Uogonek" unicode="&#x172;" horiz-adv-x="700" 
d="M223.5 -209q-22.5 21 -22.5 56q0 39 31.5 76.5t84.5 68.5q-70 2 -123 30.5t-82.5 81t-29.5 124.5q0 37 7 73l79 406h73l-80 -415q-7 -36 -7 -71q0 -89 46.5 -137.5t122.5 -48.5q91 0 162 67t96 196l79 409h47l-79 -409q-26 -132 -94.5 -209t-164.5 -93q-52 -37 -79.5 -74
t-27.5 -71q0 -44 43 -44q18 0 31 4l-7 -33q-20 -8 -44 -8q-39 0 -61.5 21z" />
    <glyph glyph-name="uogonek" unicode="&#x173;" horiz-adv-x="557" 
d="M153.5 -209q-22.5 21 -22.5 56q0 40 31 77t85 68q-85 -2 -135 41t-50 126q0 24 7 62l56 292h71l-61 -311q-5 -24 -5 -52q0 -57 30 -87t83 -30q61 0 100.5 38t53.5 112l64 330h71l-62 -317q-16 -82 -58.5 -132t-108.5 -65q-55 -37 -83 -75t-28 -73q0 -44 43 -44q18 0 31 4
l-7 -33q-20 -8 -44 -8q-39 0 -61.5 21z" />
    <glyph glyph-name="Wcircumflex" unicode="&#x174;" horiz-adv-x="955" 
d="M116 707h74l56 -617l293 617h71l55 -625l295 625h54l-338 -707h-70l-58 617l-293 -617h-69zM578 884h67l96 -120h-44l-90 72l-125 -72h-47z" />
    <glyph glyph-name="wcircumflex" unicode="&#x175;" horiz-adv-x="721" 
d="M73 513h72l37 -434l207 434h67l38 -439l207 439h48l-245 -513h-67l-39 435l-206 -435h-68zM438 744h66l88 -140h-42l-86 88l-123 -88h-47z" />
    <glyph glyph-name="Ycircumflex" unicode="&#x176;" horiz-adv-x="625" 
d="M281 268l-177 439h75l154 -393l303 393h60l-342 -438l-51 -269h-73zM409 884h67l96 -120h-44l-90 72l-125 -72h-47z" />
    <glyph glyph-name="ycircumflex" unicode="&#x177;" horiz-adv-x="487" 
d="M179 8l-112 505h72l91 -419l239 419h51l-426 -735h-51zM312 744h66l88 -140h-42l-86 88l-123 -88h-47z" />
    <glyph glyph-name="Ydieresis" unicode="&#x178;" horiz-adv-x="625" 
d="M281 268l-177 439h75l154 -393l303 393h60l-342 -438l-51 -269h-73zM493 781q-12 12 -12 30q0 24 16 40t40 16q18 0 30 -11.5t12 -29.5q0 -23 -16.5 -40t-39.5 -17q-18 0 -30 12zM298 851q16 16 40 16q18 0 30 -11.5t12 -29.5q0 -23 -16.5 -40t-39.5 -17q-18 0 -30 12
t-12 30q0 24 16 40z" />
    <glyph glyph-name="Zacute" unicode="&#x179;" horiz-adv-x="599" 
d="M127 69l-59 -69h-68l6 33l523 629h-390l9 45h486l-8 -42l-466 -561q42 -34 90 -50t109 -16q91 0 161 38l-9 -48q-65 -36 -156 -36q-138 0 -228 77zM478 884h101l-200 -120h-49z" />
    <glyph glyph-name="zacute" unicode="&#x17a;" horiz-adv-x="468" 
d="M175.5 6.5q-44.5 14.5 -80.5 41.5l-41 -48h-62l5 28l375 443h-280l8 42h370l-6 -34l-338 -399q63 -46 144 -46q67 0 122 29l-8 -44q-48 -27 -117 -27q-47 0 -91.5 14.5zM382 744h98l-192 -140h-47z" />
    <glyph glyph-name="Zdotaccent" unicode="&#x17b;" horiz-adv-x="599" 
d="M127 69l-59 -69h-68l6 33l523 629h-390l9 45h486l-8 -42l-466 -561q42 -34 90 -50t109 -16q91 0 161 38l-9 -48q-65 -36 -156 -36q-138 0 -228 77zM368.5 779q-12.5 13 -12.5 32q0 24 17 41.5t42 17.5q19 0 31.5 -12.5t12.5 -31.5q0 -25 -17 -42.5t-42 -17.5
q-19 0 -31.5 13z" />
    <glyph glyph-name="zdotaccent" unicode="&#x17c;" horiz-adv-x="468" 
d="M175.5 6.5q-44.5 14.5 -80.5 41.5l-41 -48h-62l5 28l375 443h-280l8 42h370l-6 -34l-338 -399q63 -46 144 -46q67 0 122 29l-8 -44q-48 -27 -117 -27q-47 0 -91.5 14.5zM277.5 643.5q-12.5 12.5 -12.5 31.5q0 25 17 42t42 17q19 0 31.5 -12t12.5 -31q0 -25 -17 -42.5
t-42 -17.5q-19 0 -31.5 12.5z" />
    <glyph glyph-name="Zcaron" unicode="&#x17d;" horiz-adv-x="599" 
d="M127 69l-59 -69h-68l6 33l523 629h-390l9 45h486l-8 -42l-466 -561q42 -34 90 -50t109 -16q91 0 161 38l-9 -48q-65 -36 -156 -36q-138 0 -228 77zM267 884h44l91 -72l125 72h47l-143 -120h-67z" />
    <glyph glyph-name="zcaron" unicode="&#x17e;" horiz-adv-x="468" 
d="M175.5 6.5q-44.5 14.5 -80.5 41.5l-41 -48h-62l5 28l375 443h-280l8 42h370l-6 -34l-338 -399q63 -46 144 -46q67 0 122 29l-8 -44q-48 -27 -117 -27q-47 0 -91.5 14.5zM180 744h42l85 -88l123 88h48l-144 -140h-67z" />
    <glyph glyph-name="florin" unicode="&#x192;" horiz-adv-x="590" 
d="M-63 -137l7 37q30 -11 60 -11q56 0 88.5 33.5t55.5 103.5l127 394h-111l8 43h118l47 145q26 79 71 118.5t115 39.5q60 0 102 -33l-20 -105h-38q5 30 5 45q0 29 -12.5 42t-39.5 13q-41 0 -66.5 -31t-45.5 -91l-46 -143h155l-9 -43h-160l-131 -404q-55 -169 -205 -169
q-43 0 -75 16z" />
    <glyph glyph-name="uni0218" unicode="&#x218;" horiz-adv-x="594" 
d="M40 65l28 140h41q-5 -30 -5 -50q0 -65 42 -93.5t126 -28.5q82 0 133 43t51 117q0 46 -27 74.5t-84 49.5l-82 30q-67 25 -103 64t-36 102q0 59 31 105t86.5 71.5t126.5 25.5q59 0 112 -15t93 -43l-25 -133h-42q5 28 5 47q0 55 -34.5 79t-109.5 24q-78 0 -127.5 -40
t-49.5 -105q0 -43 24.5 -69.5t75.5 -45.5l82 -31q75 -28 113 -67t38 -107q0 -66 -32.5 -115t-90 -75.5t-131.5 -26.5q-137 0 -229 73zM180.5 -150.5q18.5 45.5 17.5 96.5h72q4 -102 -104 -189h-41q37 47 55.5 92.5z" />
    <glyph glyph-name="uni0219" unicode="&#x219;" horiz-adv-x="447" 
d="M101.5 6.5q-44.5 14.5 -79.5 44.5l19 99h39q-3 -18 -3 -32q0 -88 119 -88q55 0 91 29.5t36 76.5q0 31 -18.5 50.5t-56.5 31.5l-66 21q-102 33 -102 125q0 46 23.5 81.5t65 55.5t95.5 20q87 0 154 -48l-19 -95h-38q3 17 3 30q0 40 -26 57.5t-77 17.5q-54 0 -88 -28
t-34 -72q0 -29 16 -47t49 -29l67 -22q54 -18 82 -48t28 -82q0 -74 -52.5 -118.5t-134.5 -44.5q-48 0 -92.5 14.5zM110.5 -150.5q18.5 45.5 17.5 96.5h72q4 -102 -104 -189h-41q37 47 55.5 92.5z" />
    <glyph glyph-name="uni021A" unicode="&#x21a;" horiz-adv-x="640" 
d="M361 660h-259l9 47h593l-9 -47h-261l-127 -660h-73zM207.5 -150.5q18.5 45.5 17.5 96.5h72q4 -102 -104 -189h-41q37 47 55.5 92.5z" />
    <glyph glyph-name="uni021B" unicode="&#x21b;" horiz-adv-x="393" 
d="M136 23.5q-34 31.5 -34 89.5q0 23 4 43l61 315h-103l8 42h103l25 125h70l-24 -125h167l-8 -42h-167l-63 -325q-3 -18 -3 -34q0 -72 73 -72q43 0 87 19l-8 -43q-48 -24 -97 -24q-57 0 -91 31.5zM134.5 -150.5q18.5 45.5 17.5 96.5h72q4 -102 -104 -189h-41
q37 47 55.5 92.5z" />
    <glyph glyph-name="uni0237" unicode="&#x237;" horiz-adv-x="227" 
d="M-138 -208l7 36q24 -12 51 -12q35 0 57.5 22t31.5 72l117 603h71l-118 -608q-14 -67 -54 -101t-92 -34q-41 0 -71 22z" />
    <glyph glyph-name="circumflex" unicode="&#x2c6;" horiz-adv-x="398" 
d="M262 744h66l88 -140h-42l-86 88l-123 -88h-47z" />
    <glyph glyph-name="caron" unicode="&#x2c7;" horiz-adv-x="398" 
d="M145 744h42l85 -88l123 88h48l-144 -140h-67z" />
    <glyph glyph-name="breve" unicode="&#x2d8;" horiz-adv-x="364" 
d="M175 632.5q-32 34.5 -32 88.5q0 7 2 23h39q-3 -40 17 -65t61 -25q40 0 69 24.5t38 65.5h39q-7 -62 -49 -104t-100 -42q-52 0 -84 34.5z" />
    <glyph glyph-name="dotaccent" unicode="&#x2d9;" horiz-adv-x="203" 
d="M145.5 643.5q-12.5 12.5 -12.5 31.5q0 25 17 42t42 17q19 0 31.5 -12t12.5 -31q0 -25 -17 -42.5t-42 -17.5q-19 0 -31.5 12.5z" />
    <glyph glyph-name="ring" unicode="&#x2da;" horiz-adv-x="321" 
d="M160.5 604q-27.5 27 -27.5 68q0 49 36 83t86 34q44 0 71.5 -26.5t27.5 -68.5q0 -49 -36.5 -83t-86.5 -34q-43 0 -70.5 27zM201 624q11 -15 31 -15q27 0 46 27t19 64q0 27 -11.5 42t-31.5 15q-27 0 -45.5 -27t-18.5 -64q0 -27 11 -42z" />
    <glyph glyph-name="ogonek" unicode="&#x2db;" horiz-adv-x="246" 
d="M-4.5 -209q-22.5 21 -22.5 56q0 43 37 83.5t99 73.5l37 -4q-55 -37 -83.5 -75.5t-28.5 -73.5q0 -44 43 -44q17 0 30 4l-6 -33q-21 -8 -45 -8q-38 0 -60.5 21z" />
    <glyph glyph-name="tilde" unicode="&#x2dc;" horiz-adv-x="393" 
d="M278 647l-23 16q-25 18 -45 18q-21 0 -34.5 -13.5t-15.5 -39.5h-36q2 46 28 75t64 29q30 0 64 -23l22 -16q25 -18 45 -18q21 0 34.5 13.5t15.5 39.5h36q-1 -46 -27 -75t-65 -29q-31 0 -63 23z" />
    <glyph glyph-name="hungarumlaut" unicode="&#x2dd;" horiz-adv-x="409" 
d="M374 744h80l-137 -140h-43zM218 744h80l-137 -140h-43z" />
    <glyph glyph-name="gravecomb" unicode="&#x300;" 
d="M250 744h92l83 -140h-39z" />
    <glyph glyph-name="acutecomb" unicode="&#x301;" 
d="M366 744h98l-192 -140h-47z" />
    <glyph glyph-name="uni0302" unicode="&#x302;" 
d="M312 744h66l88 -140h-42l-86 88l-123 -88h-47z" />
    <glyph glyph-name="tildecomb" unicode="&#x303;" 
d="M331 647l-23 16q-25 18 -45 18q-21 0 -34.5 -13.5t-15.5 -39.5h-36q2 46 28 75t64 29q30 0 64 -23l22 -16q25 -18 45 -18q21 0 34.5 13.5t15.5 39.5h36q-1 -46 -27 -75t-65 -29q-31 0 -63 23z" />
    <glyph glyph-name="uni0304" unicode="&#x304;" 
d="M194 703h286l-10 -50h-286z" />
    <glyph glyph-name="uni0306" unicode="&#x306;" 
d="M243 632.5q-32 34.5 -32 88.5q0 7 2 23h39q-3 -40 17 -65t61 -25q40 0 69 24.5t38 65.5h39q-7 -62 -49 -104t-100 -42q-52 0 -84 34.5z" />
    <glyph glyph-name="uni0307" unicode="&#x307;" 
d="M293.5 643.5q-12.5 12.5 -12.5 31.5q0 25 17 42t42 17q19 0 31.5 -12t12.5 -31q0 -25 -17 -42.5t-42 -17.5q-19 0 -31.5 12.5z" />
    <glyph glyph-name="uni0308" unicode="&#x308;" 
d="M333.5 646q-11.5 12 -11.5 30q0 24 16 40t40 16q18 0 29.5 -12t11.5 -29q0 -24 -16 -40.5t-40 -16.5q-18 0 -29.5 12zM149 716q16 16 40 16q18 0 29.5 -12t11.5 -29q0 -24 -16 -40.5t-40 -16.5q-18 0 -29.5 12t-11.5 30q0 24 16 40z" />
    <glyph glyph-name="uni030A" unicode="&#x30a;" 
d="M250.5 604q-27.5 27 -27.5 68q0 49 36 83t86 34q44 0 71.5 -26.5t27.5 -68.5q0 -49 -36.5 -83t-86.5 -34q-43 0 -70.5 27zM291 624q11 -15 31 -15q27 0 46 27t19 64q0 27 -11.5 42t-31.5 15q-27 0 -45.5 -27t-18.5 -64q0 -27 11 -42z" />
    <glyph glyph-name="uni030B" unicode="&#x30b;" 
d="M418 744h80l-137 -140h-43zM262 744h80l-137 -140h-43z" />
    <glyph glyph-name="uni030C" unicode="&#x30c;" 
d="M196 744h42l85 -88l123 88h48l-144 -140h-67z" />
    <glyph glyph-name="uni0312" unicode="&#x312;" 
d="M285.5 703q26.5 44 74.5 83h43q-37 -48 -54.5 -89.5t-15.5 -92.5h-73q-1 55 25.5 99z" />
    <glyph glyph-name="uni0326" unicode="&#x326;" 
d="M139.5 -150.5q18.5 45.5 17.5 96.5h72q4 -102 -104 -189h-41q37 47 55.5 92.5z" />
    <glyph glyph-name="uni0327" unicode="&#x327;" 
d="M89 -177l6 35q37 -19 74 -19q29 0 45.5 11.5t16.5 32.5q0 18 -13 28t-37 10h-14l26 79h31l-17 -49q35 -1 59.5 -19.5t24.5 -49.5q0 -36 -33 -61t-81 -25t-88 27z" />
    <glyph glyph-name="uni0328" unicode="&#x328;" 
d="M126.5 -209q-22.5 21 -22.5 56q0 43 37 83.5t99 73.5l37 -4q-55 -37 -83.5 -75.5t-28.5 -73.5q0 -44 43 -44q17 0 30 4l-6 -33q-21 -8 -45 -8q-38 0 -60.5 21z" />
    <glyph glyph-name="uni0335" unicode="&#x335;" 
d="M122 394h309l-6 -37h-309z" />
    <glyph glyph-name="uni0337" unicode="&#x337;" 
d="M126 299l148 95l-9 -49l-148 -95zM275 381l148 94l-10 -49l-148 -94z" />
    <glyph glyph-name="uni0338" unicode="&#x338;" 
d="M602 513h61l-601 -513h-62z" />
    <glyph glyph-name="uni0394" unicode="&#x394;" horiz-adv-x="636" 
d="M-8 41l385 666h66l116 -666l-8 -41h-567zM485 47l-96 587l-337 -587h433z" />
    <glyph glyph-name="Xi" unicode="&#x39e;" horiz-adv-x="590" 
d="M37 67h444l-14 -67h-444zM136 386h358l-8 -41h-358zM160 707h434l-12 -67h-434z" />
    <glyph glyph-name="uni03A9" unicode="&#x3a9;" horiz-adv-x="763" 
d="M15 63h189q-57 41 -92.5 107.5t-35.5 153.5q0 102 46.5 192t131.5 144.5t194 54.5q86 0 151 -36t100.5 -100.5t35.5 -146.5q0 -115 -64.5 -213t-174.5 -156h177l-13 -63h-259l11 56q112 58 178.5 158t66.5 220q0 111 -57 175.5t-154 64.5q-87 0 -153.5 -49t-102.5 -130.5
t-36 -176.5q0 -89 32 -155.5t87 -106.5l-11 -56h-260z" />
    <glyph glyph-name="uni03BC" unicode="&#x3bc;" horiz-adv-x="569" 
d="M131 513h71l-65 -331q-4 -21 -4 -44q0 -46 21.5 -71t62.5 -25q44 0 90 29.5t91 84.5l69 357h71l-100 -513h-67l21 107q-38 -52 -88.5 -83.5t-105.5 -31.5q-57 0 -91 36l-49 -250h-71z" />
    <glyph glyph-name="pi" unicode="&#x3c0;" horiz-adv-x="637" 
d="M408.5 19q-27.5 27 -27.5 78q0 18 5 46l66 328h-216l-94 -471h-71l95 471h-102l8 42h559l-8 -42h-100l-70 -345q-4 -16 -4 -33q0 -55 50 -55q25 0 50 6l-7 -40q-27 -12 -61 -12q-45 0 -72.5 27z" />
    <glyph glyph-name="Wgrave" unicode="&#x1e80;" horiz-adv-x="955" 
d="M116 707h74l56 -617l293 617h71l55 -625l295 625h54l-338 -707h-70l-58 617l-293 -617h-69zM455 884h95l102 -120h-43z" />
    <glyph glyph-name="wgrave" unicode="&#x1e81;" horiz-adv-x="721" 
d="M73 513h72l37 -434l207 434h67l38 -439l207 439h48l-245 -513h-67l-39 435l-206 -435h-68zM323 744h92l83 -140h-39z" />
    <glyph glyph-name="Wacute" unicode="&#x1e82;" horiz-adv-x="955" 
d="M116 707h74l56 -617l293 617h71l55 -625l295 625h54l-338 -707h-70l-58 617l-293 -617h-69zM669 884h101l-200 -120h-49z" />
    <glyph glyph-name="wacute" unicode="&#x1e83;" horiz-adv-x="721" 
d="M73 513h72l37 -434l207 434h67l38 -439l207 439h48l-245 -513h-67l-39 435l-206 -435h-68zM524 744h98l-192 -140h-47z" />
    <glyph glyph-name="Wdieresis" unicode="&#x1e84;" horiz-adv-x="955" 
d="M116 707h74l56 -617l293 617h71l55 -625l295 625h54l-338 -707h-70l-58 617l-293 -617h-69zM662 781q-12 12 -12 30q0 24 16 40t40 16q18 0 30 -11.5t12 -29.5q0 -23 -16.5 -40t-39.5 -17q-18 0 -30 12zM467 851q16 16 40 16q18 0 30 -11.5t12 -29.5q0 -23 -16.5 -40
t-39.5 -17q-18 0 -30 12t-12 30q0 24 16 40z" />
    <glyph glyph-name="wdieresis" unicode="&#x1e85;" horiz-adv-x="721" 
d="M73 513h72l37 -434l207 434h67l38 -439l207 439h48l-245 -513h-67l-39 435l-206 -435h-68zM515.5 646q-11.5 12 -11.5 30q0 24 16 40t40 16q18 0 29.5 -12t11.5 -29q0 -24 -16 -40.5t-40 -16.5q-18 0 -29.5 12zM331 716q16 16 40 16q18 0 29.5 -12t11.5 -29
q0 -24 -16 -40.5t-40 -16.5q-18 0 -29.5 12t-11.5 30q0 24 16 40z" />
    <glyph glyph-name="uni1E9E" unicode="&#x1e9e;" horiz-adv-x="700" 
d="M230 46l27 137h40q-7 -38 -7 -57q0 -49 27.5 -71t85.5 -22q53 0 93.5 22t63 60.5t22.5 87.5q0 111 -132 132l-62 11l10 50l222 210q-31 32 -75 50t-94 18q-96 0 -163 -62t-91 -177l-88 -435h-73l89 442q26 133 115 203t218 70q139 0 224 -79l-9 -41l-207 -196l24 -6
q78 -18 119 -62t41 -115q0 -64 -31 -115t-88 -80t-132 -29q-98 0 -169 54z" />
    <glyph glyph-name="uni1EBC" unicode="&#x1ebc;" horiz-adv-x="584" 
d="M178 707h420l-9 -47h-346l-54 -271h312l-10 -46h-310l-58 -296h358l-9 -47h-432zM411 787l-23 16q-25 18 -45 18q-21 0 -34.5 -13.5t-15.5 -39.5h-36q2 46 28 75t64 29q30 0 64 -23l22 -16q25 -18 45 -18q21 0 34.5 13.5t15.5 39.5h36q-1 -46 -27 -75t-65 -29
q-31 0 -63 23z" />
    <glyph glyph-name="uni1EBD" unicode="&#x1ebd;" horiz-adv-x="544" 
d="M144.5 19.5q-49.5 27.5 -77 78.5t-27.5 117q0 82 37 152t102 112t145 42q57 0 100 -24.5t66.5 -67t23.5 -95.5q0 -31 -10 -66h-385q-4 -23 -4 -52q0 -78 37.5 -130.5t115.5 -52.5q60 0 107.5 33t68.5 97h41q-23 -78 -84.5 -124.5t-143.5 -46.5q-63 0 -112.5 27.5z
M440 309q4 22 4 34q0 55 -32 96t-91 41q-67 0 -119.5 -47.5t-73.5 -123.5h312zM353 647l-23 16q-25 18 -45 18q-21 0 -34.5 -13.5t-15.5 -39.5h-36q2 46 28 75t64 29q30 0 64 -23l22 -16q25 -18 45 -18q21 0 34.5 13.5t15.5 39.5h36q-1 -46 -27 -75t-65 -29q-31 0 -63 23z
" />
    <glyph glyph-name="Ygrave" unicode="&#x1ef2;" horiz-adv-x="625" 
d="M281 268l-177 439h75l154 -393l303 393h60l-342 -438l-51 -269h-73zM285 884h95l102 -120h-43z" />
    <glyph glyph-name="ygrave" unicode="&#x1ef3;" horiz-adv-x="487" 
d="M179 8l-112 505h72l91 -419l239 419h51l-426 -735h-51zM198 744h92l83 -140h-39z" />
    <glyph glyph-name="uni1EF8" unicode="&#x1ef8;" horiz-adv-x="625" 
d="M281 268l-177 439h75l154 -393l303 393h60l-342 -438l-51 -269h-73zM429 787l-23 16q-25 18 -45 18q-21 0 -34.5 -13.5t-15.5 -39.5h-36q2 46 28 75t64 29q30 0 64 -23l22 -16q25 -18 45 -18q21 0 34.5 13.5t15.5 39.5h36q-1 -46 -27 -75t-65 -29q-31 0 -63 23z" />
    <glyph glyph-name="uni1EF9" unicode="&#x1ef9;" horiz-adv-x="487" 
d="M179 8l-112 505h72l91 -419l239 419h51l-426 -735h-51zM331 647l-23 16q-25 18 -45 18q-21 0 -34.5 -13.5t-15.5 -39.5h-36q2 46 28 75t64 29q30 0 64 -23l22 -16q25 -18 45 -18q21 0 34.5 13.5t15.5 39.5h36q-1 -46 -27 -75t-65 -29q-31 0 -63 23z" />
    <glyph glyph-name="uni2002" unicode="&#x2002;" horiz-adv-x="500" 
 />
    <glyph glyph-name="uni2003" unicode="&#x2003;" horiz-adv-x="1000" 
 />
    <glyph glyph-name="uni2004" unicode="&#x2004;" horiz-adv-x="333" 
 />
    <glyph glyph-name="uni2005" unicode="&#x2005;" horiz-adv-x="250" 
 />
    <glyph glyph-name="uni2006" unicode="&#x2006;" horiz-adv-x="166" 
 />
    <glyph glyph-name="uni2007" unicode="&#x2007;" horiz-adv-x="590" 
 />
    <glyph glyph-name="uni2008" unicode="&#x2008;" horiz-adv-x="282" 
 />
    <glyph glyph-name="uni2009" unicode="&#x2009;" horiz-adv-x="125" 
 />
    <glyph glyph-name="uni200B" unicode="&#x200b;" 
 />
    <glyph glyph-name="endash" unicode="&#x2013;" horiz-adv-x="540" 
d="M32 322h500l-8 -42h-500z" />
    <glyph glyph-name="emdash" unicode="&#x2014;" horiz-adv-x="1040" 
d="M32 322h1000l-8 -42h-1000z" />
    <glyph glyph-name="quoteleft" unicode="&#x2018;" horiz-adv-x="242" 
d="M236 707h41q-43 -60 -63.5 -116t-19.5 -121h-72q-4 123 114 237z" />
    <glyph glyph-name="quoteright" unicode="&#x2019;" horiz-adv-x="242" 
d="M157.5 586q20.5 56 19.5 121h71q5 -123 -114 -237h-40q43 60 63.5 116z" />
    <glyph glyph-name="quotesinglbase" unicode="&#x201a;" horiz-adv-x="242" 
d="M38.5 -24q20.5 56 19.5 121h72q4 -123 -114 -237h-41q43 60 63.5 116z" />
    <glyph glyph-name="quotedblleft" unicode="&#x201c;" horiz-adv-x="396" 
d="M236 707h41q-43 -60 -63.5 -116t-19.5 -121h-72q-4 123 114 237zM390 707h41q-43 -60 -63.5 -116t-19.5 -121h-72q-4 123 114 237z" />
    <glyph glyph-name="quotedblright" unicode="&#x201d;" horiz-adv-x="396" 
d="M157.5 586q20.5 56 19.5 121h71q5 -123 -114 -237h-40q43 60 63.5 116zM311.5 586q20.5 56 19.5 121h71q5 -123 -114 -237h-40q43 60 63.5 116z" />
    <glyph glyph-name="quotedblbase" unicode="&#x201e;" horiz-adv-x="396" 
d="M38.5 -24q20.5 56 19.5 121h72q4 -123 -114 -237h-41q43 60 63.5 116zM192.5 -24q20.5 56 19.5 121h72q4 -123 -114 -237h-41q43 60 63.5 116z" />
    <glyph glyph-name="dagger" unicode="&#x2020;" horiz-adv-x="497" 
d="M258 479l-152 11l7 38l157 11l46 168h41l-20 -169l152 -10l-7 -38l-157 -13l-133 -597h-41z" />
    <glyph glyph-name="daggerdbl" unicode="&#x2021;" horiz-adv-x="500" 
d="M174 48l-151 11l7 38l156 11l50 186l25 185l-152 11l8 38l156 11l47 168h41l-21 -169l152 -10l-8 -38l-156 -12l-50 -184l-24 -187l152 -10l-8 -38l-156 -12l-47 -167h-41z" />
    <glyph glyph-name="bullet" unicode="&#x2022;" horiz-adv-x="414" 
d="M157 286q-28 27 -28 68q0 40 28.5 67.5t67.5 27.5q41 0 69 -27.5t28 -67.5q0 -41 -28.5 -68t-68.5 -27t-68 27z" />
    <glyph glyph-name="ellipsis" unicode="&#x2026;" horiz-adv-x="722" 
d="M279 6.5q-14 14.5 -14 36.5q0 25 17.5 41.5t42.5 16.5q22 0 36 -14.5t14 -36.5q0 -24 -17.5 -41t-41.5 -17q-23 0 -37 14.5zM499 6.5q-14 14.5 -14 36.5q0 25 17.5 41.5t42.5 16.5q22 0 36 -14.5t14 -36.5q0 -24 -17.5 -41t-41.5 -17q-23 0 -37 14.5zM59 6.5
q-14 14.5 -14 36.5q0 25 17.5 41.5t42.5 16.5q22 0 36 -14.5t14 -36.5q0 -24 -17.5 -41t-41.5 -17q-23 0 -37 14.5z" />
    <glyph glyph-name="perthousand" unicode="&#x2030;" horiz-adv-x="1194" 
d="M706 707h68l-598 -707h-68zM126 589q24 56 66 89.5t93 33.5q54 0 87 -40t33 -109q0 -64 -24 -120t-66 -89.5t-93 -33.5q-54 0 -87 40t-33 109q0 64 24 120zM181 380q14 -26 42 -26q31 0 58.5 32t43.5 83.5t16 105.5q0 50 -15 76.5t-42 26.5q-31 0 -58 -32t-43 -83.5
t-16 -106.5q0 -50 14 -76zM499 264q24 56 66 89.5t93 33.5q54 0 87 -40t33 -109q0 -64 -24 -120t-66 -89.5t-93 -33.5q-54 0 -87 40t-33 109q0 64 24 120zM553.5 55q14.5 -26 42.5 -26q31 0 58 32t43 83.5t16 105.5q0 51 -14.5 77t-41.5 26q-31 0 -58.5 -32t-43.5 -83.5
t-16 -106.5q0 -50 14.5 -76zM850 264q24 56 66 89.5t93 33.5q54 0 87 -40t33 -109q0 -64 -24 -120t-66 -89.5t-93 -33.5q-54 0 -87 40t-33 109q0 64 24 120zM905 55q14 -26 42 -26q31 0 58.5 32t43.5 83.5t16 105.5q0 50 -15 76.5t-42 26.5q-31 0 -58 -32t-43 -83.5
t-16 -106.5q0 -50 14 -76z" />
    <glyph glyph-name="minute" unicode="&#x2032;" horiz-adv-x="200" 
d="M174 707h71l-115 -232h-38z" />
    <glyph glyph-name="second" unicode="&#x2033;" horiz-adv-x="355" 
d="M329 707h71l-115 -232h-38zM174 707h71l-115 -232h-38z" />
    <glyph glyph-name="guilsinglleft" unicode="&#x2039;" horiz-adv-x="285" 
d="M43 260l179 188h59l-161 -195l76 -181h-50z" />
    <glyph glyph-name="guilsinglright" unicode="&#x203a;" horiz-adv-x="285" 
d="M167 267l-75 181h49l103 -188l-178 -188h-60z" />
    <glyph glyph-name="fraction" unicode="&#x2044;" horiz-adv-x="225" 
d="M424 707h70l-656 -707h-70z" />
    <glyph glyph-name="uni2070" unicode="&#x2070;" horiz-adv-x="402" 
d="M150 445q-33 40 -33 109q0 64 24 120t66 89.5t93 33.5q54 0 86.5 -40t32.5 -109q0 -64 -24 -120t-66 -89.5t-93 -33.5q-53 0 -86 40zM195.5 465.5q14.5 -26.5 41.5 -26.5q32 0 59 32t43 83.5t16 105.5q0 51 -14.5 77t-41.5 26q-31 0 -58.5 -32t-43.5 -83.5t-16 -106.5
q0 -49 14.5 -75.5z" />
    <glyph glyph-name="uni2074" unicode="&#x2074;" horiz-adv-x="376" 
d="M280 499h-188l6 28l195 265h78l-233 -259h148l21 107h59l-21 -107h52l-7 -34h-51l-18 -89h-59z" />
    <glyph glyph-name="uni2075" unicode="&#x2075;" horiz-adv-x="399" 
d="M157 434.5q-32 29.5 -32 74.5h32q2 -31 23 -50.5t56 -19.5q43 0 71 31t28 75q0 35 -18 54t-50 19q-25 0 -48.5 -11.5t-40.5 -34.5h-31l56 220h224l-10 -54h-192l-28 -113q35 27 85 27q52 0 85 -29.5t33 -78.5q0 -40 -21 -71.5t-57 -49.5t-79 -18q-54 0 -86 29.5z" />
    <glyph glyph-name="uni2076" unicode="&#x2076;" horiz-adv-x="390" 
d="M150.5 446.5q-33.5 41.5 -33.5 110.5q0 67 26.5 122t75 86.5t111.5 31.5q47 0 82 -22l-7 -30q-31 17 -69 17q-62 0 -105 -44.5t-53 -121.5q17 27 45 41.5t61 14.5q49 0 80.5 -30t31.5 -80q0 -38 -19 -69.5t-53 -49.5t-75 -18q-65 0 -98.5 41.5zM201.5 461
q18.5 -22 47.5 -22q36 0 60.5 29.5t24.5 72.5q0 36 -17.5 57t-46.5 21q-36 0 -61.5 -29.5t-25.5 -71.5q0 -35 18.5 -57z" />
    <glyph glyph-name="uni2077" unicode="&#x2077;" horiz-adv-x="363" 
d="M380 737h-222l10 55h262l-8 -46l-246 -336h-78z" />
    <glyph glyph-name="uni2078" unicode="&#x2078;" horiz-adv-x="406" 
d="M145.5 434.5q-38.5 29.5 -38.5 73.5q0 40 30.5 69t82.5 37q-31 11 -49.5 33t-18.5 50q0 43 41.5 71.5t102.5 28.5q59 0 94.5 -27.5t35.5 -68.5q0 -37 -28 -63t-73 -34q34 -10 54 -34t20 -55q0 -47 -43 -78.5t-110 -31.5q-62 0 -100.5 29.5zM191.5 458.5
q20.5 -19.5 55.5 -19.5q38 0 62.5 23t24.5 59q0 32 -20 51t-54 19q-38 0 -63.5 -23.5t-25.5 -58.5q0 -31 20.5 -50.5zM233.5 642q19.5 -18 51.5 -18q34 0 57 21t23 54q0 29 -19 46.5t-51 17.5q-35 0 -58 -21t-23 -53q0 -29 19.5 -47z" />
    <glyph glyph-name="uni2079" unicode="&#x2079;" horiz-adv-x="391" 
d="M112 427l7 30q31 -17 70 -17q64 0 105.5 43.5t51.5 125.5q-18 -26 -45.5 -40.5t-61.5 -14.5q-48 0 -79.5 30t-31.5 79q0 37 19.5 68t53 48.5t73.5 17.5q65 0 99 -41t34 -111t-26 -124.5t-74.5 -85t-111.5 -30.5q-48 0 -83 22zM208 608q18 -20 46 -20q36 0 61.5 27.5
t25.5 69.5q0 34 -19 56t-48 22q-36 0 -60 -28.5t-24 -71.5q0 -35 18 -55z" />
    <glyph glyph-name="uni2080" unicode="&#x2080;" horiz-adv-x="402" 
d="M54 -50q-33 40 -33 109q0 64 24 120t66 89.5t93 33.5q54 0 86.5 -40t32.5 -109q0 -64 -24 -120t-66 -89.5t-93 -33.5q-53 0 -86 40zM99.5 -29.5q14.5 -26.5 41.5 -26.5q32 0 59 32t43 83.5t16 105.5q0 51 -14.5 77t-41.5 26q-31 0 -58.5 -32t-43.5 -83.5t-16 -106.5
q0 -49 14.5 -75.5z" />
    <glyph glyph-name="uni2081" unicode="&#x2081;" horiz-adv-x="289" 
d="M129 227l-97 -29l7 36l116 63h47l-75 -382h-60z" />
    <glyph glyph-name="uni2082" unicode="&#x2082;" horiz-adv-x="381" 
d="M192 96.5q54 56.5 54 107.5q0 30 -17 47t-47 17q-71 0 -88 -78h-30l16 88q53 24 106 24q56 0 90 -26t34 -73q0 -55 -57 -111t-179 -124h201l-11 -53h-262l9 44q127 81 181 137.5z" />
    <glyph glyph-name="uni2083" unicode="&#x2083;" horiz-adv-x="392" 
d="M44 -58q-34 32 -33 86h33q-1 -37 22 -60.5t65 -23.5q41 0 67 24t26 61q0 30 -17.5 48.5t-49.5 18.5h-29l7 34h31q38 0 63 20.5t25 53.5q0 29 -19 46.5t-52 17.5q-74 0 -90 -79h-31l17 91q28 11 53 16.5t54 5.5q57 0 93.5 -26.5t36.5 -67.5q0 -36 -27.5 -62.5t-70.5 -33.5
q33 -10 51.5 -33t18.5 -54q0 -51 -44 -83t-106 -32q-60 0 -94 32z" />
    <glyph glyph-name="uni2084" unicode="&#x2084;" horiz-adv-x="376" 
d="M184 4h-188l6 28l195 265h78l-233 -259h148l21 107h59l-21 -107h52l-7 -34h-51l-18 -89h-59z" />
    <glyph glyph-name="uni2085" unicode="&#x2085;" horiz-adv-x="399" 
d="M61 -60.5q-32 29.5 -32 74.5h32q2 -31 23 -50.5t56 -19.5q43 0 71 31t28 75q0 35 -18 54t-50 19q-25 0 -48.5 -11.5t-40.5 -34.5h-31l56 220h224l-10 -54h-192l-28 -113q35 27 85 27q52 0 85 -29.5t33 -78.5q0 -40 -21 -71.5t-57 -49.5t-79 -18q-54 0 -86 29.5z" />
    <glyph glyph-name="uni2086" unicode="&#x2086;" horiz-adv-x="390" 
d="M54.5 -48.5q-33.5 41.5 -33.5 110.5q0 67 26.5 122t75 86.5t111.5 31.5q47 0 82 -22l-7 -30q-31 17 -69 17q-62 0 -105 -44.5t-53 -121.5q17 27 45 41.5t61 14.5q49 0 80.5 -30t31.5 -80q0 -38 -19 -69.5t-53 -49.5t-75 -18q-65 0 -98.5 41.5zM105.5 -34
q18.5 -22 47.5 -22q36 0 60.5 29.5t24.5 72.5q0 36 -17.5 57t-46.5 21q-36 0 -61.5 -29.5t-25.5 -71.5q0 -35 18.5 -57z" />
    <glyph glyph-name="uni2087" unicode="&#x2087;" horiz-adv-x="363" 
d="M284 242h-222l10 55h262l-8 -46l-246 -336h-78z" />
    <glyph glyph-name="uni2088" unicode="&#x2088;" horiz-adv-x="406" 
d="M49.5 -60.5q-38.5 29.5 -38.5 73.5q0 40 30.5 69t82.5 37q-31 11 -49.5 33t-18.5 50q0 43 41.5 71.5t102.5 28.5q59 0 94.5 -27.5t35.5 -68.5q0 -37 -28 -63t-73 -34q34 -10 54 -34t20 -55q0 -47 -43 -78.5t-110 -31.5q-62 0 -100.5 29.5zM95.5 -36.5
q20.5 -19.5 55.5 -19.5q38 0 62.5 23t24.5 59q0 32 -20 51t-54 19q-38 0 -63.5 -23.5t-25.5 -58.5q0 -31 20.5 -50.5zM137.5 147q19.5 -18 51.5 -18q34 0 57 21t23 54q0 29 -19 46.5t-51 17.5q-35 0 -58 -21t-23 -53q0 -29 19.5 -47z" />
    <glyph glyph-name="uni2089" unicode="&#x2089;" horiz-adv-x="391" 
d="M16 -68l7 30q31 -17 70 -17q64 0 105.5 43.5t51.5 125.5q-18 -26 -45.5 -40.5t-61.5 -14.5q-48 0 -79.5 30t-31.5 79q0 37 19.5 68t53 48.5t73.5 17.5q65 0 99 -41t34 -111t-26 -124.5t-74.5 -85t-111.5 -30.5q-48 0 -83 22zM112 113q18 -20 46 -20q36 0 61.5 27.5
t25.5 69.5q0 34 -19 56t-48 22q-36 0 -60 -28.5t-24 -71.5q0 -35 18 -55z" />
    <glyph glyph-name="Euro" unicode="&#x20ac;" horiz-adv-x="590" 
d="M212 25q-50 33 -80 94t-35 142h-85l8 42h76q0 48 9 91h-66l8 42h67q22 81 68 144.5t110.5 99t140.5 35.5q53 0 100.5 -19.5t81.5 -53.5l-29 -146h-41q5 37 5 58q0 64 -28 92t-85 28q-87 0 -153 -66.5t-95 -171.5h237l-9 -42h-237q-9 -52 -9 -91h228l-9 -42h-218
q6 -106 48.5 -167t113.5 -61q63 0 114.5 48t72.5 141h43q-24 -109 -87 -169.5t-151 -60.5q-64 0 -114 33z" />
    <glyph glyph-name="uni20B2" unicode="&#x20b2;" horiz-adv-x="590" 
d="M112 99q-44 67 -44 172q0 111 37 205.5t105.5 153t157.5 65.5l23 113h43l-22 -112q97 -6 170 -69l-28 -140h-41q6 32 6 57q0 54 -29 81t-87 30l-120 -600q72 2 123 61.5t68 160.5h-91l9 47h163q-10 -95 -47.5 -165.5t-97.5 -109t-136 -38.5l-22 -112h-44l24 117
q-76 16 -120 83zM170.5 129q25.5 -51 70.5 -67l118 590q-65 -12 -113.5 -68t-74.5 -141t-26 -181q0 -82 25.5 -133z" />
    <glyph glyph-name="uni20B9" unicode="&#x20b9;" horiz-adv-x="590" 
d="M78 306l7 32h158q74 0 123 35t59 98h-314l8 42h308q-4 60 -36.5 95.5t-92.5 35.5h-153l13 63h465l-12 -63h-199q40 -17 63.5 -51.5t27.5 -79.5h82l-9 -42h-75q-12 -85 -83.5 -132t-177.5 -47h-63l253 -292h-92z" />
    <glyph glyph-name="uni20BF" unicode="&#x20bf;" horiz-adv-x="590" 
d="M134 12h-98l131 683h100l22 113h43l-22 -113h95l22 113h43l-24 -119q61 -13 94 -52.5t33 -94.5q0 -60 -37.5 -108t-101.5 -67q49 -19 76.5 -57.5t27.5 -91.5q0 -86 -63 -141t-160 -63l-22 -115h-43l22 113h-95l-22 -113h-43zM291 58q74 0 122 43t48 117q0 58 -30.5 92
t-84.5 34h-174l-55 -286h174zM350 389q64 0 106.5 41t42.5 105q0 52 -30.5 82.5t-90.5 30.5h-147l-50 -259h169z" />
    <glyph glyph-name="trademark" unicode="&#x2122;" horiz-adv-x="797" 
d="M481 707h51l51 -236l146 236h51l-24 -343h-55l19 262l-137 -221h-39l-51 229l-90 -270h-37zM101 707h302l-6 -34h-123l-62 -309h-57l63 309h-124z" />
    <glyph glyph-name="uni2126" unicode="&#x2126;" horiz-adv-x="763" 
d="M15 63h189q-57 41 -92.5 107.5t-35.5 153.5q0 102 46.5 192t131.5 144.5t194 54.5q86 0 151 -36t100.5 -100.5t35.5 -146.5q0 -115 -64.5 -213t-174.5 -156h177l-13 -63h-259l11 56q112 58 178.5 158t66.5 220q0 111 -57 175.5t-154 64.5q-87 0 -153.5 -49t-102.5 -130.5
t-36 -176.5q0 -89 32 -155.5t87 -106.5l-11 -56h-260z" />
    <glyph glyph-name="uni2150" unicode="&#x2150;" horiz-adv-x="850" 
d="M208 637l-97 -29l7 36l116 63h47l-75 -382h-60zM686 707h70l-656 -707h-70zM787 327h-222l10 55h262l-8 -46l-246 -336h-78z" />
    <glyph glyph-name="uni2151" unicode="&#x2151;" horiz-adv-x="859" 
d="M208 637l-97 -29l7 36l116 63h47l-75 -382h-60zM686 707h70l-656 -707h-70zM500 17l7 30q31 -17 70 -17q64 0 105.5 43.5t51.5 125.5q-18 -26 -45.5 -40.5t-61.5 -14.5q-48 0 -79.5 30t-31.5 79q0 37 19.5 68t53 48.5t73.5 17.5q65 0 99 -41t34 -111t-26 -124.5
t-74.5 -85t-111.5 -30.5q-48 0 -83 22zM596 198q18 -20 46 -20q36 0 61.5 27.5t25.5 69.5q0 34 -19 56t-48 22q-36 0 -60 -28.5t-24 -71.5q0 -35 18 -55z" />
    <glyph glyph-name="uni2153" unicode="&#x2153;" horiz-adv-x="874" 
d="M208 637l-97 -29l7 36l116 63h47l-75 -382h-60zM686 707h70l-656 -707h-70zM542 27q-34 32 -33 86h33q-1 -37 22 -60.5t65 -23.5q41 0 67 24t26 61q0 30 -17.5 48.5t-49.5 18.5h-29l7 34h31q38 0 63 20.5t25 53.5q0 29 -19 46.5t-52 17.5q-74 0 -90 -79h-31l17 91
q28 11 53 16.5t54 5.5q57 0 93.5 -26.5t36.5 -67.5q0 -36 -27.5 -62.5t-70.5 -33.5q33 -10 51.5 -33t18.5 -54q0 -51 -44 -83t-106 -32q-60 0 -94 32z" />
    <glyph glyph-name="uni2154" unicode="&#x2154;" horiz-adv-x="998" 
d="M271 506.5q54 56.5 54 107.5q0 30 -17 47t-47 17q-71 0 -88 -78h-30l16 88q53 24 106 24q56 0 90 -26t34 -73q0 -55 -57 -111t-179 -124h201l-11 -53h-262l9 44q127 81 181 137.5zM811 707h70l-656 -707h-70zM666 27q-34 32 -33 86h33q-1 -37 22 -60.5t65 -23.5
q41 0 67 24t26 61q0 30 -17.5 48.5t-49.5 18.5h-29l7 34h31q38 0 63 20.5t25 53.5q0 29 -19 46.5t-52 17.5q-74 0 -90 -79h-31l17 91q28 11 53 16.5t54 5.5q57 0 93.5 -26.5t36.5 -67.5q0 -36 -27.5 -62.5t-70.5 -33.5q33 -10 51.5 -33t18.5 -54q0 -51 -44 -83t-106 -32
q-60 0 -94 32z" />
    <glyph glyph-name="uni2155" unicode="&#x2155;" horiz-adv-x="857" 
d="M208 637l-97 -29l7 36l116 63h47l-75 -382h-60zM686 707h70l-656 -707h-70zM535 24.5q-32 29.5 -32 74.5h32q2 -31 23 -50.5t56 -19.5q43 0 71 31t28 75q0 35 -18 54t-50 19q-25 0 -48.5 -11.5t-40.5 -34.5h-31l56 220h224l-10 -54h-192l-28 -113q35 27 85 27
q52 0 85 -29.5t33 -78.5q0 -40 -21 -71.5t-57 -49.5t-79 -18q-54 0 -86 29.5z" />
    <glyph glyph-name="uni2156" unicode="&#x2156;" horiz-adv-x="981" 
d="M271 506.5q54 56.5 54 107.5q0 30 -17 47t-47 17q-71 0 -88 -78h-30l16 88q53 24 106 24q56 0 90 -26t34 -73q0 -55 -57 -111t-179 -124h201l-11 -53h-262l9 44q127 81 181 137.5zM811 707h70l-656 -707h-70zM659 24.5q-32 29.5 -32 74.5h32q2 -31 23 -50.5t56 -19.5
q43 0 71 31t28 75q0 35 -18 54t-50 19q-25 0 -48.5 -11.5t-40.5 -34.5h-31l56 220h224l-10 -54h-192l-28 -113q35 27 85 27q52 0 85 -29.5t33 -78.5q0 -40 -21 -71.5t-57 -49.5t-79 -18q-54 0 -86 29.5z" />
    <glyph glyph-name="uni2157" unicode="&#x2157;" horiz-adv-x="957" 
d="M123 352q-34 32 -33 86h33q-1 -37 22 -60.5t65 -23.5q41 0 67 24t26 61q0 30 -17.5 48.5t-49.5 18.5h-29l7 34h31q38 0 63 20.5t25 53.5q0 29 -19 46.5t-52 17.5q-74 0 -90 -79h-31l17 91q28 11 53 16.5t54 5.5q57 0 93.5 -26.5t36.5 -67.5q0 -36 -27.5 -62.5
t-70.5 -33.5q33 -10 51.5 -33t18.5 -54q0 -51 -44 -83t-106 -32q-60 0 -94 32zM786 707h70l-656 -707h-70zM635 24.5q-32 29.5 -32 74.5h32q2 -31 23 -50.5t56 -19.5q43 0 71 31t28 75q0 35 -18 54t-50 19q-25 0 -48.5 -11.5t-40.5 -34.5h-31l56 220h224l-10 -54h-192
l-28 -113q35 27 85 27q52 0 85 -29.5t33 -78.5q0 -40 -21 -71.5t-57 -49.5t-79 -18q-54 0 -86 29.5z" />
    <glyph glyph-name="uni2158" unicode="&#x2158;" horiz-adv-x="957" 
d="M263 414h-188l6 28l195 265h78l-233 -259h148l21 107h59l-21 -107h52l-7 -34h-51l-18 -89h-59zM786 707h70l-656 -707h-70zM635 24.5q-32 29.5 -32 74.5h32q2 -31 23 -50.5t56 -19.5q43 0 71 31t28 75q0 35 -18 54t-50 19q-25 0 -48.5 -11.5t-40.5 -34.5h-31l56 220h224
l-10 -54h-192l-28 -113q35 27 85 27q52 0 85 -29.5t33 -78.5q0 -40 -21 -71.5t-57 -49.5t-79 -18q-54 0 -86 29.5z" />
    <glyph glyph-name="uni2159" unicode="&#x2159;" horiz-adv-x="820" 
d="M208 637l-97 -29l7 36l116 63h47l-75 -382h-60zM686 707h70l-656 -707h-70zM500.5 36.5q-33.5 41.5 -33.5 110.5q0 67 26.5 122t75 86.5t111.5 31.5q47 0 82 -22l-7 -30q-31 17 -69 17q-62 0 -105 -44.5t-53 -121.5q17 27 45 41.5t61 14.5q49 0 80.5 -30t31.5 -80
q0 -38 -19 -69.5t-53 -49.5t-75 -18q-65 0 -98.5 41.5zM551.5 51q18.5 -22 47.5 -22q36 0 60.5 29.5t24.5 72.5q0 36 -17.5 57t-46.5 21q-36 0 -61.5 -29.5t-25.5 -71.5q0 -35 18.5 -57z" />
    <glyph glyph-name="uni215A" unicode="&#x215a;" horiz-adv-x="927" 
d="M140 349.5q-32 29.5 -32 74.5h32q2 -31 23 -50.5t56 -19.5q43 0 71 31t28 75q0 35 -18 54t-50 19q-25 0 -48.5 -11.5t-40.5 -34.5h-31l56 220h224l-10 -54h-192l-28 -113q35 27 85 27q52 0 85 -29.5t33 -78.5q0 -40 -21 -71.5t-57 -49.5t-79 -18q-54 0 -86 29.5zM794 707
h70l-656 -707h-70zM608.5 36.5q-33.5 41.5 -33.5 110.5q0 67 26.5 122t75 86.5t111.5 31.5q47 0 82 -22l-7 -30q-31 17 -69 17q-62 0 -105 -44.5t-53 -121.5q17 27 45 41.5t61 14.5q49 0 80.5 -30t31.5 -80q0 -38 -19 -69.5t-53 -49.5t-75 -18q-65 0 -98.5 41.5zM659.5 51
q18.5 -22 47.5 -22q36 0 60.5 29.5t24.5 72.5q0 36 -17.5 57t-46.5 21q-36 0 -61.5 -29.5t-25.5 -71.5q0 -35 18.5 -57z" />
    <glyph glyph-name="oneeighth" unicode="&#x215b;" horiz-adv-x="863" 
d="M208 637l-97 -29l7 36l116 63h47l-75 -382h-60zM686 707h70l-656 -707h-70zM522.5 24.5q-38.5 29.5 -38.5 73.5q0 40 30.5 69t82.5 37q-31 11 -49.5 33t-18.5 50q0 43 41.5 71.5t102.5 28.5q59 0 94.5 -27.5t35.5 -68.5q0 -37 -28 -63t-73 -34q34 -10 54 -34t20 -55
q0 -47 -43 -78.5t-110 -31.5q-62 0 -100.5 29.5zM568.5 48.5q20.5 -19.5 55.5 -19.5q38 0 62.5 23t24.5 59q0 32 -20 51t-54 19q-38 0 -63.5 -23.5t-25.5 -58.5q0 -31 20.5 -50.5zM610.5 232q19.5 -18 51.5 -18q34 0 57 21t23 54q0 29 -19 46.5t-51 17.5q-35 0 -58 -21
t-23 -53q0 -29 19.5 -47z" />
    <glyph glyph-name="threeeighths" unicode="&#x215c;" horiz-adv-x="963" 
d="M123 352q-34 32 -33 86h33q-1 -37 22 -60.5t65 -23.5q41 0 67 24t26 61q0 30 -17.5 48.5t-49.5 18.5h-29l7 34h31q38 0 63 20.5t25 53.5q0 29 -19 46.5t-52 17.5q-74 0 -90 -79h-31l17 91q28 11 53 16.5t54 5.5q57 0 93.5 -26.5t36.5 -67.5q0 -36 -27.5 -62.5
t-70.5 -33.5q33 -10 51.5 -33t18.5 -54q0 -51 -44 -83t-106 -32q-60 0 -94 32zM786 707h70l-656 -707h-70zM622.5 24.5q-38.5 29.5 -38.5 73.5q0 40 30.5 69t82.5 37q-31 11 -49.5 33t-18.5 50q0 43 41.5 71.5t102.5 28.5q59 0 94.5 -27.5t35.5 -68.5q0 -37 -28 -63t-73 -34
q34 -10 54 -34t20 -55q0 -47 -43 -78.5t-110 -31.5q-62 0 -100.5 29.5zM668.5 48.5q20.5 -19.5 55.5 -19.5q38 0 62.5 23t24.5 59q0 32 -20 51t-54 19q-38 0 -63.5 -23.5t-25.5 -58.5q0 -31 20.5 -50.5zM710.5 232q19.5 -18 51.5 -18q34 0 57 21t23 54q0 29 -19 46.5
t-51 17.5q-35 0 -58 -21t-23 -53q0 -29 19.5 -47z" />
    <glyph glyph-name="fiveeighths" unicode="&#x215d;" horiz-adv-x="971" 
d="M140 349.5q-32 29.5 -32 74.5h32q2 -31 23 -50.5t56 -19.5q43 0 71 31t28 75q0 35 -18 54t-50 19q-25 0 -48.5 -11.5t-40.5 -34.5h-31l56 220h224l-10 -54h-192l-28 -113q35 27 85 27q52 0 85 -29.5t33 -78.5q0 -40 -21 -71.5t-57 -49.5t-79 -18q-54 0 -86 29.5zM794 707
h70l-656 -707h-70zM630.5 24.5q-38.5 29.5 -38.5 73.5q0 40 30.5 69t82.5 37q-31 11 -49.5 33t-18.5 50q0 43 41.5 71.5t102.5 28.5q59 0 94.5 -27.5t35.5 -68.5q0 -37 -28 -63t-73 -34q34 -10 54 -34t20 -55q0 -47 -43 -78.5t-110 -31.5q-62 0 -100.5 29.5zM676.5 48.5
q20.5 -19.5 55.5 -19.5q38 0 62.5 23t24.5 59q0 32 -20 51t-54 19q-38 0 -63.5 -23.5t-25.5 -58.5q0 -31 20.5 -50.5zM718.5 232q19.5 -18 51.5 -18q34 0 57 21t23 54q0 29 -19 46.5t-51 17.5q-35 0 -58 -21t-23 -53q0 -29 19.5 -47z" />
    <glyph glyph-name="seveneighths" unicode="&#x215e;" horiz-adv-x="861" 
d="M363 652h-222l10 55h262l-8 -46l-246 -336h-78zM684 707h70l-656 -707h-70zM520.5 24.5q-38.5 29.5 -38.5 73.5q0 40 30.5 69t82.5 37q-31 11 -49.5 33t-18.5 50q0 43 41.5 71.5t102.5 28.5q59 0 94.5 -27.5t35.5 -68.5q0 -37 -28 -63t-73 -34q34 -10 54 -34t20 -55
q0 -47 -43 -78.5t-110 -31.5q-62 0 -100.5 29.5zM566.5 48.5q20.5 -19.5 55.5 -19.5q38 0 62.5 23t24.5 59q0 32 -20 51t-54 19q-38 0 -63.5 -23.5t-25.5 -58.5q0 -31 20.5 -50.5zM608.5 232q19.5 -18 51.5 -18q34 0 57 21t23 54q0 29 -19 46.5t-51 17.5q-35 0 -58 -21
t-23 -53q0 -29 19.5 -47z" />
    <glyph glyph-name="arrowleft" unicode="&#x2190;" horiz-adv-x="900" 
d="M93 358l242 289h40l-175 -255h608v-68h-608l175 -255h-40z" />
    <glyph glyph-name="arrowup" unicode="&#x2191;" horiz-adv-x="900" 
d="M416 608l-255 -175v40l289 242l289 -242v-40l-255 175v-608h-68v608z" />
    <glyph glyph-name="arrowright" unicode="&#x2192;" horiz-adv-x="900" 
d="M700 324h-608v68h608l-175 255h40l242 -289l-242 -289h-40z" />
    <glyph glyph-name="arrowdown" unicode="&#x2193;" horiz-adv-x="900" 
d="M161 234v40l255 -175v608h68v-608l255 175v-40l-289 -242z" />
    <glyph glyph-name="arrowboth" unicode="&#x2194;" horiz-adv-x="900" 
d="M89 354l202 289h37l-137 -255h519l-137 255h37l202 -289l-202 -289h-37l137 255h-519l137 -255h-37z" />
    <glyph glyph-name="arrowupdn" unicode="&#x2195;" horiz-adv-x="900" 
d="M161 194v37l255 -137v519l-255 -137v37l289 202l289 -202v-37l-255 137v-519l255 137v-37l-289 -202z" />
    <glyph glyph-name="uni2196" unicode="&#x2196;" horiz-adv-x="900" 
d="M159 598l-26 -357h-33v466h466v-33l-359 -26l593 -603l-48 -49z" />
    <glyph glyph-name="uni2197" unicode="&#x2197;" horiz-adv-x="900" 
d="M100 45l593 603l-359 26v33h466v-466h-33l-26 357l-593 -602z" />
    <glyph glyph-name="uni2198" unicode="&#x2198;" horiz-adv-x="900" 
d="M334 33l359 26l-593 603l48 49l593 -602l26 357h33v-466h-466v33z" />
    <glyph glyph-name="uni2199" unicode="&#x2199;" horiz-adv-x="900" 
d="M100 466h33l26 -357l593 602l48 -49l-593 -603l359 -26v-33h-466v466z" />
    <glyph glyph-name="partialdiff" unicode="&#x2202;" horiz-adv-x="572" 
d="M89 43q-48 51 -48 137q0 72 32 132t88.5 94.5t126.5 34.5q59 0 102.5 -27t67.5 -71q20 92 20 189q0 194 -111 194q-57 0 -101 -38t-57 -101h-41q15 78 70 128.5t134 50.5q83 0 129.5 -62.5t46.5 -180.5q0 -136 -39.5 -258t-114.5 -197.5t-176 -75.5q-81 0 -129 51z
M141.5 74q29.5 -41 80.5 -41q73 0 130 68.5t91 181.5q-17 52 -56 84t-94 32q-50 0 -91.5 -28.5t-65.5 -78.5t-24 -110q0 -67 29.5 -108z" />
    <glyph glyph-name="emptyset" unicode="&#x2205;" horiz-adv-x="677" 
d="M108 222q-16 42 -16 91q0 83 42.5 155t113.5 114.5t152 42.5q75 0 131 -39l68 78h51l-90 -103q31 -31 47.5 -73t16.5 -91q0 -82 -42.5 -154t-113.5 -115t-153 -43q-74 0 -132 40l-68 -79h-51l89 104q-29 30 -45 72zM180 180l325 375q-46 32 -107 32q-69 0 -130.5 -37.5
t-98 -100t-36.5 -134.5q0 -82 47 -135zM316 124q69 0 130.5 37.5t98.5 100.5t37 134q0 82 -48 135l-325 -376q45 -31 107 -31z" />
    <glyph glyph-name="uni2206" unicode="&#x2206;" horiz-adv-x="636" 
d="M-8 41l385 666h66l116 -666l-8 -41h-567zM485 47l-96 587l-337 -587h433z" />
    <glyph glyph-name="product" unicode="&#x220f;" horiz-adv-x="758" 
d="M244 660h-102l9 47h630l-9 -47h-106l-149 -745h-71l150 745h-282l-149 -745h-70z" />
    <glyph glyph-name="summation" unicode="&#x2211;" horiz-adv-x="571" 
d="M-18 -40l373 359l-226 343l9 45h475l-10 -47h-397l219 -336l-361 -347h414l-12 -62h-493z" />
    <glyph glyph-name="minus" unicode="&#x2212;" horiz-adv-x="590" 
d="M96 341h430l-8 -41h-430z" />
    <glyph glyph-name="radical" unicode="&#x221a;" horiz-adv-x="499" 
d="M83 231l-64 -24l-9 42l127 46l47 -310l338 722h48l-375 -792h-58z" />
    <glyph glyph-name="infinity" unicode="&#x221e;" horiz-adv-x="932" 
d="M117.5 189.5q-44.5 44.5 -44.5 116.5q0 61 28 110t75.5 77t104.5 28q68 0 113.5 -40.5t91.5 -115.5q66 75 121.5 115.5t124.5 40.5q70 0 113.5 -44.5t43.5 -116.5q0 -62 -27 -111t-74 -76.5t-104 -27.5q-69 0 -114 40.5t-90 114.5q-67 -75 -123 -115t-125 -40
q-70 0 -114.5 44.5zM151.5 215.5q35.5 -30.5 86.5 -30.5q59 0 107.5 38t112.5 112q-42 71 -82 108.5t-99 37.5q-45 0 -81.5 -22.5t-58 -62.5t-21.5 -89q0 -61 35.5 -91.5zM588.5 222q38.5 -37 94.5 -37q45 0 82.5 22.5t59 62.5t21.5 89q0 60 -33 91t-87 31q-56 0 -104.5 -38
t-114.5 -112q43 -72 81.5 -109z" />
    <glyph glyph-name="integral" unicode="&#x222b;" horiz-adv-x="442" 
d="M-52 -218l8 40q28 -10 57 -10q45 0 70.5 24.5t35.5 77.5l137 706q15 74 59.5 110t110.5 36q35 0 68 -12l-8 -40q-27 10 -54 10q-46 0 -71.5 -24.5t-36.5 -77.5l-137 -707q-14 -74 -58 -109.5t-110 -35.5q-37 0 -71 12z" />
    <glyph glyph-name="approxequal" unicode="&#x2248;" horiz-adv-x="590" 
d="M374 365q-28 12 -61 34q-29 20 -51 29.5t-45 9.5q-33 0 -53 -19t-23 -58h-41q3 57 36.5 88t83.5 31q32 0 58.5 -12t59.5 -34q31 -20 52.5 -29.5t44.5 -9.5q32 0 52.5 19.5t23.5 57.5h41q-4 -57 -37 -88t-83 -31q-30 0 -58 12zM98.5 252q33.5 31 83.5 31q32 0 58 -11.5
t60 -33.5q30 -20 52 -30t45 -10q32 0 52.5 20t23.5 57h41q-4 -57 -37 -88t-83 -31q-30 0 -57 12t-62 34q-29 20 -51 29.5t-45 9.5q-33 0 -53 -19t-23 -58h-41q3 57 36.5 88z" />
    <glyph glyph-name="notequal" unicode="&#x2260;" horiz-adv-x="590" 
d="M194 186h-128l8 40h148l121 182h-234l8 41h253l74 112h50l-75 -112h128l-8 -41h-146l-122 -182h233l-8 -40h-252l-75 -113h-49z" />
    <glyph glyph-name="lessequal" unicode="&#x2264;" horiz-adv-x="590" 
d="M95 363l7 36l462 169l-9 -47l-396 -142l341 -142l-8 -42zM49 125h430l-8 -41h-430z" />
    <glyph glyph-name="greaterequal" unicode="&#x2265;" horiz-adv-x="590" 
d="M82 241l396 142l-340 142l8 43l397 -169l-7 -35l-463 -169zM60 125h430l-8 -41h-430z" />
    <glyph glyph-name="lozenge" unicode="&#x25ca;" horiz-adv-x="551" 
d="M66 355l276 352h45l136 -352l-277 -355h-46zM231 53l238 309l-111 292l-238 -305z" />
    <glyph glyph-name="uni25CC" unicode="&#x25cc;" horiz-adv-x="760" 
d="M370.5 6.5q-11.5 11.5 -11.5 26.5q0 16 11.5 27.5t26.5 11.5q16 0 27.5 -11.5t11.5 -27.5q0 -15 -11.5 -26.5t-27.5 -11.5q-15 0 -26.5 11.5zM61.5 369.5q11.5 11.5 26.5 11.5q16 0 27.5 -11.5t11.5 -27.5q0 -15 -11.5 -26.5t-27.5 -11.5q-15 0 -26.5 11.5t-11.5 26.5
q0 16 11.5 27.5zM84.5 250.5q11.5 11.5 26.5 11.5q16 0 27.5 -11.5t11.5 -27.5q0 -15 -11.5 -26.5t-27.5 -11.5q-15 0 -26.5 11.5t-11.5 26.5q0 16 11.5 27.5zM84.5 487.5q11.5 11.5 26.5 11.5q16 0 27.5 -11.5t11.5 -27.5q0 -15 -11.5 -26.5t-27.5 -11.5q-15 0 -26.5 11.5
t-11.5 26.5q0 16 11.5 27.5zM151.5 150.5q11.5 11.5 26.5 11.5q16 0 27.5 -11.5t11.5 -27.5q0 -15 -11.5 -26.5t-27.5 -11.5q-15 0 -26.5 11.5t-11.5 26.5q0 16 11.5 27.5zM151.5 587.5q11.5 11.5 26.5 11.5q16 0 27.5 -11.5t11.5 -27.5q0 -15 -11.5 -26.5t-27.5 -11.5
q-15 0 -26.5 11.5t-11.5 26.5q0 16 11.5 27.5zM251.5 83.5q11.5 11.5 26.5 11.5q16 0 27.5 -11.5t11.5 -27.5q0 -15 -11.5 -26.5t-27.5 -11.5q-15 0 -26.5 11.5t-11.5 26.5q0 16 11.5 27.5zM251.5 654.5q11.5 11.5 26.5 11.5q16 0 27.5 -11.5t11.5 -27.5q0 -15 -11.5 -26.5
t-27.5 -11.5q-15 0 -26.5 11.5t-11.5 26.5q0 16 11.5 27.5zM370.5 677.5q11.5 11.5 26.5 11.5q16 0 27.5 -11.5t11.5 -27.5q0 -15 -11.5 -26.5t-27.5 -11.5q-15 0 -26.5 11.5t-11.5 26.5q0 16 11.5 27.5zM488.5 83.5q11.5 11.5 26.5 11.5q16 0 27.5 -11.5t11.5 -27.5
q0 -15 -11.5 -26.5t-27.5 -11.5q-15 0 -26.5 11.5t-11.5 26.5q0 16 11.5 27.5zM488.5 654.5q11.5 11.5 26.5 11.5q16 0 27.5 -11.5t11.5 -27.5q0 -15 -11.5 -26.5t-27.5 -11.5q-15 0 -26.5 11.5t-11.5 26.5q0 16 11.5 27.5zM588.5 150.5q11.5 11.5 26.5 11.5
q16 0 27.5 -11.5t11.5 -27.5q0 -15 -11.5 -26.5t-27.5 -11.5q-15 0 -26.5 11.5t-11.5 26.5q0 16 11.5 27.5zM588.5 587.5q11.5 11.5 26.5 11.5q16 0 27.5 -11.5t11.5 -27.5q0 -15 -11.5 -26.5t-27.5 -11.5q-15 0 -26.5 11.5t-11.5 26.5q0 16 11.5 27.5zM655.5 250.5
q11.5 11.5 26.5 11.5q16 0 27.5 -11.5t11.5 -27.5q0 -15 -11.5 -26.5t-27.5 -11.5q-15 0 -26.5 11.5t-11.5 26.5q0 16 11.5 27.5zM655.5 487.5q11.5 11.5 26.5 11.5q16 0 27.5 -11.5t11.5 -27.5q0 -15 -11.5 -26.5t-27.5 -11.5q-15 0 -26.5 11.5t-11.5 26.5q0 16 11.5 27.5z
M678.5 369.5q11.5 11.5 26.5 11.5q16 0 27.5 -11.5t11.5 -27.5q0 -15 -11.5 -26.5t-27.5 -11.5q-15 0 -26.5 11.5t-11.5 26.5q0 16 11.5 27.5z" />
    <glyph glyph-name="uniA78B" unicode="&#xa78b;" horiz-adv-x="319" 
d="M209 707h76l-105 -428h-37z" />
    <glyph glyph-name="uniA78C" unicode="&#xa78c;" horiz-adv-x="255" 
d="M169 654h71l-99 -409h-34z" />
    <glyph glyph-name="uni004A0301" horiz-adv-x="442" 
d="M1 32l7 40q51 -32 109 -32q129 0 160 162l97 505h74l-97 -508q-21 -105 -81.5 -156t-145.5 -51q-74 0 -123 40zM503 884h101l-200 -120h-49z" />
    <glyph glyph-name="Z.ss01" horiz-adv-x="602" 
d="M8 43l528 619h-391l8 45h488l-8 -43l-528 -619h412l-10 -45h-506z" />
    <glyph glyph-name="Zacute.ss01" horiz-adv-x="602" 
d="M8 43l528 619h-391l8 45h488l-8 -43l-528 -619h412l-10 -45h-506zM485 884h101l-200 -120h-49z" />
    <glyph glyph-name="Zcaron.ss01" horiz-adv-x="602" 
d="M8 43l528 619h-391l8 45h488l-8 -43l-528 -619h412l-10 -45h-506zM273 884h44l91 -72l125 72h47l-143 -120h-67z" />
    <glyph glyph-name="Zdotaccent.ss01" horiz-adv-x="602" 
d="M8 43l528 619h-391l8 45h488l-8 -43l-528 -619h412l-10 -45h-506zM374.5 779q-12.5 13 -12.5 32q0 24 17 41.5t42 17.5q19 0 31.5 -12.5t12.5 -31.5q0 -25 -17 -42.5t-42 -17.5q-19 0 -31.5 13z" />
    <glyph glyph-name="uni01310328" horiz-adv-x="232" 
d="M-33 -209q-22 21 -22 56q0 45 31 83.5t82 69.5h-27l99 513h71l-99 -513q-46 -37 -71 -75.5t-25 -73.5q0 -44 41 -44q17 0 30 4l-6 -33q-21 -8 -45 -8q-37 0 -59 21z" />
    <glyph glyph-name="i.loclTRK" horiz-adv-x="232" 
d="M130 513h71l-99 -513h-71zM159.5 643.5q-12.5 12.5 -12.5 31.5q0 25 17 42t42 17q19 0 31.5 -12t12.5 -31q0 -25 -17 -42.5t-42 -17.5q-19 0 -31.5 12.5z" />
    <glyph glyph-name="uni006A0301" horiz-adv-x="227" 
d="M-138 -208l7 36q24 -12 51 -12q35 0 57.5 22t31.5 72l117 603h71l-118 -608q-14 -67 -54 -101t-92 -34q-41 0 -71 22zM254 744h95l-171 -140h-49z" />
    <glyph glyph-name="z.ss01" horiz-adv-x="468" 
d="M-2 34l374 437h-280l8 42h370l-6 -34l-374 -437h298l-8 -42h-389z" />
    <glyph glyph-name="zacute.ss01" horiz-adv-x="468" 
d="M-2 34l374 437h-280l8 42h370l-6 -34l-374 -437h298l-8 -42h-389zM386 744h98l-192 -140h-47z" />
    <glyph glyph-name="zcaron.ss01" horiz-adv-x="468" 
d="M-2 34l374 437h-280l8 42h370l-6 -34l-374 -437h298l-8 -42h-389zM184 744h42l85 -88l123 88h48l-144 -140h-67z" />
    <glyph glyph-name="zdotaccent.ss01" horiz-adv-x="468" 
d="M-2 34l374 437h-280l8 42h370l-6 -34l-374 -437h298l-8 -42h-389zM281.5 643.5q-12.5 12.5 -12.5 31.5q0 25 17 42t42 17q19 0 31.5 -12t12.5 -31q0 -25 -17 -42.5t-42 -17.5q-19 0 -31.5 12.5z" />
    <glyph glyph-name="a.ss02" horiz-adv-x="577" 
d="M131 18.5q-43 26.5 -67.5 75.5t-24.5 113q0 82 35 154.5t97 116t138 43.5q54 0 93 -21t64 -56l14 69h67l-100 -513h-67l14 72q-32 -37 -75.5 -58.5t-91.5 -21.5q-53 0 -96 26.5zM150 86q37 -46 97 -46q39 0 78.5 20.5t72.5 56.5l57 293q-46 63 -126 63q-62 0 -111 -36
t-77 -96.5t-28 -129.5q0 -79 37 -125z" />
    <glyph glyph-name="aacute.ss02" horiz-adv-x="577" 
d="M131 18.5q-43 26.5 -67.5 75.5t-24.5 113q0 82 35 154.5t97 116t138 43.5q54 0 93 -21t64 -56l14 69h67l-100 -513h-67l14 72q-32 -37 -75.5 -58.5t-91.5 -21.5q-53 0 -96 26.5zM150 86q37 -46 97 -46q39 0 78.5 20.5t72.5 56.5l57 293q-46 63 -126 63q-62 0 -111 -36
t-77 -96.5t-28 -129.5q0 -79 37 -125zM434 744h98l-192 -140h-47z" />
    <glyph glyph-name="abreve.ss02" horiz-adv-x="577" 
d="M131 18.5q-43 26.5 -67.5 75.5t-24.5 113q0 82 35 154.5t97 116t138 43.5q54 0 93 -21t64 -56l14 69h67l-100 -513h-67l14 72q-32 -37 -75.5 -58.5t-91.5 -21.5q-53 0 -96 26.5zM150 86q37 -46 97 -46q39 0 78.5 20.5t72.5 56.5l57 293q-46 63 -126 63q-62 0 -111 -36
t-77 -96.5t-28 -129.5q0 -79 37 -125zM278 632.5q-32 34.5 -32 88.5q0 7 2 23h39q-3 -40 17 -65t61 -25q40 0 69 24.5t38 65.5h39q-7 -62 -49 -104t-100 -42q-52 0 -84 34.5z" />
    <glyph glyph-name="acircumflex.ss02" horiz-adv-x="577" 
d="M131 18.5q-43 26.5 -67.5 75.5t-24.5 113q0 82 35 154.5t97 116t138 43.5q54 0 93 -21t64 -56l14 69h67l-100 -513h-67l14 72q-32 -37 -75.5 -58.5t-91.5 -21.5q-53 0 -96 26.5zM150 86q37 -46 97 -46q39 0 78.5 20.5t72.5 56.5l57 293q-46 63 -126 63q-62 0 -111 -36
t-77 -96.5t-28 -129.5q0 -79 37 -125zM348 744h66l88 -140h-42l-86 88l-123 -88h-47z" />
    <glyph glyph-name="adieresis.ss02" horiz-adv-x="577" 
d="M131 18.5q-43 26.5 -67.5 75.5t-24.5 113q0 82 35 154.5t97 116t138 43.5q54 0 93 -21t64 -56l14 69h67l-100 -513h-67l14 72q-32 -37 -75.5 -58.5t-91.5 -21.5q-53 0 -96 26.5zM150 86q37 -46 97 -46q39 0 78.5 20.5t72.5 56.5l57 293q-46 63 -126 63q-62 0 -111 -36
t-77 -96.5t-28 -129.5q0 -79 37 -125zM425.5 646q-11.5 12 -11.5 30q0 24 16 40t40 16q18 0 29.5 -12t11.5 -29q0 -24 -16 -40.5t-40 -16.5q-18 0 -29.5 12zM241 716q16 16 40 16q18 0 29.5 -12t11.5 -29q0 -24 -16 -40.5t-40 -16.5q-18 0 -29.5 12t-11.5 30q0 24 16 40z
" />
    <glyph glyph-name="agrave.ss02" horiz-adv-x="577" 
d="M131 18.5q-43 26.5 -67.5 75.5t-24.5 113q0 82 35 154.5t97 116t138 43.5q54 0 93 -21t64 -56l14 69h67l-100 -513h-67l14 72q-32 -37 -75.5 -58.5t-91.5 -21.5q-53 0 -96 26.5zM150 86q37 -46 97 -46q39 0 78.5 20.5t72.5 56.5l57 293q-46 63 -126 63q-62 0 -111 -36
t-77 -96.5t-28 -129.5q0 -79 37 -125zM234 744h92l83 -140h-39z" />
    <glyph glyph-name="amacron.ss02" horiz-adv-x="577" 
d="M131 18.5q-43 26.5 -67.5 75.5t-24.5 113q0 82 35 154.5t97 116t138 43.5q54 0 93 -21t64 -56l14 69h67l-100 -513h-67l14 72q-32 -37 -75.5 -58.5t-91.5 -21.5q-53 0 -96 26.5zM150 86q37 -46 97 -46q39 0 78.5 20.5t72.5 56.5l57 293q-46 63 -126 63q-62 0 -111 -36
t-77 -96.5t-28 -129.5q0 -79 37 -125zM230 703h286l-10 -50h-286z" />
    <glyph glyph-name="aogonek.ss02" horiz-adv-x="577" 
d="M131 18.5q-43 26.5 -67.5 75.5t-24.5 113q0 82 35 154.5t97 116t138 43.5q54 0 93 -21t64 -56l14 69h67l-100 -513q-55 -37 -83.5 -75.5t-28.5 -73.5q0 -44 43 -44q17 0 30 4l-6 -33q-21 -8 -45 -8q-38 0 -60.5 21t-22.5 56q0 42 35 81t94 72h-23l14 72
q-32 -37 -75.5 -58.5t-91.5 -21.5q-53 0 -96 26.5zM150 86q37 -46 97 -46q39 0 78.5 20.5t72.5 56.5l57 293q-46 63 -126 63q-62 0 -111 -36t-77 -96.5t-28 -129.5q0 -79 37 -125z" />
    <glyph glyph-name="aring.ss02" horiz-adv-x="577" 
d="M131 18.5q-43 26.5 -67.5 75.5t-24.5 113q0 82 35 154.5t97 116t138 43.5q54 0 93 -21t64 -56l14 69h67l-100 -513h-67l14 72q-32 -37 -75.5 -58.5t-91.5 -21.5q-53 0 -96 26.5zM150 86q37 -46 97 -46q39 0 78.5 20.5t72.5 56.5l57 293q-46 63 -126 63q-62 0 -111 -36
t-77 -96.5t-28 -129.5q0 -79 37 -125zM286.5 604q-27.5 27 -27.5 68q0 49 36 83t86 34q44 0 71.5 -26.5t27.5 -68.5q0 -49 -36.5 -83t-86.5 -34q-43 0 -70.5 27zM327 624q11 -15 31 -15q27 0 46 27t19 64q0 27 -11.5 42t-31.5 15q-27 0 -45.5 -27t-18.5 -64q0 -27 11 -42z
" />
    <glyph glyph-name="atilde.ss02" horiz-adv-x="577" 
d="M131 18.5q-43 26.5 -67.5 75.5t-24.5 113q0 82 35 154.5t97 116t138 43.5q54 0 93 -21t64 -56l14 69h67l-100 -513h-67l14 72q-32 -37 -75.5 -58.5t-91.5 -21.5q-53 0 -96 26.5zM150 86q37 -46 97 -46q39 0 78.5 20.5t72.5 56.5l57 293q-46 63 -126 63q-62 0 -111 -36
t-77 -96.5t-28 -129.5q0 -79 37 -125zM367 647l-23 16q-25 18 -45 18q-21 0 -34.5 -13.5t-15.5 -39.5h-36q2 46 28 75t64 29q30 0 64 -23l22 -16q25 -18 45 -18q21 0 34.5 13.5t15.5 39.5h36q-1 -46 -27 -75t-65 -29q-31 0 -63 23z" />
    <glyph glyph-name="ordfeminine.ss02" horiz-adv-x="411" 
d="M114 380q-37 41 -37 110q0 58 24.5 109t67.5 81.5t95 30.5q36 0 64 -15t45 -39l9 49h64l-70 -362h-64l10 52q-22 -26 -51 -41.5t-63 -15.5q-57 0 -94 41zM170 412.5q23 -28.5 60 -28.5q24 0 49 13t47 35l39 196q-15 18 -35.5 28t-44.5 10q-40 0 -71.5 -24t-49 -64
t-17.5 -85q0 -52 23 -80.5z" />
    <glyph glyph-name="zero.tf" horiz-adv-x="590" 
d="M121.5 57.5q-49.5 65.5 -49.5 182.5q0 123 41 233t111 176t154 66q82 0 131 -65.5t49 -182.5q0 -124 -40.5 -233.5t-110.5 -175.5t-154 -66q-82 0 -131.5 65.5zM174.5 83q27.5 -50 80.5 -50q62 0 114.5 64t83 166.5t30.5 213.5q0 96 -27.5 146.5t-79.5 50.5
q-62 0 -114.5 -63.5t-83.5 -166.5t-31 -214q0 -97 27.5 -147z" />
    <glyph glyph-name="one.tf" horiz-adv-x="590" 
d="M378 614l-175 -73l10 51l199 115h55l-142 -707h-71z" />
    <glyph glyph-name="two.tf" horiz-adv-x="590" 
d="M303.5 256q90.5 81 132.5 148.5t42 137.5q0 64 -32 98t-90 34q-64 0 -104 -35t-55 -110h-41l27 146q79 40 176 40q89 0 141.5 -48t52.5 -128q0 -72 -46 -143.5t-137.5 -150t-239.5 -178.5h351l-14 -67h-427l11 53q162 122 252.5 203z" />
    <glyph glyph-name="three.tf" horiz-adv-x="590" 
d="M100.5 48q-53.5 56 -49.5 147h42q-4 -72 37.5 -117t116.5 -45q50 0 90.5 22t63.5 62.5t23 93.5q0 60 -31.5 98t-93.5 38h-61l9 44h65q46 0 85 19.5t61.5 55t22.5 83.5q0 57 -36.5 91t-96.5 34q-68 0 -107 -33.5t-53 -109.5h-42l28 144q45 21 86 30.5t90 9.5
q59 0 105.5 -21.5t72 -59.5t25.5 -85q0 -69 -49 -118.5t-124 -63.5q57 -17 88 -60.5t31 -100.5q0 -63 -33.5 -112t-90.5 -75.5t-125 -26.5q-96 0 -149.5 56z" />
    <glyph glyph-name="four.tf" horiz-adv-x="590" 
d="M357 187h-317l5 31l345 489h89l-376 -476h262l44 217h70l-43 -217h94l-8 -44h-94l-38 -187h-70z" />
    <glyph glyph-name="five.tf" horiz-adv-x="590" 
d="M157.5 16.5q-42.5 24.5 -64.5 67t-20 95.5h42q0 -65 38 -105.5t103 -40.5q53 0 95.5 30.5t67 82.5t24.5 114q0 68 -32 107.5t-92 39.5q-44 0 -86.5 -21.5t-77.5 -65.5h-38l97 387h363l-14 -67h-324l-63 -250q32 30 72 45.5t84 15.5q56 0 98 -24.5t65 -67.5t23 -98
q0 -75 -35.5 -136.5t-95 -97t-129.5 -35.5q-58 0 -100.5 24.5z" />
    <glyph glyph-name="six.tf" horiz-adv-x="590" 
d="M127 61.5q-50 69.5 -50 184.5q0 127 44 234.5t123.5 171t183.5 63.5q37 0 70.5 -10.5t59.5 -28.5l-9 -41q-54 35 -116 35q-72 0 -132 -44t-99.5 -124.5t-53.5 -187.5q27 60 79 95.5t116 35.5q50 0 91 -23t65.5 -67t24.5 -104q0 -71 -31.5 -130.5t-87.5 -94t-126 -34.5
q-102 0 -152 69.5zM187 78.5q36 -45.5 94 -45.5q47 0 85 29.5t60 79t22 107.5q0 73 -32.5 112t-84.5 39q-49 0 -90.5 -29t-65.5 -77.5t-24 -104.5q0 -65 36 -110.5z" />
    <glyph glyph-name="seven.tf" horiz-adv-x="590" 
d="M543 638h-379l14 69h434l-10 -53l-456 -654h-93z" />
    <glyph glyph-name="eight.tf" horiz-adv-x="590" 
d="M149.5 15.5q-48.5 23.5 -75 65t-26.5 92.5q0 74 52 129t138 73q-49 19 -77.5 58.5t-28.5 90.5q0 53 31 96.5t84.5 69t119.5 25.5q60 0 106 -22t71.5 -60.5t25.5 -85.5q0 -68 -48 -118t-124 -65q54 -17 86 -60.5t32 -99.5q0 -59 -32.5 -107.5t-90 -76.5t-130.5 -28
q-65 0 -113.5 23.5zM160.5 72q37.5 -39 104.5 -39q51 0 91 23t62.5 63.5t22.5 90.5q0 63 -36 101.5t-98 38.5q-52 0 -94 -22.5t-66 -63t-24 -90.5q0 -63 37.5 -102zM239 425q34 -36 91 -36q47 0 85.5 20t60 55.5t21.5 79.5q0 57 -35.5 93.5t-96.5 36.5q-45 0 -81.5 -20
t-57.5 -55.5t-21 -79.5q0 -58 34 -94z" />
    <glyph glyph-name="nine.tf" horiz-adv-x="590" 
d="M129.5 2.5q-33.5 10.5 -59.5 28.5l9 41q54 -35 115 -35q73 0 133 44t99.5 124.5t53.5 187.5q-27 -60 -79.5 -95.5t-116.5 -35.5q-49 0 -90 23t-65.5 67t-24.5 104q0 71 31.5 130.5t87.5 94t126 34.5q102 0 152 -69.5t50 -184.5q0 -127 -44 -234.5t-124 -171t-183 -63.5
q-37 0 -70.5 10.5zM212 346q33 -39 84 -39q49 0 91 29t66 77.5t24 104.5q0 65 -36 110.5t-95 45.5q-46 0 -84.5 -29.5t-60.5 -79t-22 -107.5q0 -73 33 -112z" />
    <glyph glyph-name="zero.dnom" horiz-adv-x="402" 
d="M70 35q-33 40 -33 109q0 64 24 120t66 89.5t93 33.5q54 0 86.5 -40t32.5 -109q0 -64 -24 -120t-66 -89.5t-93 -33.5q-53 0 -86 40zM115.5 55.5q14.5 -26.5 41.5 -26.5q32 0 59 32t43 83.5t16 105.5q0 51 -14.5 77t-41.5 26q-31 0 -58.5 -32t-43.5 -83.5t-16 -106.5
q0 -49 14.5 -75.5z" />
    <glyph glyph-name="one.dnom" horiz-adv-x="289" 
d="M145 312l-97 -29l7 36l116 63h47l-75 -382h-60z" />
    <glyph glyph-name="two.dnom" horiz-adv-x="381" 
d="M208 181.5q54 56.5 54 107.5q0 30 -17 47t-47 17q-71 0 -88 -78h-30l16 88q53 24 106 24q56 0 90 -26t34 -73q0 -55 -57 -111t-179 -124h201l-11 -53h-262l9 44q127 81 181 137.5z" />
    <glyph glyph-name="three.dnom" horiz-adv-x="392" 
d="M60 27q-34 32 -33 86h33q-1 -37 22 -60.5t65 -23.5q41 0 67 24t26 61q0 30 -17.5 48.5t-49.5 18.5h-29l7 34h31q38 0 63 20.5t25 53.5q0 29 -19 46.5t-52 17.5q-74 0 -90 -79h-31l17 91q28 11 53 16.5t54 5.5q57 0 93.5 -26.5t36.5 -67.5q0 -36 -27.5 -62.5t-70.5 -33.5
q33 -10 51.5 -33t18.5 -54q0 -51 -44 -83t-106 -32q-60 0 -94 32z" />
    <glyph glyph-name="four.dnom" horiz-adv-x="376" 
d="M200 89h-188l6 28l195 265h78l-233 -259h148l21 107h59l-21 -107h52l-7 -34h-51l-18 -89h-59z" />
    <glyph glyph-name="five.dnom" horiz-adv-x="399" 
d="M77 24.5q-32 29.5 -32 74.5h32q2 -31 23 -50.5t56 -19.5q43 0 71 31t28 75q0 35 -18 54t-50 19q-25 0 -48.5 -11.5t-40.5 -34.5h-31l56 220h224l-10 -54h-192l-28 -113q35 27 85 27q52 0 85 -29.5t33 -78.5q0 -40 -21 -71.5t-57 -49.5t-79 -18q-54 0 -86 29.5z" />
    <glyph glyph-name="six.dnom" horiz-adv-x="390" 
d="M70.5 36.5q-33.5 41.5 -33.5 110.5q0 67 26.5 122t75 86.5t111.5 31.5q47 0 82 -22l-7 -30q-31 17 -69 17q-62 0 -105 -44.5t-53 -121.5q17 27 45 41.5t61 14.5q49 0 80.5 -30t31.5 -80q0 -38 -19 -69.5t-53 -49.5t-75 -18q-65 0 -98.5 41.5zM121.5 51q18.5 -22 47.5 -22
q36 0 60.5 29.5t24.5 72.5q0 36 -17.5 57t-46.5 21q-36 0 -61.5 -29.5t-25.5 -71.5q0 -35 18.5 -57z" />
    <glyph glyph-name="seven.dnom" horiz-adv-x="363" 
d="M300 327h-222l10 55h262l-8 -46l-246 -336h-78z" />
    <glyph glyph-name="eight.dnom" horiz-adv-x="406" 
d="M65.5 24.5q-38.5 29.5 -38.5 73.5q0 40 30.5 69t82.5 37q-31 11 -49.5 33t-18.5 50q0 43 41.5 71.5t102.5 28.5q59 0 94.5 -27.5t35.5 -68.5q0 -37 -28 -63t-73 -34q34 -10 54 -34t20 -55q0 -47 -43 -78.5t-110 -31.5q-62 0 -100.5 29.5zM111.5 48.5
q20.5 -19.5 55.5 -19.5q38 0 62.5 23t24.5 59q0 32 -20 51t-54 19q-38 0 -63.5 -23.5t-25.5 -58.5q0 -31 20.5 -50.5zM153.5 232q19.5 -18 51.5 -18q34 0 57 21t23 54q0 29 -19 46.5t-51 17.5q-35 0 -58 -21t-23 -53q0 -29 19.5 -47z" />
    <glyph glyph-name="nine.dnom" horiz-adv-x="391" 
d="M32 17l7 30q31 -17 70 -17q64 0 105.5 43.5t51.5 125.5q-18 -26 -45.5 -40.5t-61.5 -14.5q-48 0 -79.5 30t-31.5 79q0 37 19.5 68t53 48.5t73.5 17.5q65 0 99 -41t34 -111t-26 -124.5t-74.5 -85t-111.5 -30.5q-48 0 -83 22zM128 198q18 -20 46 -20q36 0 61.5 27.5
t25.5 69.5q0 34 -19 56t-48 22q-36 0 -60 -28.5t-24 -71.5q0 -35 18 -55z" />
    <glyph glyph-name="period.dnom" horiz-adv-x="176" 
d="M11 8q-12 13 -12 31q0 21 15 35t36 14q19 0 30.5 -12t11.5 -31q0 -20 -15 -35t-35 -15q-19 0 -31 13z" />
    <glyph glyph-name="comma.dnom" horiz-adv-x="176" 
d="M-3 -12.5q20 52.5 19 109.5h64q4 -112 -105 -214h-37q39 52 59 104.5z" />
    <glyph glyph-name="zero.numr" horiz-adv-x="402" 
d="M133 360q-33 40 -33 109q0 64 24 120t66 89.5t93 33.5q54 0 86.5 -40t32.5 -109q0 -64 -24 -120t-66 -89.5t-93 -33.5q-53 0 -86 40zM178.5 380.5q14.5 -26.5 41.5 -26.5q32 0 59 32t43 83.5t16 105.5q0 51 -14.5 77t-41.5 26q-31 0 -58.5 -32t-43.5 -83.5t-16 -106.5
q0 -49 14.5 -75.5z" />
    <glyph glyph-name="one.numr" horiz-adv-x="289" 
d="M208 637l-97 -29l7 36l116 63h47l-75 -382h-60z" />
    <glyph glyph-name="two.numr" horiz-adv-x="381" 
d="M271 506.5q54 56.5 54 107.5q0 30 -17 47t-47 17q-71 0 -88 -78h-30l16 88q53 24 106 24q56 0 90 -26t34 -73q0 -55 -57 -111t-179 -124h201l-11 -53h-262l9 44q127 81 181 137.5z" />
    <glyph glyph-name="three.numr" horiz-adv-x="392" 
d="M123 352q-34 32 -33 86h33q-1 -37 22 -60.5t65 -23.5q41 0 67 24t26 61q0 30 -17.5 48.5t-49.5 18.5h-29l7 34h31q38 0 63 20.5t25 53.5q0 29 -19 46.5t-52 17.5q-74 0 -90 -79h-31l17 91q28 11 53 16.5t54 5.5q57 0 93.5 -26.5t36.5 -67.5q0 -36 -27.5 -62.5
t-70.5 -33.5q33 -10 51.5 -33t18.5 -54q0 -51 -44 -83t-106 -32q-60 0 -94 32z" />
    <glyph glyph-name="four.numr" horiz-adv-x="376" 
d="M263 414h-188l6 28l195 265h78l-233 -259h148l21 107h59l-21 -107h52l-7 -34h-51l-18 -89h-59z" />
    <glyph glyph-name="five.numr" horiz-adv-x="399" 
d="M140 349.5q-32 29.5 -32 74.5h32q2 -31 23 -50.5t56 -19.5q43 0 71 31t28 75q0 35 -18 54t-50 19q-25 0 -48.5 -11.5t-40.5 -34.5h-31l56 220h224l-10 -54h-192l-28 -113q35 27 85 27q52 0 85 -29.5t33 -78.5q0 -40 -21 -71.5t-57 -49.5t-79 -18q-54 0 -86 29.5z" />
    <glyph glyph-name="six.numr" horiz-adv-x="390" 
d="M133.5 361.5q-33.5 41.5 -33.5 110.5q0 67 26.5 122t75 86.5t111.5 31.5q47 0 82 -22l-7 -30q-31 17 -69 17q-62 0 -105 -44.5t-53 -121.5q17 27 45 41.5t61 14.5q49 0 80.5 -30t31.5 -80q0 -38 -19 -69.5t-53 -49.5t-75 -18q-65 0 -98.5 41.5zM184.5 376
q18.5 -22 47.5 -22q36 0 60.5 29.5t24.5 72.5q0 36 -17.5 57t-46.5 21q-36 0 -61.5 -29.5t-25.5 -71.5q0 -35 18.5 -57z" />
    <glyph glyph-name="seven.numr" horiz-adv-x="363" 
d="M363 652h-222l10 55h262l-8 -46l-246 -336h-78z" />
    <glyph glyph-name="eight.numr" horiz-adv-x="406" 
d="M128.5 349.5q-38.5 29.5 -38.5 73.5q0 40 30.5 69t82.5 37q-31 11 -49.5 33t-18.5 50q0 43 41.5 71.5t102.5 28.5q59 0 94.5 -27.5t35.5 -68.5q0 -37 -28 -63t-73 -34q34 -10 54 -34t20 -55q0 -47 -43 -78.5t-110 -31.5q-62 0 -100.5 29.5zM174.5 373.5
q20.5 -19.5 55.5 -19.5q38 0 62.5 23t24.5 59q0 32 -20 51t-54 19q-38 0 -63.5 -23.5t-25.5 -58.5q0 -31 20.5 -50.5zM216.5 557q19.5 -18 51.5 -18q34 0 57 21t23 54q0 29 -19 46.5t-51 17.5q-35 0 -58 -21t-23 -53q0 -29 19.5 -47z" />
    <glyph glyph-name="nine.numr" horiz-adv-x="391" 
d="M95 342l7 30q31 -17 70 -17q64 0 105.5 43.5t51.5 125.5q-18 -26 -45.5 -40.5t-61.5 -14.5q-48 0 -79.5 30t-31.5 79q0 37 19.5 68t53 48.5t73.5 17.5q65 0 99 -41t34 -111t-26 -124.5t-74.5 -85t-111.5 -30.5q-48 0 -83 22zM191 523q18 -20 46 -20q36 0 61.5 27.5
t25.5 69.5q0 34 -19 56t-48 22q-36 0 -60 -28.5t-24 -71.5q0 -35 18 -55z" />
    <glyph glyph-name="period.numr" horiz-adv-x="176" 
d="M74 333q-12 13 -12 31q0 21 15 35t36 14q19 0 30.5 -12t11.5 -31q0 -20 -15 -35t-35 -15q-19 0 -31 13z" />
    <glyph glyph-name="comma.numr" horiz-adv-x="176" 
d="M61 313.5q20 52.5 19 109.5h64q4 -112 -105 -214h-37q39 52 59 104.5z" />
    <glyph glyph-name="period.subs" horiz-adv-x="176" 
d="M-5 -77q-12 13 -12 31q0 21 15 35t36 14q19 0 30.5 -12t11.5 -31q0 -20 -15 -35t-35 -15q-19 0 -31 13z" />
    <glyph glyph-name="comma.subs" horiz-adv-x="176" 
d="M-20 -102.5q20 52.5 19 109.5h64q4 -112 -105 -214h-37q39 52 59 104.5z" />
    <glyph glyph-name="period.sups" horiz-adv-x="176" 
d="M91 418q-12 13 -12 31q0 21 15 35t36 14q19 0 30.5 -12t11.5 -31q0 -20 -15 -35t-35 -15q-19 0 -31 13z" />
    <glyph glyph-name="comma.sups" horiz-adv-x="176" 
d="M76 392.5q20 52.5 19 109.5h64q4 -112 -105 -214h-37q39 52 59 104.5z" />
    <glyph glyph-name="exclamdown.case" horiz-adv-x="291" 
d="M176 499h42l-79 -499h-84zM186.5 698q17.5 17 41.5 17q23 0 37 -14.5t14 -36.5q0 -25 -17.5 -41.5t-42.5 -16.5q-22 0 -36 14.5t-14 36.5q0 24 17.5 41z" />
    <glyph glyph-name="questiondown.case" horiz-adv-x="487" 
d="M80.5 31q-45.5 39 -45.5 97q0 82 97 155l85 63q40 30 57.5 58.5t17.5 71.5q0 14 -1 23h37q5 -27 5 -49q0 -48 -19 -80t-62 -68l-85 -71q-30 -24 -46.5 -49t-16.5 -56q0 -39 27 -66t84 -27q58 0 92.5 31t49.5 100h41l-27 -136q-78 -36 -162 -36q-83 0 -128.5 39z
M287.5 698.5q17.5 16.5 42.5 16.5q23 0 36.5 -14.5t13.5 -36.5q0 -25 -17 -41.5t-42 -16.5q-23 0 -37 14.5t-14 36.5q0 25 17.5 41.5z" />
    <glyph glyph-name="slash.case" horiz-adv-x="372" 
d="M393 793h61l-442 -905h-61z" />
    <glyph glyph-name="backslash.case" horiz-adv-x="369" 
d="M127 793h54l93 -905h-54z" />
    <glyph glyph-name="hyphen.case" horiz-adv-x="468" 
d="M101 400h321l-12 -64h-321z" />
    <glyph glyph-name="endash.case" horiz-adv-x="541" 
d="M45 389h500l-8 -42h-500z" />
    <glyph glyph-name="emdash.case" horiz-adv-x="1041" 
d="M45 389h1000l-8 -42h-1000z" />
    <glyph glyph-name="parenleft.case" horiz-adv-x="318" 
d="M75 239q0 334 264 569h56q-76 -88 -128 -167.5t-83.5 -181t-31.5 -226.5q0 -175 61 -335h-50q-88 171 -88 341z" />
    <glyph glyph-name="parenright.case" horiz-adv-x="318" 
d="M88 65.5q52 79.5 83.5 181t31.5 226.5q0 174 -60 335h49q89 -170 89 -341q0 -333 -265 -569h-56q76 88 128 167.5z" />
    <glyph glyph-name="braceleft.case" horiz-adv-x="426" 
d="M155.5 -68q-39.5 40 -39.5 113q0 29 6 62l28 148q2 8 2 22q0 29 -21 41.5t-66 12.5l9 45q54 0 80 16t34 60l34 172q18 92 74.5 141.5t142.5 49.5q41 0 69 -12l-8 -39q-23 8 -55 8q-122 0 -154 -163l-29 -152q-8 -44 -33 -71t-72 -36q63 -25 63 -92q0 -15 -3 -33l-25 -127
q-7 -32 -7 -61q0 -102 93 -102q35 0 60 5l-8 -41q-31 -7 -62 -7q-73 0 -112.5 40z" />
    <glyph glyph-name="braceright.case" horiz-adv-x="426" 
d="M-45 -96l8 39q23 -8 55 -8q122 0 154 163l29 152q8 44 33 71t72 36q-63 25 -63 92q0 15 3 33l25 127q7 32 7 61q0 102 -93 102q-35 0 -60 -5l8 41q31 7 62 7q73 0 112.5 -40t39.5 -113q0 -29 -6 -62l-28 -148q-2 -8 -2 -22q0 -29 21 -41.5t66 -12.5l-9 -45q-54 0 -80 -16
t-34 -60l-34 -172q-18 -92 -74.5 -141.5t-142.5 -49.5q-41 0 -69 12z" />
    <glyph glyph-name="bracketleft.case" horiz-adv-x="365" 
d="M199 808h249l-9 -45h-179l-164 -820h178l-9 -45h-248z" />
    <glyph glyph-name="bracketright.case" horiz-adv-x="365" 
d="M-37 -57h179l164 820h-178l9 45h248l-182 -910h-249z" />
    <glyph glyph-name="guillemotleft.case" horiz-adv-x="473" 
d="M61 354l179 188h59l-161 -195l76 -181h-50zM249 354l179 188h59l-161 -195l76 -181h-50z" />
    <glyph glyph-name="guillemotright.case" horiz-adv-x="473" 
d="M185 361l-75 181h49l103 -188l-178 -188h-60zM373 361l-75 181h49l103 -188l-178 -188h-60z" />
    <glyph glyph-name="guilsinglleft.case" horiz-adv-x="285" 
d="M61 354l179 188h59l-161 -195l76 -181h-50z" />
    <glyph glyph-name="guilsinglright.case" horiz-adv-x="285" 
d="M185 361l-75 181h49l103 -188l-178 -188h-60z" />
    <glyph glyph-name="at.case" horiz-adv-x="829" 
d="M228 29q-71 37 -111 107.5t-40 169.5q0 119 53.5 212t147 145t210.5 52q94 0 164 -37t107.5 -101.5t37.5 -145.5q0 -75 -27.5 -136t-73.5 -95.5t-98 -34.5q-32 0 -55.5 15t-30.5 42q-26 -29 -58.5 -44.5t-67.5 -15.5q-57 0 -94.5 41.5t-37.5 111.5q0 57 24.5 107t68 80.5
t96.5 30.5q37 0 65 -15t45 -39l10 49h60l-52 -268q-2 -12 -2 -17q0 -18 9.5 -27.5t26.5 -9.5q37 0 70.5 29.5t54.5 80.5t21 113q0 72 -31 127t-91 86t-144 31q-103 0 -185 -44.5t-129 -127t-47 -190.5q0 -86 33 -148.5t94 -95.5t142 -33q78 0 154 27l-9 -42
q-65 -27 -148 -27q-91 0 -162 37zM344.5 234q24.5 -30 62.5 -30q52 0 99 50l38 195q-31 41 -84 41q-41 0 -73 -23.5t-49.5 -63.5t-17.5 -86q0 -53 24.5 -83z" />
    <glyph glyph-name="uni030C.alt" 
d="M187 758h69l-85 -195h-41z" />
    <glyph glyph-name="uni0308.alt" 
d="M387.5 646q-11.5 12 -11.5 30q0 24 16 40t40 16q18 0 29.5 -12t11.5 -29q0 -24 -16 -40.5t-40 -16.5q-18 0 -29.5 12zM209 715.5q16 16.5 40 16.5q18 0 30 -12t12 -29q0 -23 -16.5 -40t-39.5 -17q-18 0 -30 12t-12 30q0 23 16 39.5z" />
    <glyph glyph-name="gravecomb.alt" 
d="M259 744h91l68 -140h-40z" />
    <glyph glyph-name="acutecomb.alt" 
d="M343 744h95l-171 -140h-49z" />
    <glyph glyph-name="uni0302.alt" 
d="M312 744h66l84 -140h-41l-82 86l-119 -86h-47z" />
    <glyph glyph-name="uni0306.alt" 
d="M246.5 632.5q-30.5 34.5 -30.5 87.5q0 8 2 24h39q-3 -40 15.5 -65t57.5 -25t66.5 24.5t35.5 65.5h39q-7 -62 -47.5 -104t-96.5 -42q-50 0 -80.5 34.5z" />
    <glyph glyph-name="tildecomb.alt" 
d="M331 647l-21 16q-11 9 -20 13.5t-20 4.5q-19 0 -30 -13.5t-12 -39.5h-35q-1 46 22.5 75t60.5 29q31 0 58 -23l20 -16q12 -9 21 -13.5t19 -4.5q18 0 29.5 14t11.5 39h36q1 -46 -22 -75t-60 -29q-29 0 -58 23z" />
    <glyph glyph-name="uni0304.alt" 
d="M208 703h258l-9 -50h-258z" />
    <glyph glyph-name="uni0308.case" 
d="M422 781q-12 12 -12 30q0 24 16 40t40 16q18 0 30 -11.5t12 -29.5q0 -23 -16.5 -40t-39.5 -17q-18 0 -30 12zM227 851q16 16 40 16q18 0 30 -11.5t12 -29.5q0 -23 -16.5 -40t-39.5 -17q-18 0 -30 12t-12 30q0 24 16 40z" />
    <glyph glyph-name="uni0307.case" 
d="M319.5 779q-12.5 13 -12.5 32q0 24 17 41.5t42 17.5q19 0 31.5 -12.5t12.5 -31.5q0 -25 -17 -42.5t-42 -17.5q-19 0 -31.5 13z" />
    <glyph glyph-name="gravecomb.case" 
d="M228 884h95l102 -120h-43z" />
    <glyph glyph-name="acutecomb.case" 
d="M386 884h101l-200 -120h-49z" />
    <glyph glyph-name="uni030B.case" 
d="M464 884h80l-139 -120h-40zM306 884h80l-139 -120h-40z" />
    <glyph glyph-name="uni0302.case" 
d="M338 884h67l96 -120h-44l-90 72l-125 -72h-47z" />
    <glyph glyph-name="uni030C.case" 
d="M218 884h44l91 -72l125 72h47l-143 -120h-67z" />
    <glyph glyph-name="uni0306.case" 
d="M268 788q-33 30 -33 76q0 6 2 20h39q-3 -31 17.5 -50.5t63.5 -19.5q42 0 71 19t39 51h40q-8 -54 -51 -90t-102 -36q-53 0 -86 30z" />
    <glyph glyph-name="uni030A.case" 
d="M275 759.5q-29 28.5 -29 72.5q0 34 18 62.5t48 45t64 16.5q46 0 75.5 -28.5t29.5 -72.5q0 -35 -18 -63t-48 -44.5t-65 -16.5q-46 0 -75 28.5zM319 781q12 -16 32 -16q30 0 49.5 28t19.5 68q0 28 -12 44t-33 16q-29 0 -48.5 -28t-19.5 -68q0 -28 12 -44z" />
    <glyph glyph-name="tildecomb.case" 
d="M359 787l-23 16q-25 18 -45 18q-21 0 -34.5 -13.5t-15.5 -39.5h-36q2 46 28 75t64 29q30 0 64 -23l22 -16q25 -18 45 -18q21 0 34.5 13.5t15.5 39.5h36q-1 -46 -27 -75t-65 -29q-31 0 -63 23z" />
    <glyph glyph-name="uni0304.case" 
d="M191 838h301l-10 -50h-301z" />
    <glyph glyph-name="uni0335.case" 
d="M104 395h355l-8 -39h-355z" />
    <glyph glyph-name="uni0337.case" 
d="M91 283l176 113l-10 -53l-177 -113zM284 392l177 112l-10 -54l-176 -111z" />
    <glyph glyph-name="uni0338.case" 
d="M756 707h65l-778 -707h-66z" />
    </font>
</defs>
</svg>
